<?xml version="1.0" encoding="utf-8"?>
<!-- Generator: Adobe Illustrator 16.0.0, SVG Export Plug-In . SVG Version: 6.00 Build 0)  -->
<!DOCTYPE svg PUBLIC "-//W3C//DTD SVG 1.1//EN" "http://www.w3.org/Graphics/SVG/1.1/DTD/svg11.dtd" [
	<!ENTITY ns_extend "http://ns.adobe.com/Extensibility/1.0/">
	<!ENTITY ns_ai "http://ns.adobe.com/AdobeIllustrator/10.0/">
	<!ENTITY ns_graphs "http://ns.adobe.com/Graphs/1.0/">
	<!ENTITY ns_vars "http://ns.adobe.com/Variables/1.0/">
	<!ENTITY ns_imrep "http://ns.adobe.com/ImageReplacement/1.0/">
	<!ENTITY ns_sfw "http://ns.adobe.com/SaveForWeb/1.0/">
	<!ENTITY ns_custom "http://ns.adobe.com/GenericCustomNamespace/1.0/">
	<!ENTITY ns_adobe_xpath "http://ns.adobe.com/XPath/1.0/">
]>
<svg version="1.1" id="圖層_1" xmlns:x="&ns_extend;" xmlns:i="&ns_ai;" xmlns:graph="&ns_graphs;"
	 xmlns="http://www.w3.org/2000/svg" xmlns:xlink="http://www.w3.org/1999/xlink" x="0px" y="0px" width="155.906px"
	 height="174.977px" viewBox="0 0 155.906 174.977" enable-background="new 0 0 155.906 174.977" xml:space="preserve">
<metadata>
	<sfw  xmlns="&ns_sfw;">
		<slices></slices>
		<sliceSourceBounds  height="115.765" width="115.787" y="359.307" x="239.606" bottomLeftOrigin="true"></sliceSourceBounds>
	</sfw>
</metadata>
<g>
	<g>
		
			<linearGradient id="SVGID_1_" gradientUnits="userSpaceOnUse" x1="19.3362" y1="-534.8169" x2="133.4894" y2="-651.7318" gradientTransform="matrix(1 0 0 -1 -0.0601 -503.8096)">
			<stop  offset="0.0056" style="stop-color:#CC491A"/>
			<stop  offset="0.3684" style="stop-color:#DEB817"/>
			<stop  offset="0.7088" style="stop-color:#58AC46"/>
			<stop  offset="1" style="stop-color:#821976"/>
		</linearGradient>
		<path fill="url(#SVGID_1_)" d="M26.604,41.219c-0.057-0.177-0.096-0.489-0.096-0.874c0-1.223,0.621-2.024,1.768-2.024
			c1.352,0,1.854,1.127,1.854,2.158c0,0.386-0.052,0.645-0.094,0.756l-0.408-0.148c0.041-0.148,0.077-0.296,0.077-0.585
			c0-0.689-0.385-1.364-1.397-1.364c-0.997,0-1.366,0.616-1.366,1.364c0,0.238,0.029,0.452,0.067,0.615L26.604,41.219z"/>
		
			<linearGradient id="SVGID_2_" gradientUnits="userSpaceOnUse" x1="17.5505" y1="-536.5469" x2="131.7661" y2="-653.5258" gradientTransform="matrix(1 0 0 -1 -0.0601 -503.8096)">
			<stop  offset="0.0056" style="stop-color:#CC491A"/>
			<stop  offset="0.3684" style="stop-color:#DEB817"/>
			<stop  offset="0.7088" style="stop-color:#58AC46"/>
			<stop  offset="1" style="stop-color:#821976"/>
		</linearGradient>
		<path fill="url(#SVGID_2_)" d="M30.103,43.084H28.59v1.483h1.514v0.756H26.53v-0.756h1.614v-1.483H26.53v-0.756h3.573V43.084z"/>
		
			<linearGradient id="SVGID_3_" gradientUnits="userSpaceOnUse" x1="15.7122" y1="-538.3496" x2="129.9164" y2="-655.3167" gradientTransform="matrix(1 0 0 -1 -0.0601 -503.8096)">
			<stop  offset="0.0056" style="stop-color:#CC491A"/>
			<stop  offset="0.3684" style="stop-color:#DEB817"/>
			<stop  offset="0.7088" style="stop-color:#58AC46"/>
			<stop  offset="1" style="stop-color:#821976"/>
		</linearGradient>
		<path fill="url(#SVGID_3_)" d="M30.114,47.163h-2.37c-0.615,0-0.804,0.326-0.804,0.704c0,0.423,0.193,0.719,0.804,0.719h2.37
			v0.765h-2.277c-0.912,0-1.319-0.587-1.319-1.492c0-0.949,0.414-1.46,1.282-1.46h2.317L30.114,47.163L30.114,47.163z"/>
		
			<linearGradient id="SVGID_4_" gradientUnits="userSpaceOnUse" x1="13.1721" y1="-540.8198" x2="127.4043" y2="-657.8157" gradientTransform="matrix(1 0 0 -1 -0.0601 -503.8096)">
			<stop  offset="0.0056" style="stop-color:#CC491A"/>
			<stop  offset="0.3684" style="stop-color:#DEB817"/>
			<stop  offset="0.7088" style="stop-color:#58AC46"/>
			<stop  offset="1" style="stop-color:#821976"/>
		</linearGradient>
		<path fill="url(#SVGID_4_)" d="M27.533,51.302l-1.005-0.34v-0.749l3.573,1.32v0.889l-3.573,1.209v-0.726l1.005-0.34V51.302z
			 M27.914,52.473l0.907-0.304c0.243-0.081,0.529-0.156,0.781-0.208V51.94c-0.254-0.068-0.557-0.149-0.781-0.231l-0.907-0.311
			V52.473z"/>
		
			<linearGradient id="SVGID_5_" gradientUnits="userSpaceOnUse" x1="11.4822" y1="-542.4731" x2="125.701" y2="-659.4553" gradientTransform="matrix(1 0 0 -1 -0.0601 -503.8096)">
			<stop  offset="0.0056" style="stop-color:#CC491A"/>
			<stop  offset="0.3684" style="stop-color:#DEB817"/>
			<stop  offset="0.7088" style="stop-color:#58AC46"/>
			<stop  offset="1" style="stop-color:#821976"/>
		</linearGradient>
		<path fill="url(#SVGID_5_)" d="M26.53,54.499h3.573v0.674l-1.661,1.031c-0.34,0.213-0.783,0.475-1.114,0.646v0.015
			c0.464-0.045,1.018-0.119,1.67-0.119h1.104v0.689H26.53v-0.717l1.632-1.022c0.34-0.211,0.745-0.423,1.114-0.588l-0.005-0.015
			c-0.403,0.036-0.894,0.097-1.655,0.097H26.53V54.499L26.53,54.499z"/>
		
			<linearGradient id="SVGID_6_" gradientUnits="userSpaceOnUse" x1="9.2097" y1="-544.6885" x2="123.4402" y2="-661.6824" gradientTransform="matrix(1 0 0 -1 -0.0601 -503.8096)">
			<stop  offset="0.0056" style="stop-color:#CC491A"/>
			<stop  offset="0.3684" style="stop-color:#DEB817"/>
			<stop  offset="0.7088" style="stop-color:#58AC46"/>
			<stop  offset="1" style="stop-color:#821976"/>
		</linearGradient>
		<path fill="url(#SVGID_6_)" d="M26.626,61.552c-0.06-0.223-0.119-0.653-0.119-1.016c0-1.617,0.971-2.053,1.746-2.053
			c1.357,0,1.873,1.119,1.873,2.188c0,0.364-0.047,0.636-0.095,0.808l-0.423-0.156c0.045-0.135,0.086-0.34,0.086-0.599
			c0-0.75-0.362-1.44-1.407-1.44c-1.024,0-1.362,0.608-1.362,1.224c0,0.185,0.019,0.284,0.036,0.342h1.068v-0.646h0.403v1.351
			L26.626,61.552L26.626,61.552z"/>
		
			<linearGradient id="SVGID_7_" gradientUnits="userSpaceOnUse" x1="6.0017" y1="-547.7944" x2="120.306" y2="-664.8641" gradientTransform="matrix(1 0 0 -1 -0.0601 -503.8096)">
			<stop  offset="0.0056" style="stop-color:#CC491A"/>
			<stop  offset="0.3684" style="stop-color:#DEB817"/>
			<stop  offset="0.7088" style="stop-color:#58AC46"/>
			<stop  offset="1" style="stop-color:#821976"/>
		</linearGradient>
		<path fill="url(#SVGID_7_)" d="M30.103,66.16H28.59v1.481h1.514v0.757H26.53v-0.757h1.614V66.16H26.53v-0.755h3.573V66.16z"/>
		
			<linearGradient id="SVGID_8_" gradientUnits="userSpaceOnUse" x1="4.1243" y1="-549.6084" x2="118.4646" y2="-666.7152" gradientTransform="matrix(1 0 0 -1 -0.0601 -503.8096)">
			<stop  offset="0.0056" style="stop-color:#CC491A"/>
			<stop  offset="0.3684" style="stop-color:#DEB817"/>
			<stop  offset="0.7088" style="stop-color:#58AC46"/>
			<stop  offset="1" style="stop-color:#821976"/>
		</linearGradient>
		<path fill="url(#SVGID_8_)" d="M27.1,69.29c-0.096,0.25-0.171,0.635-0.171,1.002c0,0.636,0.235,1.009,0.551,1.009
			c0.313,0,0.489-0.297,0.687-0.874c0.271-0.787,0.58-1.188,0.984-1.188c0.556,0,0.975,0.608,0.975,1.691
			c0,0.414-0.069,0.756-0.144,0.935l-0.41-0.164c0.065-0.162,0.133-0.438,0.133-0.793c0-0.613-0.25-0.889-0.488-0.889
			c-0.295,0-0.44,0.237-0.666,0.912c-0.267,0.801-0.588,1.148-1.017,1.148c-0.603,0-1.025-0.689-1.025-1.793
			c0-0.481,0.083-0.926,0.173-1.142L27.1,69.29z"/>
		
			<linearGradient id="SVGID_9_" gradientUnits="userSpaceOnUse" x1="2.3201" y1="-551.439" x2="116.4921" y2="-668.3733" gradientTransform="matrix(1 0 0 -1 -0.0601 -503.8096)">
			<stop  offset="0.0056" style="stop-color:#CC491A"/>
			<stop  offset="0.3684" style="stop-color:#DEB817"/>
			<stop  offset="0.7088" style="stop-color:#58AC46"/>
			<stop  offset="1" style="stop-color:#821976"/>
		</linearGradient>
		<path fill="url(#SVGID_9_)" d="M30.103,74.705H26.53v-0.779h3.573V74.705z"/>
		
			<linearGradient id="SVGID_10_" gradientUnits="userSpaceOnUse" x1="0.4607" y1="-553.2471" x2="114.657" y2="-670.2064" gradientTransform="matrix(1 0 0 -1 -0.0601 -503.8096)">
			<stop  offset="0.0056" style="stop-color:#CC491A"/>
			<stop  offset="0.3684" style="stop-color:#DEB817"/>
			<stop  offset="0.7088" style="stop-color:#58AC46"/>
			<stop  offset="1" style="stop-color:#821976"/>
		</linearGradient>
		<path fill="url(#SVGID_10_)" d="M26.53,76.56h3.573v0.675l-1.661,1.029c-0.34,0.215-0.783,0.475-1.114,0.645v0.016
			c0.464-0.045,1.018-0.119,1.67-0.119h1.104v0.689H26.53v-0.718l1.632-1.022c0.34-0.21,0.745-0.423,1.114-0.586l-0.005-0.016
			c-0.403,0.036-0.894,0.095-1.655,0.095H26.53V76.56L26.53,76.56z"/>
		
			<linearGradient id="SVGID_11_" gradientUnits="userSpaceOnUse" x1="-2.7703" y1="-556.4038" x2="111.4203" y2="-673.3571" gradientTransform="matrix(1 0 0 -1 -0.0601 -503.8096)">
			<stop  offset="0.0056" style="stop-color:#CC491A"/>
			<stop  offset="0.3684" style="stop-color:#DEB817"/>
			<stop  offset="0.7088" style="stop-color:#58AC46"/>
			<stop  offset="1" style="stop-color:#821976"/>
		</linearGradient>
		<path fill="url(#SVGID_11_)" d="M30.103,84.414v0.779h-2.45c-0.914,0-1.145-0.639-1.145-1.533c0-0.216,0.021-0.446,0.055-0.588
			l0.407,0.104c-0.023,0.11-0.038,0.258-0.038,0.43c0,0.504,0.135,0.808,0.709,0.808H30.103z"/>
		
			<linearGradient id="SVGID_12_" gradientUnits="userSpaceOnUse" x1="-4.5242" y1="-558.1055" x2="109.6902" y2="-675.0831" gradientTransform="matrix(1 0 0 -1 -0.0601 -503.8096)">
			<stop  offset="0.0056" style="stop-color:#CC491A"/>
			<stop  offset="0.3684" style="stop-color:#DEB817"/>
			<stop  offset="0.7088" style="stop-color:#58AC46"/>
			<stop  offset="1" style="stop-color:#821976"/>
		</linearGradient>
		<path fill="url(#SVGID_12_)" d="M30.103,88.384H26.53v-0.78h3.573V88.384z"/>
		
			<linearGradient id="SVGID_13_" gradientUnits="userSpaceOnUse" x1="-6.4211" y1="-559.9258" x2="107.8533" y2="-676.965" gradientTransform="matrix(1 0 0 -1 -0.0601 -503.8096)">
			<stop  offset="0.0056" style="stop-color:#CC491A"/>
			<stop  offset="0.3684" style="stop-color:#DEB817"/>
			<stop  offset="0.7088" style="stop-color:#58AC46"/>
			<stop  offset="1" style="stop-color:#821976"/>
		</linearGradient>
		<path fill="url(#SVGID_13_)" d="M28.195,92.861v-1.653h-1.218v1.86h-0.426v-2.625h3.528v2.521h-0.419v-1.758h-1.062v1.652
			L28.195,92.861L28.195,92.861z"/>
	</g>
	
		<linearGradient id="SVGID_14_" gradientUnits="userSpaceOnUse" x1="11.9998" y1="-541.9702" x2="126.1878" y2="-658.9208" gradientTransform="matrix(1 0 0 -1 -0.0601 -503.8096)">
		<stop  offset="0.0056" style="stop-color:#CC491A"/>
		<stop  offset="0.3684" style="stop-color:#DEB817"/>
		<stop  offset="0.7088" style="stop-color:#58AC46"/>
		<stop  offset="1" style="stop-color:#821976"/>
	</linearGradient>
	<path fill="url(#SVGID_14_)" d="M20.562,48.309v0.073c0.002,0.365,0.014,0.628,0.036,0.787c0.011,0.052,0.016,0.093,0.016,0.121
		c0,0.043-0.021,0.063-0.078,0.063c-0.056,0-0.092-0.022-0.105-0.069c-0.01-0.021-0.012-0.062-0.012-0.122v-2.287
		c0.322,0.239,0.6,0.44,0.838,0.603c0.239,0.163,0.506,0.333,0.8,0.509c0.323,0.195,0.563,0.332,0.723,0.409
		c0.158,0.077,0.277,0.117,0.354,0.117c0.091,0,0.16-0.03,0.203-0.094c0.045-0.061,0.068-0.155,0.068-0.28s-0.023-0.252-0.07-0.384
		c-0.047-0.131-0.107-0.242-0.184-0.331c-0.074-0.087-0.162-0.157-0.267-0.208c-0.101-0.053-0.207-0.078-0.308-0.078
		c-0.066,0-0.127,0.008-0.172,0.024c-0.049,0.018-0.121,0.055-0.212,0.112c-0.02,0.013-0.043,0.019-0.061,0.019
		c-0.021,0-0.043-0.008-0.059-0.023c-0.018-0.017-0.024-0.034-0.024-0.053c0-0.054,0.056-0.104,0.165-0.151
		c0.108-0.047,0.224-0.071,0.345-0.071c0.167,0,0.325,0.046,0.479,0.137c0.174,0.104,0.304,0.25,0.399,0.438
		c0.092,0.189,0.135,0.407,0.135,0.656c0,0.271-0.052,0.502-0.156,0.695c-0.078,0.143-0.188,0.253-0.336,0.333
		c-0.123,0.064-0.255,0.097-0.407,0.097c-0.116,0-0.238-0.019-0.358-0.058c-0.122-0.039-0.266-0.102-0.438-0.193
		c-0.297-0.158-0.607-0.343-0.932-0.555L20.562,48.309z"/>
	
		<linearGradient id="SVGID_15_" gradientUnits="userSpaceOnUse" x1="10.7859" y1="-543.1577" x2="124.9761" y2="-660.1105" gradientTransform="matrix(1 0 0 -1 -0.0601 -503.8096)">
		<stop  offset="0.0056" style="stop-color:#CC491A"/>
		<stop  offset="0.3684" style="stop-color:#DEB817"/>
		<stop  offset="0.7088" style="stop-color:#58AC46"/>
		<stop  offset="1" style="stop-color:#821976"/>
	</linearGradient>
	<path fill="url(#SVGID_15_)" d="M23.561,50.861c0,0.345-0.156,0.634-0.47,0.864c-0.304,0.225-0.692,0.336-1.168,0.336
		c-0.485,0-0.889-0.131-1.197-0.396c-0.265-0.223-0.396-0.491-0.396-0.804c0-0.214,0.059-0.417,0.183-0.606
		c0.144-0.225,0.357-0.398,0.633-0.515c0.219-0.096,0.485-0.141,0.797-0.141c0.5,0,0.898,0.129,1.196,0.387
		c0.135,0.114,0.233,0.248,0.306,0.401C23.524,50.538,23.56,50.695,23.561,50.861z M23.41,50.822l-1.458-0.01l-1.204,0.008
		l-0.266,0.002c-0.002,0.251,0.081,0.468,0.248,0.651c0.137,0.145,0.31,0.258,0.519,0.337c0.207,0.079,0.441,0.117,0.698,0.117
		c0.454,0,0.815-0.104,1.083-0.315c0.121-0.095,0.216-0.205,0.288-0.327c0.063-0.126,0.099-0.25,0.099-0.371
		C23.416,50.895,23.414,50.864,23.41,50.822z"/>
	
		<linearGradient id="SVGID_16_" gradientUnits="userSpaceOnUse" x1="9.4465" y1="-544.4536" x2="123.7066" y2="-661.4782" gradientTransform="matrix(1 0 0 -1 -0.0601 -503.8096)">
		<stop  offset="0.0056" style="stop-color:#CC491A"/>
		<stop  offset="0.3684" style="stop-color:#DEB817"/>
		<stop  offset="0.7088" style="stop-color:#58AC46"/>
		<stop  offset="1" style="stop-color:#821976"/>
	</linearGradient>
	<path fill="url(#SVGID_16_)" d="M23.561,53.53c0,0.346-0.156,0.634-0.47,0.864c-0.304,0.222-0.692,0.333-1.168,0.333
		c-0.485,0-0.889-0.132-1.197-0.396c-0.265-0.223-0.396-0.491-0.396-0.804c0-0.211,0.059-0.416,0.183-0.606
		c0.144-0.223,0.357-0.396,0.633-0.514c0.219-0.095,0.485-0.141,0.797-0.141c0.5,0,0.898,0.13,1.196,0.387
		c0.135,0.115,0.233,0.249,0.306,0.401C23.524,53.205,23.56,53.365,23.561,53.53z M23.41,53.49l-1.458-0.01l-1.204,0.007
		l-0.266,0.003c-0.002,0.25,0.081,0.468,0.248,0.65c0.137,0.147,0.31,0.261,0.519,0.338c0.207,0.079,0.441,0.119,0.698,0.119
		c0.454,0,0.815-0.105,1.083-0.316c0.121-0.095,0.216-0.205,0.288-0.326c0.063-0.127,0.099-0.25,0.099-0.37
		C23.416,53.563,23.414,53.533,23.41,53.49z"/>
	<g>
		
			<linearGradient id="SVGID_17_" gradientUnits="userSpaceOnUse" x1="6.1028" y1="-547.6772" x2="120.4948" y2="-664.8369" gradientTransform="matrix(1 0 0 -1 -0.0601 -503.8096)">
			<stop  offset="0.0056" style="stop-color:#CC491A"/>
			<stop  offset="0.3684" style="stop-color:#DEB817"/>
			<stop  offset="0.7088" style="stop-color:#58AC46"/>
			<stop  offset="1" style="stop-color:#821976"/>
		</linearGradient>
		<path fill="url(#SVGID_17_)" d="M22.173,59.881c0,0.177-0.043,0.322-0.135,0.43c-0.088,0.11-0.207,0.165-0.354,0.165
			c-0.153,0-0.275-0.055-0.367-0.167c-0.096-0.11-0.143-0.25-0.143-0.428c0-0.221,0.068-0.39,0.207-0.499
			c0.081-0.064,0.176-0.096,0.286-0.096c0.153,0,0.275,0.055,0.364,0.162C22.124,59.557,22.171,59.7,22.173,59.881z"/>
		
			<linearGradient id="SVGID_18_" gradientUnits="userSpaceOnUse" x1="5.3616" y1="-548.4761" x2="119.4902" y2="-665.3662" gradientTransform="matrix(1 0 0 -1 -0.0601 -503.8096)">
			<stop  offset="0.0056" style="stop-color:#CC491A"/>
			<stop  offset="0.3684" style="stop-color:#DEB817"/>
			<stop  offset="0.7088" style="stop-color:#58AC46"/>
			<stop  offset="1" style="stop-color:#821976"/>
		</linearGradient>
		<path fill="url(#SVGID_18_)" d="M22.173,61.436c0,0.177-0.043,0.322-0.135,0.432c-0.088,0.108-0.207,0.163-0.354,0.163
			c-0.153,0-0.275-0.055-0.367-0.164c-0.096-0.11-0.143-0.253-0.143-0.43c0-0.221,0.068-0.388,0.207-0.497
			c0.081-0.065,0.176-0.097,0.286-0.097c0.153,0,0.275,0.054,0.364,0.16C22.124,61.108,22.171,61.251,22.173,61.436z"/>
		
			<linearGradient id="SVGID_19_" gradientUnits="userSpaceOnUse" x1="4.5706" y1="-549.2168" x2="118.795" y2="-666.2048" gradientTransform="matrix(1 0 0 -1 -0.0601 -503.8096)">
			<stop  offset="0.0056" style="stop-color:#CC491A"/>
			<stop  offset="0.3684" style="stop-color:#DEB817"/>
			<stop  offset="0.7088" style="stop-color:#58AC46"/>
			<stop  offset="1" style="stop-color:#821976"/>
		</linearGradient>
		<path fill="url(#SVGID_19_)" d="M22.173,62.989c0,0.177-0.043,0.322-0.135,0.432c-0.088,0.108-0.207,0.162-0.354,0.162
			c-0.153,0-0.275-0.054-0.367-0.164c-0.096-0.111-0.143-0.252-0.143-0.43c0-0.221,0.068-0.388,0.207-0.499
			c0.081-0.063,0.176-0.096,0.286-0.096c0.153,0,0.275,0.052,0.364,0.16C22.124,62.665,22.171,62.807,22.173,62.989z"/>
	</g>
	<g>
		
			<linearGradient id="SVGID_20_" gradientUnits="userSpaceOnUse" x1="-5.1843" y1="-558.6787" x2="109.1746" y2="-675.8045" gradientTransform="matrix(1 0 0 -1 -0.0601 -503.8096)">
			<stop  offset="0.0056" style="stop-color:#CC491A"/>
			<stop  offset="0.3684" style="stop-color:#DEB817"/>
			<stop  offset="0.7088" style="stop-color:#58AC46"/>
			<stop  offset="1" style="stop-color:#821976"/>
		</linearGradient>
		<path fill="url(#SVGID_20_)" d="M22.173,82.442c0,0.178-0.043,0.324-0.135,0.432c-0.088,0.108-0.207,0.164-0.354,0.164
			c-0.153,0-0.275-0.057-0.367-0.166c-0.096-0.11-0.143-0.252-0.143-0.43c0-0.222,0.068-0.389,0.207-0.499
			c0.081-0.063,0.176-0.096,0.286-0.096c0.153,0,0.275,0.056,0.364,0.162C22.124,82.116,22.171,82.26,22.173,82.442z"/>
		
			<linearGradient id="SVGID_21_" gradientUnits="userSpaceOnUse" x1="-5.9226" y1="-559.4771" x2="108.282" y2="-676.4448" gradientTransform="matrix(1 0 0 -1 -0.0601 -503.8096)">
			<stop  offset="0.0056" style="stop-color:#CC491A"/>
			<stop  offset="0.3684" style="stop-color:#DEB817"/>
			<stop  offset="0.7088" style="stop-color:#58AC46"/>
			<stop  offset="1" style="stop-color:#821976"/>
		</linearGradient>
		<path fill="url(#SVGID_21_)" d="M22.173,83.996c0,0.178-0.043,0.323-0.135,0.431c-0.088,0.109-0.207,0.164-0.354,0.164
			c-0.153,0-0.275-0.055-0.367-0.164c-0.096-0.111-0.143-0.253-0.143-0.431c0-0.22,0.068-0.387,0.207-0.499
			c0.081-0.063,0.176-0.096,0.286-0.096c0.153,0,0.275,0.054,0.364,0.162C22.124,83.669,22.171,83.815,22.173,83.996z"/>
		
			<linearGradient id="SVGID_22_" gradientUnits="userSpaceOnUse" x1="-6.7468" y1="-560.187" x2="107.6421" y2="-677.3434" gradientTransform="matrix(1 0 0 -1 -0.0601 -503.8096)">
			<stop  offset="0.0056" style="stop-color:#CC491A"/>
			<stop  offset="0.3684" style="stop-color:#DEB817"/>
			<stop  offset="0.7088" style="stop-color:#58AC46"/>
			<stop  offset="1" style="stop-color:#821976"/>
		</linearGradient>
		<path fill="url(#SVGID_22_)" d="M22.173,85.549c0,0.178-0.043,0.324-0.135,0.432c-0.088,0.108-0.207,0.164-0.354,0.164
			c-0.153,0-0.275-0.056-0.367-0.166c-0.096-0.108-0.143-0.254-0.143-0.43c0-0.222,0.068-0.389,0.207-0.498
			c0.081-0.063,0.176-0.097,0.286-0.097c0.153,0,0.275,0.057,0.364,0.165C22.124,85.225,22.171,85.369,22.173,85.549z"/>
	</g>
	
		<linearGradient id="SVGID_23_" gradientUnits="userSpaceOnUse" x1="-3.116" y1="-556.6763" x2="111.2173" y2="-673.7759" gradientTransform="matrix(1 0 0 -1 -0.0601 -503.8096)">
		<stop  offset="0.0056" style="stop-color:#CC491A"/>
		<stop  offset="0.3684" style="stop-color:#DEB817"/>
		<stop  offset="0.7088" style="stop-color:#58AC46"/>
		<stop  offset="1" style="stop-color:#821976"/>
	</linearGradient>
	<path fill="url(#SVGID_23_)" d="M21.736,79.763l0.698-0.529l-0.77,1.411l-0.749-1.411l0.664,0.522v-3.708h0.159
		C21.736,76.047,21.736,79.763,21.736,79.763z"/>
	<g>
		<g>
			
				<linearGradient id="SVGID_24_" gradientUnits="userSpaceOnUse" x1="51.5247" y1="-503.4312" x2="165.713" y2="-620.3822" gradientTransform="matrix(1 0 0 -1 -0.0601 -503.8096)">
				<stop  offset="0.0056" style="stop-color:#CC491A"/>
				<stop  offset="0.3684" style="stop-color:#DEB817"/>
				<stop  offset="0.7088" style="stop-color:#58AC46"/>
				<stop  offset="1" style="stop-color:#821976"/>
			</linearGradient>
			<path fill="url(#SVGID_24_)" d="M135.839,84.561c-0.051,0-0.13-0.008-0.235-0.014c-0.266-0.011-0.459-0.02-0.577-0.021
				l-0.004,0.117c0,0.088,0.006,0.176,0.013,0.267c0.002,0.021,0.002,0.038,0.002,0.043c0,0.03-0.007,0.056-0.019,0.073
				c-0.014,0.021-0.031,0.025-0.059,0.025c-0.04,0-0.064-0.01-0.087-0.021c-0.019-0.016-0.027-0.037-0.027-0.068
				c0-0.005,0-0.018,0.002-0.043c0.011-0.133,0.016-0.264,0.016-0.393l-1.999-0.026c-0.084,0-0.144,0.012-0.182,0.034
				c-0.039,0.021-0.06,0.058-0.06,0.109c0,0.049,0.021,0.096,0.056,0.139c0.033,0.043,0.09,0.094,0.169,0.146
				c0.022,0.017,0.059,0.034,0.099,0.058c0.081,0.043,0.122,0.086,0.122,0.129c0,0.022-0.007,0.043-0.021,0.058
				c-0.017,0.017-0.033,0.021-0.059,0.021c-0.037,0-0.094-0.023-0.165-0.075c-0.074-0.05-0.145-0.109-0.212-0.187
				c-0.086-0.095-0.15-0.211-0.197-0.349c-0.047-0.14-0.069-0.291-0.069-0.457c0-0.275,0.071-0.478,0.214-0.616
				c0.141-0.136,0.357-0.206,0.639-0.206h0.027l1.607,0.019c0-0.068-0.002-0.142-0.006-0.217c0-0.015,0-0.025,0-0.03
				c0-0.045,0.01-0.079,0.029-0.102c0.018-0.022,0.043-0.034,0.077-0.034c0.02,0,0.041,0.01,0.058,0.03
				c0.017,0.021,0.021,0.044,0.021,0.074c0,0.019-0.003,0.049-0.006,0.092c-0.006,0.043-0.008,0.078-0.008,0.102
				c0,0.025,0,0.044,0,0.059c0.002,0.011,0.008,0.022,0.008,0.031h0.295c0.081,0.208,0.172,0.414,0.258,0.622
				C135.649,84.149,135.741,84.357,135.839,84.561z"/>
			
				<linearGradient id="SVGID_25_" gradientUnits="userSpaceOnUse" x1="50.0779" y1="-504.645" x2="164.4032" y2="-621.7363" gradientTransform="matrix(1 0 0 -1 -0.0601 -503.8096)">
				<stop  offset="0.0056" style="stop-color:#CC491A"/>
				<stop  offset="0.3684" style="stop-color:#DEB817"/>
				<stop  offset="0.7088" style="stop-color:#58AC46"/>
				<stop  offset="1" style="stop-color:#821976"/>
			</linearGradient>
			<path fill="url(#SVGID_25_)" d="M133.722,85.201c0.188,0,0.364,0.033,0.53,0.104c0.167,0.066,0.316,0.168,0.453,0.299
				c0.129,0.131,0.229,0.277,0.299,0.44c0.066,0.17,0.102,0.341,0.102,0.524c0,0.185-0.034,0.356-0.102,0.522
				c-0.069,0.163-0.173,0.313-0.299,0.441c-0.135,0.129-0.284,0.224-0.452,0.292c-0.168,0.066-0.347,0.102-0.531,0.102
				c-0.188,0-0.363-0.035-0.532-0.102c-0.168-0.068-0.317-0.169-0.444-0.292c-0.136-0.132-0.231-0.28-0.301-0.441
				c-0.07-0.164-0.104-0.341-0.104-0.522c0-0.185,0.034-0.36,0.104-0.525c0.063-0.165,0.167-0.313,0.293-0.439
				c0.136-0.133,0.289-0.232,0.454-0.299C133.355,85.239,133.534,85.201,133.722,85.201z M132.49,86.494v0.027
				c0,0.363,0.119,0.672,0.354,0.908c0.234,0.244,0.528,0.364,0.878,0.364c0.348,0,0.639-0.12,0.876-0.362
				c0.235-0.24,0.354-0.541,0.354-0.901v-0.036H132.49L132.49,86.494z"/>
			
				<linearGradient id="SVGID_26_" gradientUnits="userSpaceOnUse" x1="48.9661" y1="-505.8398" x2="163.2152" y2="-622.8529" gradientTransform="matrix(1 0 0 -1 -0.0601 -503.8096)">
				<stop  offset="0.0056" style="stop-color:#CC491A"/>
				<stop  offset="0.3684" style="stop-color:#DEB817"/>
				<stop  offset="0.7088" style="stop-color:#58AC46"/>
				<stop  offset="1" style="stop-color:#821976"/>
			</linearGradient>
			<path fill="url(#SVGID_26_)" d="M132.949,89.5c-0.008,0-0.066,0-0.182,0.005c-0.115,0.006-0.229,0.009-0.34,0.011v-1.223
				c0.097,0.001,0.207,0.003,0.324,0.005c0.117,0.004,0.185,0.004,0.199,0.004h1.552c0.019,0,0.084,0,0.201-0.004
				c0.117-0.002,0.222-0.004,0.324-0.005v1.223c-0.089-0.002-0.173-0.005-0.255-0.009c-0.083-0.002-0.163-0.005-0.24-0.007
				c0.188,0.148,0.326,0.295,0.417,0.439c0.097,0.144,0.139,0.289,0.139,0.428c0,0.074-0.02,0.135-0.059,0.184
				c-0.039,0.047-0.09,0.066-0.152,0.066c-0.053,0-0.094-0.018-0.121-0.043c-0.025-0.025-0.041-0.07-0.041-0.124
				c0-0.023,0.012-0.067,0.034-0.134c0.021-0.064,0.036-0.121,0.036-0.174c0-0.099-0.043-0.209-0.134-0.324
				c-0.086-0.114-0.203-0.224-0.354-0.324h-1.349L132.949,89.5L132.949,89.5z"/>
			
				<linearGradient id="SVGID_27_" gradientUnits="userSpaceOnUse" x1="47.4299" y1="-507.2236" x2="161.7545" y2="-624.3141" gradientTransform="matrix(1 0 0 -1 -0.0601 -503.8096)">
				<stop  offset="0.0056" style="stop-color:#CC491A"/>
				<stop  offset="0.3684" style="stop-color:#DEB817"/>
				<stop  offset="0.7088" style="stop-color:#58AC46"/>
				<stop  offset="1" style="stop-color:#821976"/>
			</linearGradient>
			<path fill="url(#SVGID_27_)" d="M133.722,90.498c0.188,0,0.364,0.034,0.53,0.102s0.316,0.17,0.453,0.297
				c0.129,0.136,0.229,0.277,0.299,0.442c0.066,0.166,0.103,0.341,0.103,0.522c0,0.184-0.034,0.359-0.102,0.519
				c-0.069,0.169-0.173,0.315-0.299,0.444c-0.135,0.128-0.284,0.225-0.452,0.295c-0.169,0.066-0.347,0.102-0.531,0.102
				c-0.188,0-0.363-0.033-0.532-0.102c-0.168-0.07-0.317-0.169-0.444-0.295c-0.136-0.133-0.231-0.277-0.301-0.442
				c-0.07-0.165-0.104-0.336-0.104-0.521c0-0.186,0.034-0.363,0.104-0.521c0.066-0.17,0.167-0.313,0.293-0.443
				c0.135-0.129,0.289-0.229,0.454-0.297C133.355,90.532,133.534,90.498,133.722,90.498z M132.49,91.787v0.025
				c0,0.364,0.119,0.668,0.354,0.91c0.234,0.241,0.528,0.363,0.878,0.363c0.348,0,0.639-0.121,0.876-0.363
				c0.235-0.242,0.354-0.541,0.354-0.902v-0.033H132.49L132.49,91.787z"/>
			
				<linearGradient id="SVGID_28_" gradientUnits="userSpaceOnUse" x1="46.1746" y1="-508.6401" x2="160.3759" y2="-625.6044" gradientTransform="matrix(1 0 0 -1 -0.0601 -503.8096)">
				<stop  offset="0.0056" style="stop-color:#CC491A"/>
				<stop  offset="0.3684" style="stop-color:#DEB817"/>
				<stop  offset="0.7088" style="stop-color:#58AC46"/>
				<stop  offset="1" style="stop-color:#821976"/>
			</linearGradient>
			<path fill="url(#SVGID_28_)" d="M132.496,94.878h1.599v-0.604c0-0.049,0.007-0.082,0.019-0.104
				c0.018-0.021,0.034-0.03,0.063-0.03c0.031,0,0.054,0.012,0.063,0.028c0.015,0.021,0.019,0.06,0.019,0.11v0.602h1.349
				c0-0.193-0.02-0.365-0.059-0.518c-0.039-0.146-0.103-0.28-0.186-0.396c-0.034-0.046-0.082-0.096-0.148-0.157
				s-0.101-0.104-0.101-0.135c0-0.029,0.011-0.055,0.025-0.066c0.017-0.019,0.037-0.023,0.063-0.023c0.041,0,0.084,0.02,0.131,0.061
				c0.045,0.039,0.094,0.099,0.145,0.18c0.096,0.158,0.17,0.326,0.213,0.505c0.05,0.174,0.067,0.371,0.067,0.592
				c0,0.404-0.069,0.72-0.211,0.946c-0.142,0.224-0.338,0.336-0.594,0.336c-0.239,0-0.425-0.098-0.556-0.287
				c-0.133-0.189-0.209-0.475-0.226-0.852c-0.03,0.437-0.112,0.762-0.254,0.975c-0.135,0.211-0.338,0.318-0.595,0.318
				c-0.308,0-0.554-0.142-0.727-0.433c-0.178-0.286-0.266-0.684-0.266-1.194c0-0.258,0.026-0.479,0.084-0.666
				c0.06-0.187,0.146-0.354,0.266-0.506c0.062-0.074,0.12-0.134,0.181-0.179c0.057-0.047,0.105-0.065,0.142-0.065
				c0.025,0,0.052,0.01,0.064,0.031c0.021,0.021,0.026,0.051,0.026,0.084c0,0.043-0.041,0.092-0.131,0.141
				c-0.085,0.055-0.143,0.097-0.181,0.141c-0.101,0.105-0.176,0.244-0.225,0.404c-0.051,0.16-0.074,0.354-0.074,0.576
				c0,0.05,0,0.086,0.002,0.111C132.492,94.836,132.494,94.855,132.496,94.878z"/>
			
				<linearGradient id="SVGID_29_" gradientUnits="userSpaceOnUse" x1="44.5535" y1="-510.145" x2="158.8042" y2="-627.16" gradientTransform="matrix(1 0 0 -1 -0.0601 -503.8096)">
				<stop  offset="0.0056" style="stop-color:#CC491A"/>
				<stop  offset="0.3684" style="stop-color:#DEB817"/>
				<stop  offset="0.7088" style="stop-color:#58AC46"/>
				<stop  offset="1" style="stop-color:#821976"/>
			</linearGradient>
			<path fill="url(#SVGID_29_)" d="M132.496,98.041h1.599v-0.605c0-0.047,0.007-0.08,0.019-0.103
				c0.018-0.021,0.034-0.031,0.063-0.031c0.031,0,0.054,0.011,0.063,0.03c0.015,0.02,0.019,0.059,0.019,0.109v0.6h1.349
				c0-0.191-0.02-0.364-0.059-0.516c-0.039-0.147-0.103-0.28-0.186-0.395c-0.034-0.048-0.082-0.096-0.148-0.161
				c-0.066-0.059-0.101-0.102-0.101-0.134c0-0.027,0.011-0.051,0.025-0.066c0.016-0.015,0.037-0.022,0.063-0.022
				c0.041,0,0.084,0.021,0.131,0.06c0.045,0.041,0.094,0.104,0.145,0.185c0.096,0.155,0.17,0.323,0.213,0.5
				c0.05,0.177,0.067,0.376,0.067,0.592c0,0.406-0.069,0.722-0.211,0.948c-0.142,0.225-0.338,0.336-0.594,0.336
				c-0.239,0-0.425-0.096-0.556-0.287c-0.133-0.191-0.209-0.479-0.226-0.852c-0.03,0.438-0.112,0.758-0.254,0.974
				c-0.135,0.211-0.338,0.319-0.595,0.319c-0.308,0-0.554-0.143-0.727-0.431c-0.178-0.288-0.266-0.684-0.266-1.198
				c0-0.252,0.026-0.479,0.084-0.664c0.06-0.187,0.146-0.356,0.266-0.504c0.062-0.076,0.12-0.138,0.181-0.183
				c0.057-0.045,0.105-0.063,0.142-0.063c0.025,0,0.052,0.012,0.064,0.029c0.021,0.021,0.026,0.055,0.026,0.088
				c0,0.043-0.041,0.09-0.131,0.139c-0.085,0.055-0.143,0.097-0.181,0.138c-0.101,0.108-0.176,0.246-0.225,0.403
				c-0.051,0.16-0.074,0.356-0.074,0.58c0,0.049,0,0.086,0.002,0.108C132.492,97.998,132.494,98.021,132.496,98.041z"/>
			
				<linearGradient id="SVGID_30_" gradientUnits="userSpaceOnUse" x1="42.9944" y1="-511.7295" x2="157.2044" y2="-628.7026" gradientTransform="matrix(1 0 0 -1 -0.0601 -503.8096)">
				<stop  offset="0.0056" style="stop-color:#CC491A"/>
				<stop  offset="0.3684" style="stop-color:#DEB817"/>
				<stop  offset="0.7088" style="stop-color:#58AC46"/>
				<stop  offset="1" style="stop-color:#821976"/>
			</linearGradient>
			<path fill="url(#SVGID_30_)" d="M134.048,99.799c0.255,0,0.49,0.038,0.71,0.112c0.217,0.077,0.405,0.187,0.567,0.332
				c0.145,0.132,0.25,0.28,0.325,0.442c0.073,0.168,0.105,0.35,0.105,0.556c0,0.2-0.033,0.384-0.105,0.547
				c-0.066,0.165-0.176,0.313-0.325,0.44c-0.166,0.148-0.354,0.261-0.57,0.334c-0.215,0.073-0.449,0.111-0.707,0.111
				c-0.259,0-0.492-0.038-0.711-0.111c-0.211-0.073-0.402-0.186-0.567-0.334c-0.147-0.131-0.252-0.277-0.326-0.44
				c-0.072-0.163-0.107-0.347-0.107-0.547c0-0.206,0.035-0.388,0.107-0.556c0.072-0.166,0.177-0.314,0.326-0.442
				c0.161-0.146,0.351-0.255,0.565-0.332C133.553,99.837,133.791,99.799,134.048,99.799z M135.635,101.182h-3.174v0.025
				c0,0.4,0.146,0.717,0.439,0.963c0.288,0.243,0.671,0.364,1.15,0.364c0.478,0,0.862-0.122,1.151-0.364
				c0.288-0.24,0.437-0.563,0.437-0.963L135.635,101.182L135.635,101.182z"/>
			
				<linearGradient id="SVGID_31_" gradientUnits="userSpaceOnUse" x1="41.6604" y1="-512.9028" x2="155.9498" y2="-629.9572" gradientTransform="matrix(1 0 0 -1 -0.0601 -503.8096)">
				<stop  offset="0.0056" style="stop-color:#CC491A"/>
				<stop  offset="0.3684" style="stop-color:#DEB817"/>
				<stop  offset="0.7088" style="stop-color:#58AC46"/>
				<stop  offset="1" style="stop-color:#821976"/>
			</linearGradient>
			<path fill="url(#SVGID_31_)" d="M132.426,103.072l3.094,1.623v-0.856c0-0.378-0.027-0.678-0.081-0.905
				c-0.004-0.02-0.008-0.026-0.008-0.031c0-0.027,0.01-0.051,0.021-0.063c0.021-0.014,0.039-0.019,0.071-0.019
				c0.059,0,0.097,0.011,0.119,0.024c0.022,0.021,0.033,0.056,0.033,0.095c0,0.006,0,0.016-0.002,0.029
				c-0.006,0.081-0.007,0.17-0.007,0.256v2.674l-3.246-1.223L132.426,103.072L132.426,103.072z"/>
			
				<linearGradient id="SVGID_32_" gradientUnits="userSpaceOnUse" x1="39.2688" y1="-515.4126" x2="153.4522" y2="-632.3585" gradientTransform="matrix(1 0 0 -1 -0.0601 -503.8096)">
				<stop  offset="0.0056" style="stop-color:#CC491A"/>
				<stop  offset="0.3684" style="stop-color:#DEB817"/>
				<stop  offset="0.7088" style="stop-color:#58AC46"/>
				<stop  offset="1" style="stop-color:#821976"/>
			</linearGradient>
			<path fill="url(#SVGID_32_)" d="M133.109,108.559c-0.142-0.086-0.245-0.178-0.315-0.285c-0.07-0.104-0.104-0.215-0.104-0.334
				c0-0.226,0.068-0.401,0.211-0.534c0.135-0.132,0.326-0.196,0.564-0.196c0.174,0,0.336,0.032,0.491,0.098
				c0.154,0.062,0.291,0.159,0.411,0.284c0.114,0.11,0.2,0.233,0.262,0.369c0.059,0.136,0.09,0.269,0.09,0.404
				c0,0.146-0.031,0.258-0.096,0.34c-0.063,0.081-0.164,0.13-0.289,0.142l0.334,0.098v0.521l-1.408-0.391
				c-0.035-0.011-0.069-0.021-0.104-0.021c-0.029-0.006-0.06-0.011-0.09-0.011c-0.065,0-0.117,0.016-0.155,0.043
				c-0.038,0.025-0.059,0.063-0.059,0.107c0,0.039,0.024,0.1,0.073,0.183c0.053,0.086,0.106,0.162,0.176,0.228
				c0.134,0.135,0.287,0.232,0.464,0.301c0.176,0.065,0.369,0.099,0.581,0.099c0.162,0,0.313-0.021,0.453-0.06
				c0.143-0.043,0.263-0.102,0.362-0.178c0.173-0.129,0.304-0.302,0.404-0.521c0.099-0.223,0.149-0.459,0.149-0.71
				c0-0.218-0.038-0.423-0.109-0.625c-0.072-0.199-0.177-0.38-0.313-0.54c-0.184-0.217-0.404-0.381-0.663-0.492
				c-0.26-0.113-0.553-0.169-0.867-0.169c-0.489,0-0.878,0.147-1.162,0.438c-0.286,0.295-0.425,0.697-0.425,1.205
				c0,0.239,0.036,0.467,0.104,0.685c0.072,0.216,0.19,0.458,0.359,0.72l-0.146,0.1c-0.173-0.221-0.299-0.457-0.385-0.711
				c-0.086-0.25-0.135-0.516-0.135-0.787c0-0.641,0.171-1.15,0.5-1.526c0.333-0.38,0.784-0.568,1.344-0.568
				c0.269,0,0.525,0.05,0.767,0.146c0.246,0.097,0.459,0.239,0.649,0.425c0.216,0.212,0.382,0.458,0.498,0.746
				c0.119,0.288,0.177,0.587,0.177,0.902c0,0.51-0.142,0.92-0.43,1.233c-0.289,0.313-0.666,0.468-1.133,0.468
				c-0.234,0-0.442-0.031-0.634-0.104c-0.188-0.069-0.363-0.178-0.519-0.326c-0.1-0.097-0.179-0.204-0.236-0.32
				c-0.052-0.117-0.08-0.24-0.08-0.365c0-0.146,0.039-0.271,0.118-0.361C132.881,108.609,132.983,108.563,133.109,108.559z
				 M134.521,108.503c0-0.075-0.023-0.146-0.072-0.211c-0.048-0.058-0.127-0.124-0.235-0.181c-0.162-0.096-0.34-0.174-0.53-0.229
				c-0.19-0.059-0.35-0.09-0.478-0.09c-0.103,0-0.182,0.02-0.239,0.063c-0.054,0.045-0.08,0.103-0.08,0.182
				c0,0.064,0.03,0.129,0.096,0.188c0.059,0.061,0.162,0.125,0.299,0.192c0.169,0.083,0.353,0.151,0.549,0.202
				c0.196,0.054,0.354,0.081,0.47,0.081c0.071,0,0.127-0.021,0.165-0.054C134.503,108.615,134.521,108.573,134.521,108.503z"/>
			
				<linearGradient id="SVGID_33_" gradientUnits="userSpaceOnUse" x1="37.4534" y1="-517.084" x2="151.6971" y2="-634.0918" gradientTransform="matrix(1 0 0 -1 -0.0601 -503.8096)">
				<stop  offset="0.0056" style="stop-color:#CC491A"/>
				<stop  offset="0.3684" style="stop-color:#DEB817"/>
				<stop  offset="0.7088" style="stop-color:#58AC46"/>
				<stop  offset="1" style="stop-color:#821976"/>
			</linearGradient>
			<path fill="url(#SVGID_33_)" d="M133.438,110.943c0.073-0.113,0.171-0.201,0.288-0.26c0.118-0.062,0.252-0.094,0.4-0.094
				c0.284,0,0.519,0.115,0.703,0.35c0.188,0.233,0.278,0.53,0.278,0.899c0,0.054-0.003,0.138-0.014,0.265
				c-0.01,0.123-0.014,0.217-0.014,0.289c0,0.058,0.011,0.108,0.026,0.154c0.021,0.046,0.055,0.08,0.092,0.105
				c0.012,0.009,0.025,0.02,0.053,0.031c0.064,0.031,0.097,0.07,0.097,0.117c0,0.031-0.012,0.059-0.024,0.077
				c-0.021,0.021-0.042,0.031-0.068,0.031c-0.055,0-0.104-0.032-0.15-0.101c-0.045-0.065-0.09-0.17-0.13-0.306
				c-0.097,0.185-0.217,0.326-0.365,0.429c-0.146,0.1-0.311,0.15-0.484,0.15c-0.283,0-0.507-0.113-0.672-0.338
				c-0.17-0.223-0.253-0.525-0.253-0.903c0-0.137,0.015-0.266,0.035-0.391c0.022-0.126,0.061-0.246,0.111-0.361
				c-0.021-0.038-0.05-0.062-0.068-0.079c-0.021-0.018-0.049-0.021-0.07-0.021c-0.052,0-0.086,0.018-0.103,0.054
				c-0.02,0.038-0.03,0.1-0.03,0.186v0.039l0.021,0.993v0.038c0,0.188-0.032,0.327-0.1,0.43c-0.063,0.095-0.162,0.146-0.288,0.146
				c-0.131,0-0.231-0.059-0.315-0.171c-0.079-0.108-0.127-0.267-0.143-0.474c0.038,0.033,0.067,0.06,0.097,0.076
				c0.025,0.018,0.055,0.021,0.074,0.021c0.021,0,0.034-0.012,0.047-0.03c0.017-0.019,0.021-0.045,0.021-0.077
				c0-0.06-0.021-0.199-0.059-0.412c-0.037-0.216-0.057-0.398-0.057-0.549c0-0.197,0.049-0.361,0.146-0.479
				c0.096-0.12,0.228-0.178,0.384-0.178c0.101,0,0.201,0.025,0.288,0.082C133.278,110.742,133.361,110.826,133.438,110.943z
				 M133.556,112.064h1.21c0.076,0,0.135-0.02,0.167-0.055c0.029-0.035,0.051-0.095,0.051-0.174c0-0.081-0.021-0.136-0.051-0.174
				c-0.032-0.034-0.09-0.055-0.167-0.055h-1.21c-0.075,0-0.134,0.02-0.161,0.055c-0.032,0.038-0.056,0.097-0.056,0.174
				s0.021,0.137,0.056,0.174C133.427,112.045,133.481,112.064,133.556,112.064z"/>
			
				<linearGradient id="SVGID_34_" gradientUnits="userSpaceOnUse" x1="35.8474" y1="-518.7363" x2="150.0424" y2="-635.694" gradientTransform="matrix(1 0 0 -1 -0.0601 -503.8096)">
				<stop  offset="0.0056" style="stop-color:#CC491A"/>
				<stop  offset="0.3684" style="stop-color:#DEB817"/>
				<stop  offset="0.7088" style="stop-color:#58AC46"/>
				<stop  offset="1" style="stop-color:#821976"/>
			</linearGradient>
			<path fill="url(#SVGID_34_)" d="M132.426,115.173h0.229c-0.108-0.143-0.189-0.284-0.239-0.416
				c-0.053-0.135-0.078-0.271-0.078-0.413c0-0.302,0.087-0.548,0.261-0.73c0.172-0.184,0.398-0.275,0.684-0.275
				c0.271,0,0.482,0.1,0.649,0.301c0.164,0.201,0.246,0.467,0.246,0.795c0,0.129-0.015,0.25-0.044,0.373
				c-0.029,0.119-0.074,0.242-0.137,0.363h0.534c0.147,0,0.252-0.034,0.315-0.107c0.063-0.073,0.096-0.194,0.096-0.361
				c0-0.146-0.021-0.268-0.05-0.365c-0.036-0.096-0.098-0.188-0.18-0.275c-0.013-0.014-0.031-0.031-0.059-0.057
				c-0.097-0.096-0.147-0.18-0.147-0.244c0-0.031,0.012-0.058,0.029-0.08c0.021-0.021,0.052-0.033,0.077-0.033
				c0.128,0,0.243,0.127,0.342,0.377c0.104,0.25,0.154,0.551,0.154,0.9c0,0.215-0.019,0.411-0.054,0.594
				c-0.038,0.178-0.089,0.327-0.152,0.44c-0.051,0.086-0.103,0.156-0.153,0.21c-0.051,0.059-0.105,0.098-0.168,0.135
				c-0.048,0.023-0.11,0.042-0.203,0.055c-0.088,0.015-0.196,0.02-0.324,0.02h-1.09c-0.124,0-0.223,0.012-0.303,0.023
				c-0.084,0.021-0.163,0.049-0.24,0.086L132.426,115.173L132.426,115.173z M133.82,115.173c0.056-0.069,0.097-0.146,0.133-0.228
				c0.032-0.086,0.049-0.162,0.049-0.233c0-0.069-0.021-0.123-0.067-0.149c-0.052-0.029-0.128-0.049-0.236-0.049h-0.908
				c-0.077,0-0.135,0.014-0.168,0.03c-0.027,0.019-0.048,0.056-0.048,0.097c0,0.069,0.021,0.148,0.064,0.239
				c0.043,0.093,0.104,0.188,0.188,0.291h0.995L133.82,115.173L133.82,115.173z"/>
			
				<linearGradient id="SVGID_35_" gradientUnits="userSpaceOnUse" x1="33.9778" y1="-520.458" x2="148.2337" y2="-637.4782" gradientTransform="matrix(1 0 0 -1 -0.0601 -503.8096)">
				<stop  offset="0.0056" style="stop-color:#CC491A"/>
				<stop  offset="0.3684" style="stop-color:#DEB817"/>
				<stop  offset="0.7088" style="stop-color:#58AC46"/>
				<stop  offset="1" style="stop-color:#821976"/>
			</linearGradient>
			<path fill="url(#SVGID_35_)" d="M132.427,116.841c0.097,0.002,0.207,0.004,0.324,0.007c0.117,0.004,0.185,0.004,0.199,0.004
				h1.552c0.019,0,0.084,0,0.201-0.004c0.117-0.003,0.222-0.005,0.324-0.007v1.095c-0.034,0-0.085-0.006-0.155-0.008
				c-0.067-0.004-0.118-0.007-0.15-0.007c0.121,0.146,0.212,0.287,0.271,0.419c0.061,0.135,0.089,0.266,0.089,0.396
				c0,0.143-0.032,0.265-0.1,0.371c-0.068,0.104-0.171,0.189-0.299,0.252c0.141,0.174,0.242,0.326,0.306,0.467
				c0.063,0.136,0.097,0.267,0.097,0.389c0,0.24-0.072,0.414-0.222,0.525c-0.149,0.113-0.38,0.17-0.692,0.17h-1.21
				c-0.017,0-0.083,0.002-0.199,0.004c-0.118,0.003-0.228,0.005-0.323,0.005v-1.095c0.095,0,0.205,0.004,0.323,0.006
				c0.116,0.003,0.184,0.005,0.199,0.005h1.561c0.09,0,0.152-0.011,0.185-0.022c0.029-0.017,0.048-0.045,0.048-0.086
				c0-0.031-0.019-0.07-0.048-0.115c-0.029-0.049-0.087-0.11-0.167-0.19h-1.581c-0.017,0-0.083,0-0.2,0.001
				c-0.115,0.004-0.225,0.004-0.323,0.008v-1.094c0.109,0.001,0.224,0.005,0.339,0.012c0.115,0.002,0.175,0.002,0.182,0.002h1.562
				c0.097,0,0.163-0.005,0.189-0.018c0.025-0.018,0.041-0.038,0.041-0.075c0-0.036-0.02-0.079-0.052-0.136
				c-0.029-0.053-0.087-0.116-0.162-0.194h-1.581c-0.008,0-0.066,0-0.182,0.007c-0.115,0.006-0.229,0.008-0.341,0.01
				L132.427,116.841L132.427,116.841z"/>
			
				<linearGradient id="SVGID_36_" gradientUnits="userSpaceOnUse" x1="32.6218" y1="-521.8979" x2="146.8104" y2="-638.8493" gradientTransform="matrix(1 0 0 -1 -0.0601 -503.8096)">
				<stop  offset="0.0056" style="stop-color:#CC491A"/>
				<stop  offset="0.3684" style="stop-color:#DEB817"/>
				<stop  offset="0.7088" style="stop-color:#58AC46"/>
				<stop  offset="1" style="stop-color:#821976"/>
			</linearGradient>
			<path fill="url(#SVGID_36_)" d="M132.427,121.396c0.097,0,0.207,0.004,0.324,0.006c0.117,0.003,0.185,0.005,0.199,0.005h1.552
				c0.019,0,0.084-0.002,0.201-0.005c0.117-0.002,0.222-0.006,0.324-0.006v1.225c-0.11-0.002-0.224-0.006-0.341-0.01
				c-0.115-0.004-0.173-0.008-0.181-0.008h-1.553c-0.007,0-0.067,0.004-0.184,0.008c-0.115,0.002-0.229,0.008-0.337,0.01v-1.225
				H132.427z M135.5,121.381c0.102,0,0.183,0.059,0.25,0.174c0.061,0.113,0.097,0.264,0.097,0.453c0,0.188-0.028,0.337-0.097,0.452
				c-0.063,0.113-0.144,0.172-0.25,0.172c-0.097,0-0.176-0.059-0.242-0.172c-0.058-0.11-0.092-0.262-0.092-0.452
				c0-0.189,0.026-0.34,0.092-0.453C135.32,121.438,135.399,121.381,135.5,121.381z"/>
			
				<linearGradient id="SVGID_37_" gradientUnits="userSpaceOnUse" x1="31.6584" y1="-522.6104" x2="145.9738" y2="-639.6912" gradientTransform="matrix(1 0 0 -1 -0.0601 -503.8096)">
				<stop  offset="0.0056" style="stop-color:#CC491A"/>
				<stop  offset="0.3684" style="stop-color:#DEB817"/>
				<stop  offset="0.7088" style="stop-color:#58AC46"/>
				<stop  offset="1" style="stop-color:#821976"/>
			</linearGradient>
			<path fill="url(#SVGID_37_)" d="M135.192,123.15c0.021,0,0.085-0.002,0.2-0.004s0.219-0.006,0.321-0.006v1.223
				c-0.111,0-0.226-0.004-0.339-0.008c-0.112-0.004-0.173-0.006-0.179-0.006h-2.245c-0.007,0-0.068,0.002-0.183,0.006
				c-0.115,0.004-0.229,0.008-0.339,0.008v-1.223c0.098,0,0.209,0.004,0.325,0.006s0.185,0.004,0.199,0.004H135.192z"/>
			
				<linearGradient id="SVGID_38_" gradientUnits="userSpaceOnUse" x1="30.4138" y1="-524.2085" x2="144.5168" y2="-641.072" gradientTransform="matrix(1 0 0 -1 -0.0601 -503.8096)">
				<stop  offset="0.0056" style="stop-color:#CC491A"/>
				<stop  offset="0.3684" style="stop-color:#DEB817"/>
				<stop  offset="0.7088" style="stop-color:#58AC46"/>
				<stop  offset="1" style="stop-color:#821976"/>
			</linearGradient>
			<path fill="url(#SVGID_38_)" d="M132.885,124.727c0.166,0,0.296,0.061,0.399,0.187c0.099,0.129,0.151,0.289,0.151,0.497
				c0,0.209-0.055,0.372-0.151,0.496c-0.101,0.129-0.233,0.188-0.399,0.188c-0.167,0-0.3-0.059-0.398-0.188
				c-0.099-0.124-0.149-0.288-0.149-0.496s0.052-0.372,0.149-0.499C132.585,124.786,132.719,124.727,132.885,124.727z"/>
			
				<linearGradient id="SVGID_39_" gradientUnits="userSpaceOnUse" x1="29.5745" y1="-524.7803" x2="143.8144" y2="-641.7841" gradientTransform="matrix(1 0 0 -1 -0.0601 -503.8096)">
				<stop  offset="0.0056" style="stop-color:#CC491A"/>
				<stop  offset="0.3684" style="stop-color:#DEB817"/>
				<stop  offset="0.7088" style="stop-color:#58AC46"/>
				<stop  offset="1" style="stop-color:#821976"/>
			</linearGradient>
			<path fill="url(#SVGID_39_)" d="M134.793,127.6h-2.139c-0.063,0-0.108,0.014-0.13,0.035c-0.023,0.024-0.034,0.071-0.034,0.141
				c0,0.123,0.028,0.25,0.088,0.388c0.062,0.136,0.142,0.254,0.245,0.358c0.054,0.058,0.129,0.117,0.231,0.189
				c0.096,0.073,0.15,0.132,0.15,0.17c0,0.023-0.013,0.047-0.024,0.061c-0.015,0.02-0.035,0.021-0.063,0.021
				s-0.075-0.02-0.134-0.059c-0.061-0.039-0.123-0.092-0.189-0.156c-0.155-0.154-0.27-0.314-0.342-0.48
				c-0.073-0.17-0.109-0.358-0.109-0.563c0-0.146,0.021-0.285,0.06-0.416c0.038-0.131,0.095-0.251,0.171-0.364
				c0.135-0.196,0.3-0.348,0.505-0.452c0.207-0.106,0.429-0.158,0.673-0.158c0.188,0,0.365,0.035,0.535,0.108
				c0.171,0.073,0.32,0.177,0.446,0.315c0.131,0.135,0.223,0.283,0.288,0.449c0.062,0.164,0.096,0.34,0.096,0.537
				c0,0.147-0.019,0.291-0.06,0.433c-0.043,0.135-0.107,0.27-0.194,0.394c-0.059,0.08-0.118,0.149-0.187,0.205
				c-0.063,0.059-0.112,0.087-0.146,0.087c-0.023,0-0.047-0.011-0.061-0.024c-0.019-0.021-0.023-0.039-0.023-0.064
				c0-0.027,0.034-0.072,0.095-0.128c0.043-0.034,0.072-0.062,0.098-0.086c0.095-0.099,0.18-0.217,0.238-0.358
				c0.062-0.137,0.093-0.271,0.093-0.398c0-0.068-0.014-0.115-0.032-0.141C134.901,127.611,134.858,127.6,134.793,127.6z"/>
			
				<linearGradient id="SVGID_40_" gradientUnits="userSpaceOnUse" x1="28.1731" y1="-526.1221" x2="142.4277" y2="-643.1407" gradientTransform="matrix(1 0 0 -1 -0.0601 -503.8096)">
				<stop  offset="0.0056" style="stop-color:#CC491A"/>
				<stop  offset="0.3684" style="stop-color:#DEB817"/>
				<stop  offset="0.7088" style="stop-color:#58AC46"/>
				<stop  offset="1" style="stop-color:#821976"/>
			</linearGradient>
			<path fill="url(#SVGID_40_)" d="M133.722,129.111c0.188,0,0.364,0.037,0.53,0.102c0.167,0.069,0.316,0.171,0.453,0.303
				c0.129,0.131,0.229,0.274,0.299,0.44c0.066,0.167,0.102,0.341,0.102,0.521c0,0.185-0.034,0.36-0.102,0.523
				c-0.069,0.163-0.173,0.313-0.299,0.441c-0.135,0.129-0.284,0.225-0.452,0.293c-0.169,0.066-0.347,0.103-0.531,0.103
				c-0.188,0-0.363-0.035-0.532-0.103c-0.168-0.068-0.317-0.168-0.444-0.293c-0.136-0.131-0.231-0.279-0.301-0.441
				c-0.07-0.165-0.104-0.339-0.104-0.523c0-0.183,0.034-0.362,0.104-0.521c0.063-0.169,0.167-0.313,0.293-0.441
				c0.136-0.135,0.289-0.231,0.454-0.303C133.355,129.15,133.534,129.111,133.722,129.111z M132.49,130.405v0.026
				c0,0.366,0.119,0.672,0.354,0.909c0.234,0.244,0.528,0.364,0.878,0.364c0.348,0,0.639-0.12,0.876-0.362
				c0.235-0.241,0.354-0.542,0.354-0.901v-0.036H132.49z"/>
			
				<linearGradient id="SVGID_41_" gradientUnits="userSpaceOnUse" x1="26.2805" y1="-527.9419" x2="140.5506" y2="-644.9764" gradientTransform="matrix(1 0 0 -1 -0.0601 -503.8096)">
				<stop  offset="0.0056" style="stop-color:#CC491A"/>
				<stop  offset="0.3684" style="stop-color:#DEB817"/>
				<stop  offset="0.7088" style="stop-color:#58AC46"/>
				<stop  offset="1" style="stop-color:#821976"/>
			</linearGradient>
			<path fill="url(#SVGID_41_)" d="M132.427,132.204c0.097,0.002,0.207,0.004,0.324,0.006c0.117,0.005,0.185,0.006,0.199,0.006
				h1.552c0.019,0,0.084-0.001,0.201-0.006c0.117-0.002,0.222-0.004,0.324-0.006v1.095c-0.034,0-0.085-0.001-0.155-0.005
				c-0.067-0.004-0.118-0.007-0.15-0.007c0.121,0.143,0.212,0.286,0.271,0.416c0.061,0.134,0.089,0.265,0.089,0.398
				c0,0.14-0.032,0.267-0.1,0.367c-0.068,0.106-0.171,0.19-0.299,0.254c0.141,0.174,0.242,0.325,0.306,0.467
				c0.063,0.14,0.097,0.267,0.097,0.391c0,0.236-0.072,0.412-0.222,0.523c-0.149,0.113-0.38,0.17-0.692,0.17h-1.21
				c-0.017,0-0.083,0.002-0.199,0.006c-0.118,0.003-0.228,0.005-0.323,0.007v-1.097c0.095,0.002,0.205,0.004,0.323,0.004
				c0.116,0.002,0.184,0.005,0.199,0.005h1.561c0.09,0,0.152-0.007,0.185-0.022c0.029-0.016,0.048-0.043,0.048-0.087
				c0-0.028-0.019-0.067-0.048-0.114c-0.029-0.046-0.087-0.109-0.167-0.19h-1.581c-0.017,0-0.083,0-0.2,0.004
				c-0.115,0.002-0.225,0.004-0.323,0.006v-1.095c0.109,0.003,0.224,0.007,0.339,0.011c0.115,0.002,0.175,0.008,0.182,0.008h1.562
				c0.097,0,0.163-0.01,0.189-0.021c0.025-0.012,0.041-0.038,0.041-0.074c0-0.038-0.02-0.081-0.052-0.135
				c-0.029-0.053-0.087-0.116-0.162-0.193h-1.581c-0.008,0-0.066,0.002-0.182,0.005c-0.115,0.005-0.229,0.009-0.341,0.009
				L132.427,132.204L132.427,132.204z"/>
		</g>
	</g>
	
		<linearGradient id="SVGID_42_" gradientUnits="userSpaceOnUse" x1="13.738" y1="-540.2354" x2="127.988" y2="-657.2495" gradientTransform="matrix(1 0 0 -1 -0.0601 -503.8096)">
		<stop  offset="0.0056" style="stop-color:#CC491A"/>
		<stop  offset="0.3684" style="stop-color:#DEB817"/>
		<stop  offset="0.7088" style="stop-color:#58AC46"/>
		<stop  offset="1" style="stop-color:#821976"/>
	</linearGradient>
	<path fill="url(#SVGID_42_)" d="M95.221,121.154c0.021,0.001,0.041,0.006,0.063,0.01l-0.063-2.434
		C95.221,119.552,95.221,120.365,95.221,121.154z"/>
	<g>
		
			<linearGradient id="SVGID_43_" gradientUnits="userSpaceOnUse" x1="47.0071" y1="-507.8398" x2="161.194" y2="-624.7896" gradientTransform="matrix(1 0 0 -1 -0.0601 -503.8096)">
			<stop  offset="0.0056" style="stop-color:#CC491A"/>
			<stop  offset="0.3684" style="stop-color:#DEB817"/>
			<stop  offset="0.7088" style="stop-color:#58AC46"/>
			<stop  offset="1" style="stop-color:#821976"/>
		</linearGradient>
		<path fill="url(#SVGID_43_)" d="M127.416,84.555c0.038,0.238,0.063,0.567,0.063,1.002c0,0.504-0.081,0.868-0.277,1.131
			c-0.156,0.209-0.381,0.338-0.663,0.338c-0.717,0-1.031-0.618-1.031-1.51c0-0.168,0.01-0.326,0.028-0.457h-1.189v-0.504H127.416z
			 M125.92,85.059c-0.03,0.133-0.04,0.299-0.04,0.488c0,0.619,0.25,0.971,0.635,0.971c0.44,0,0.599-0.435,0.599-0.922
			c0-0.261-0.021-0.445-0.036-0.537H125.92z"/>
		
			<linearGradient id="SVGID_44_" gradientUnits="userSpaceOnUse" x1="44.6907" y1="-510.0078" x2="158.9474" y2="-627.029" gradientTransform="matrix(1 0 0 -1 -0.0601 -503.8096)">
			<stop  offset="0.0056" style="stop-color:#CC491A"/>
			<stop  offset="0.3684" style="stop-color:#DEB817"/>
			<stop  offset="0.7088" style="stop-color:#58AC46"/>
			<stop  offset="1" style="stop-color:#821976"/>
		</linearGradient>
		<path fill="url(#SVGID_44_)" d="M125.909,87.889c0.949,0,1.621,0.663,1.621,1.598c0,0.961-0.673,1.557-1.559,1.557
			c-1.042,0-1.625-0.704-1.625-1.6C124.346,88.489,125.021,87.889,125.909,87.889z M125.952,90.504c0.596,0,1.194-0.348,1.194-1.036
			c0-0.687-0.574-1.044-1.223-1.044c-0.677,0-1.189,0.385-1.189,1.038C124.734,90.123,125.264,90.504,125.952,90.504z"/>
		
			<linearGradient id="SVGID_45_" gradientUnits="userSpaceOnUse" x1="42.8289" y1="-511.8306" x2="157.0789" y2="-628.8447" gradientTransform="matrix(1 0 0 -1 -0.0601 -503.8096)">
			<stop  offset="0.0056" style="stop-color:#CC491A"/>
			<stop  offset="0.3684" style="stop-color:#DEB817"/>
			<stop  offset="0.7088" style="stop-color:#58AC46"/>
			<stop  offset="1" style="stop-color:#821976"/>
		</linearGradient>
		<path fill="url(#SVGID_45_)" d="M127.413,91.844c0.036,0.28,0.062,0.665,0.062,1.037c0,0.534-0.08,0.863-0.273,1.123
			c-0.127,0.174-0.331,0.289-0.595,0.289c-0.419,0-0.71-0.305-0.787-0.736h-0.016c-0.068,0.295-0.29,0.473-0.557,0.555
			c-0.41,0.121-0.764,0.234-0.905,0.324v-0.539c0.084-0.067,0.28-0.133,0.762-0.262c0.396-0.113,0.533-0.29,0.556-0.713v-0.568
			h-1.318v-0.506h3.067v-0.004H127.413z M126.02,92.346v0.612c0,0.528,0.221,0.821,0.547,0.821c0.37,0,0.556-0.316,0.556-0.863
			c0-0.29-0.016-0.46-0.036-0.57H126.02z"/>
		
			<linearGradient id="SVGID_46_" gradientUnits="userSpaceOnUse" x1="41.2502" y1="-513.2744" x2="155.5642" y2="-630.3542" gradientTransform="matrix(1 0 0 -1 -0.0601 -503.8096)">
			<stop  offset="0.0056" style="stop-color:#CC491A"/>
			<stop  offset="0.3684" style="stop-color:#DEB817"/>
			<stop  offset="0.7088" style="stop-color:#58AC46"/>
			<stop  offset="1" style="stop-color:#821976"/>
		</linearGradient>
		<path fill="url(#SVGID_46_)" d="M127.051,96.563v-1.176h0.404v2.859h-0.404v-1.18h-2.703v-0.506h2.703V96.563z"/>
		
			<linearGradient id="SVGID_47_" gradientUnits="userSpaceOnUse" x1="39.5046" y1="-514.9707" x2="153.8235" y2="-632.0552" gradientTransform="matrix(1 0 0 -1 -0.0601 -503.8096)">
			<stop  offset="0.0056" style="stop-color:#CC491A"/>
			<stop  offset="0.3684" style="stop-color:#DEB817"/>
			<stop  offset="0.7088" style="stop-color:#58AC46"/>
			<stop  offset="1" style="stop-color:#821976"/>
		</linearGradient>
		<path fill="url(#SVGID_47_)" d="M127.454,99.318v2.346h-0.391v-1.839h-0.938v1.694h-0.391v-1.694h-1.394v-0.507H127.454
			L127.454,99.318z"/>
		
			<linearGradient id="SVGID_48_" gradientUnits="userSpaceOnUse" x1="35.4788" y1="-518.9775" x2="149.7471" y2="-636.0106" gradientTransform="matrix(1 0 0 -1 -0.0601 -503.8096)">
			<stop  offset="0.0056" style="stop-color:#CC491A"/>
			<stop  offset="0.3684" style="stop-color:#DEB817"/>
			<stop  offset="0.7088" style="stop-color:#58AC46"/>
			<stop  offset="1" style="stop-color:#821976"/>
		</linearGradient>
		<path fill="url(#SVGID_48_)" d="M127.454,106.65v0.509h-2.713v1.868h-0.395v-2.377H127.454z"/>
		
			<linearGradient id="SVGID_49_" gradientUnits="userSpaceOnUse" x1="34.2727" y1="-520.394" x2="148.3911" y2="-637.2734" gradientTransform="matrix(1 0 0 -1 -0.0601 -503.8096)">
			<stop  offset="0.0056" style="stop-color:#CC491A"/>
			<stop  offset="0.3684" style="stop-color:#DEB817"/>
			<stop  offset="0.7088" style="stop-color:#58AC46"/>
			<stop  offset="1" style="stop-color:#821976"/>
		</linearGradient>
		<path fill="url(#SVGID_49_)" d="M127.473,110.755h-3.127v-0.508h3.127V110.755z"/>
		
			<linearGradient id="SVGID_50_" gradientUnits="userSpaceOnUse" x1="37.3127" y1="-517.1523" x2="151.6027" y2="-634.2076" gradientTransform="matrix(1 0 0 -1 -0.0601 -503.8096)">
			<stop  offset="0.0056" style="stop-color:#CC491A"/>
			<stop  offset="0.3684" style="stop-color:#DEB817"/>
			<stop  offset="0.7088" style="stop-color:#58AC46"/>
			<stop  offset="1" style="stop-color:#821976"/>
		</linearGradient>
		<path fill="url(#SVGID_50_)" d="M125.909,102.589c0.949,0,1.621,0.665,1.621,1.597c0,0.963-0.673,1.557-1.559,1.557
			c-1.042,0-1.625-0.702-1.625-1.598C124.346,103.188,125.021,102.589,125.909,102.589z M125.952,105.201
			c0.596,0,1.194-0.346,1.194-1.034s-0.574-1.046-1.223-1.046c-0.677,0-1.189,0.387-1.189,1.042
			C124.734,104.82,125.264,105.201,125.952,105.201z"/>
		
			<linearGradient id="SVGID_51_" gradientUnits="userSpaceOnUse" x1="32.4636" y1="-521.8892" x2="146.7499" y2="-638.9406" gradientTransform="matrix(1 0 0 -1 -0.0601 -503.8096)">
			<stop  offset="0.0056" style="stop-color:#CC491A"/>
			<stop  offset="0.3684" style="stop-color:#DEB817"/>
			<stop  offset="0.7088" style="stop-color:#58AC46"/>
			<stop  offset="1" style="stop-color:#821976"/>
		</linearGradient>
		<path fill="url(#SVGID_51_)" d="M125.909,112.294c0.949,0,1.621,0.662,1.621,1.595c0,0.963-0.673,1.557-1.559,1.557
			c-1.042,0-1.625-0.706-1.625-1.6C124.346,112.893,125.021,112.294,125.909,112.294z M125.952,114.91
			c0.596,0,1.194-0.348,1.194-1.035s-0.574-1.048-1.223-1.048c-0.677,0-1.189,0.388-1.189,1.043S125.264,114.91,125.952,114.91z"/>
	</g>
	
		<linearGradient id="SVGID_52_" gradientUnits="userSpaceOnUse" x1="20.0574" y1="-534.0986" x2="134.2922" y2="-651.0972" gradientTransform="matrix(1 0 0 -1 -0.0601 -503.8096)">
		<stop  offset="0.0056" style="stop-color:#CC491A"/>
		<stop  offset="0.3684" style="stop-color:#DEB817"/>
		<stop  offset="0.7088" style="stop-color:#58AC46"/>
		<stop  offset="1" style="stop-color:#821976"/>
	</linearGradient>
	<path fill="url(#SVGID_52_)" d="M21.779,34.61h-0.437v-1.098H20.98c-0.067,0.518-0.257,0.891-0.57,1.124l-0.331-0.298
		c0.284-0.184,0.441-0.459,0.482-0.825h-0.45v-0.412h1.231v-0.404h-1.004v-1.022h0.426v0.63h0.578v-0.708h0.438L21.779,34.61
		L21.779,34.61z M22.106,31.133h-0.548v0.271h-0.441v-0.271h-1.008v-0.396h1.008v-0.332h0.441v0.332h0.548V31.133z M24.301,32.897
		h-0.936v1.188h0.838l0.005,0.424H22.1v-0.424h0.835v-1.188H21.98v-0.41h0.956v-0.885h0.43v0.885h0.936L24.301,32.897L24.301,32.897
		z M24.304,31.133h-1.008v0.271h-0.425v-0.271h-0.556v-0.396h0.556v-0.332h0.425v0.332h1.008V31.133z"/>
	
		<linearGradient id="SVGID_53_" gradientUnits="userSpaceOnUse" x1="48.4753" y1="-506.3501" x2="162.7044" y2="-623.3429" gradientTransform="matrix(1 0 0 -1 -0.0601 -503.8096)">
		<stop  offset="0.0056" style="stop-color:#CC491A"/>
		<stop  offset="0.3684" style="stop-color:#DEB817"/>
		<stop  offset="0.7088" style="stop-color:#58AC46"/>
		<stop  offset="1" style="stop-color:#821976"/>
	</linearGradient>
	<path fill="url(#SVGID_53_)" d="M77.879,30.777c-0.398,0.153-0.835,0.266-1.308,0.342v0.637h1.186v0.415h-0.3v2.459h-0.409v-2.459
		h-0.479v0.535c0,0.448-0.032,0.813-0.095,1.094c-0.064,0.281-0.174,0.565-0.327,0.856l-0.364-0.261
		c0.243-0.441,0.364-1.001,0.364-1.68v-1.958c0.596-0.077,1.1-0.191,1.515-0.344L77.879,30.777z M80.106,34.308l-0.288,0.349
		c-0.451-0.287-0.782-0.718-0.979-1.298c-0.173,0.493-0.483,0.926-0.939,1.298l-0.309-0.339c0.279-0.209,0.519-0.487,0.728-0.836
		c0.207-0.348,0.297-0.914,0.286-1.696h0.423c0.004,0.07,0.005,0.15,0.005,0.24l-0.005,0.386c0,0.315,0.103,0.665,0.308,1.049
		C79.538,33.845,79.796,34.128,80.106,34.308z M79.997,31.063c-0.067,0.592-0.196,1.104-0.369,1.538l-0.398-0.17
		c0.1-0.213,0.193-0.531,0.288-0.953h-0.958c-0.124,0.344-0.269,0.622-0.431,0.833l-0.325-0.281c0.28-0.4,0.477-0.941,0.592-1.625
		l0.396,0.093c-0.021,0.168-0.059,0.356-0.109,0.565H79.997L79.997,31.063z"/>
	
		<linearGradient id="SVGID_54_" gradientUnits="userSpaceOnUse" x1="77.1252" y1="-478.3672" x2="191.3645" y2="-595.3704" gradientTransform="matrix(1 0 0 -1 -0.0601 -503.8096)">
		<stop  offset="0.0056" style="stop-color:#CC491A"/>
		<stop  offset="0.3684" style="stop-color:#DEB817"/>
		<stop  offset="0.7088" style="stop-color:#58AC46"/>
		<stop  offset="1" style="stop-color:#821976"/>
	</linearGradient>
	<path fill="url(#SVGID_54_)" d="M132.546,32.315l-0.295,0.285c-0.195-0.222-0.427-0.434-0.69-0.635l0.288-0.294
		C132.101,31.865,132.334,32.08,132.546,32.315z M132.45,33.088c-0.15,0.609-0.332,1.135-0.545,1.579l-0.349-0.233
		c0.22-0.467,0.396-0.998,0.518-1.593L132.45,33.088z M132.522,31.043l-0.309,0.272c-0.188-0.245-0.383-0.457-0.585-0.635
		l0.309-0.275C132.168,30.611,132.362,30.824,132.522,31.043z M133.521,33.971c-0.297,0.231-0.603,0.425-0.911,0.582l-0.263-0.313
		c0.289-0.133,0.591-0.317,0.9-0.555L133.521,33.971z M134.055,31.933c-0.228,0.051-0.412,0.085-0.557,0.102v0.281h-0.393V32.09
		c-0.261,0.038-0.44,0.06-0.536,0.068l-0.058-0.334c0.191-0.014,0.393-0.036,0.595-0.066v-0.251h-0.491v-0.332h0.491V31h-0.551
		v-0.347h0.551v-0.221h0.392v0.22h0.529v0.346H133.5v0.174h0.461v0.331H133.5v0.183c0.125-0.015,0.301-0.046,0.54-0.092
		L134.055,31.933z M135.736,33.54l-0.322,0.203c-0.072-0.11-0.128-0.191-0.169-0.245c-0.212,0.021-0.52,0.047-0.922,0.073v0.696
		c0,0.104-0.03,0.193-0.093,0.264c-0.059,0.072-0.159,0.108-0.288,0.11c-0.135,0.003-0.295,0.004-0.484,0.004l-0.099-0.365
		c0.075,0.003,0.229,0.005,0.464,0.005c0.015,0,0.03-0.01,0.049-0.03c0.02-0.019,0.027-0.038,0.027-0.053v-0.598
		c-0.423,0.031-0.837,0.054-1.247,0.068l-0.058-0.326c0.302-0.058,0.652-0.185,1.055-0.379c-0.34,0.023-0.628,0.039-0.863,0.047
		l-0.022-0.304c0.387-0.078,0.769-0.265,1.146-0.557l0.389,0.186c-0.171,0.106-0.352,0.211-0.54,0.311
		c0.064,0,0.136-0.003,0.203-0.009c0.07-0.005,0.146-0.014,0.228-0.023c0.081-0.009,0.132-0.019,0.141-0.024l0.171-0.104
		c0.102-0.061,0.188-0.119,0.264-0.173l0.366,0.233c-0.511,0.31-0.981,0.555-1.418,0.737l1.275-0.096
		c-0.054-0.071-0.126-0.146-0.21-0.226l0.323-0.198C135.367,33.036,135.579,33.294,135.736,33.54z M135.685,30.53
		c0,0.283-0.018,0.585-0.049,0.906c-0.032,0.321-0.066,0.519-0.098,0.595c-0.029,0.076-0.083,0.135-0.146,0.18
		c-0.068,0.045-0.185,0.067-0.345,0.067c-0.047,0-0.101-0.002-0.175-0.005l-0.104-0.386l0.326-0.005
		c0.058,0,0.097-0.042,0.119-0.126c0.021-0.084,0.05-0.366,0.081-0.845h-0.315c-0.077,0.578-0.261,1.023-0.552,1.338l-0.292-0.266
		c0.248-0.257,0.4-0.615,0.443-1.072h-0.362V30.53H135.685L135.685,30.53z M135.842,34.227l-0.253,0.304
		c-0.249-0.19-0.558-0.374-0.938-0.554l0.25-0.319C135.243,33.827,135.559,34.015,135.842,34.227z"/>
	
		<linearGradient id="SVGID_55_" gradientUnits="userSpaceOnUse" x1="-35.6907" y1="-588.5845" x2="78.4804" y2="-705.5179" gradientTransform="matrix(1 0 0 -1 -0.0601 -503.8096)">
		<stop  offset="0.0056" style="stop-color:#CC491A"/>
		<stop  offset="0.3684" style="stop-color:#DEB817"/>
		<stop  offset="0.7088" style="stop-color:#58AC46"/>
		<stop  offset="1" style="stop-color:#821976"/>
	</linearGradient>
	<path fill="url(#SVGID_55_)" d="M21.431,142.02c-0.07,0.195-0.138,0.369-0.205,0.524l-0.205,0.478v3.143h-0.434v-2.404
		c-0.127,0.174-0.231,0.307-0.325,0.404l-0.203-0.447c0.4-0.492,0.71-1.091,0.93-1.787L21.431,142.02z M24.281,142.97h-1.5v0.71
		h1.389v0.402h-1.389v0.7h1.395v0.395h-1.395v0.993h-0.434v-3.195h-0.166c-0.232,0.449-0.465,0.803-0.694,1.063l-0.313-0.299
		c0.416-0.498,0.732-1.104,0.943-1.809l0.432,0.092c-0.022,0.098-0.09,0.281-0.187,0.552h1.919V142.97z"/>
	
		<linearGradient id="SVGID_56_" gradientUnits="userSpaceOnUse" x1="-7.2659" y1="-560.813" x2="106.9369" y2="-677.7788" gradientTransform="matrix(1 0 0 -1 -0.0601 -503.8096)">
		<stop  offset="0.0056" style="stop-color:#CC491A"/>
		<stop  offset="0.3684" style="stop-color:#DEB817"/>
		<stop  offset="0.7088" style="stop-color:#58AC46"/>
		<stop  offset="1" style="stop-color:#821976"/>
	</linearGradient>
	<path fill="url(#SVGID_56_)" d="M77.746,146.166h-0.43v-0.245H76.42v0.245h-0.419v-2.169h1.745V146.166L77.746,146.166z
		 M77.316,145.534V144.4H76.42v1.134H77.316z M79.439,143.576h-2.963v-1.527h2.963V143.576z M79.006,143.195v-0.75h-2.093v0.75
		H79.006z M79.903,146.166h-0.421v-0.245h-0.903v0.245h-0.424v-2.169h1.749L79.903,146.166L79.903,146.166z M79.482,145.537V144.4
		h-0.903v1.137H79.482z"/>
	
		<linearGradient id="SVGID_57_" gradientUnits="userSpaceOnUse" x1="21.366" y1="-532.7979" x2="135.6042" y2="-649.7999" gradientTransform="matrix(1 0 0 -1 -0.0601 -503.8096)">
		<stop  offset="0.0056" style="stop-color:#CC491A"/>
		<stop  offset="0.3684" style="stop-color:#DEB817"/>
		<stop  offset="0.7088" style="stop-color:#58AC46"/>
		<stop  offset="1" style="stop-color:#821976"/>
	</linearGradient>
	<path fill="url(#SVGID_57_)" d="M135.842,144.52h-4.201v-0.316h1.882v-0.215h-1.51v-0.297h1.51v-0.209h-1.44v-0.287h1.44v-0.228
		h-1.893v-0.302h1.893v-0.203h-1.44v-0.305h1.44v-0.213h0.424v0.213h1.49v0.508h0.4v0.302h-0.4v0.515h-1.49v0.209h1.533v0.297
		h-1.533v0.215h1.896V144.52z M135.403,146.166h-0.437v-0.121h-2.444v0.121h-0.441v-1.446h3.32L135.403,146.166L135.403,146.166z
		 M134.968,145.23v-0.215h-2.444v0.215H134.968z M134.968,145.741v-0.222h-2.444v0.222H134.968z M135.012,142.666v-0.203h-1.067
		v0.203H135.012z M135.012,143.198v-0.228h-1.067v0.228H135.012z"/>
	<g>
		
			<linearGradient id="SVGID_58_" gradientUnits="userSpaceOnUse" x1="3.2463" y1="-550.5273" x2="117.4241" y2="-667.4675" gradientTransform="matrix(1 0 0 -1 -0.0601 -503.8096)">
			<stop  offset="0.0056" style="stop-color:#CC491A"/>
			<stop  offset="0.3684" style="stop-color:#DEB817"/>
			<stop  offset="0.7088" style="stop-color:#58AC46"/>
			<stop  offset="1" style="stop-color:#821976"/>
		</linearGradient>
		<path fill="url(#SVGID_58_)" d="M20.562,65.83v0.076c0.002,0.364,0.014,0.626,0.036,0.786c0.011,0.054,0.016,0.093,0.016,0.122
			c0,0.043-0.021,0.063-0.078,0.063c-0.056,0-0.092-0.022-0.105-0.072c-0.01-0.02-0.012-0.06-0.012-0.121v-2.285
			c0.322,0.24,0.6,0.439,0.838,0.601c0.239,0.163,0.506,0.333,0.8,0.511c0.323,0.196,0.563,0.332,0.723,0.409
			c0.158,0.078,0.277,0.117,0.354,0.117c0.091,0,0.16-0.029,0.203-0.094c0.045-0.061,0.068-0.155,0.068-0.282
			c0-0.125-0.023-0.251-0.07-0.383c-0.047-0.132-0.107-0.244-0.184-0.33c-0.074-0.087-0.162-0.156-0.267-0.21
			c-0.101-0.052-0.207-0.077-0.308-0.077c-0.066,0-0.127,0.007-0.172,0.025c-0.049,0.017-0.121,0.054-0.212,0.111
			c-0.02,0.013-0.043,0.019-0.061,0.019c-0.021,0-0.043-0.008-0.059-0.022c-0.018-0.02-0.024-0.034-0.024-0.056
			c0-0.052,0.056-0.102,0.165-0.151c0.108-0.047,0.224-0.07,0.345-0.07c0.167,0,0.325,0.046,0.479,0.136
			c0.174,0.104,0.304,0.25,0.399,0.439c0.092,0.191,0.135,0.408,0.135,0.658c0,0.27-0.052,0.502-0.156,0.694
			c-0.078,0.141-0.188,0.252-0.336,0.332c-0.123,0.063-0.255,0.097-0.407,0.097c-0.116,0-0.238-0.02-0.358-0.058
			c-0.122-0.04-0.266-0.104-0.438-0.192c-0.297-0.158-0.607-0.344-0.932-0.556L20.562,65.83z"/>
		
			<linearGradient id="SVGID_59_" gradientUnits="userSpaceOnUse" x1="2.0232" y1="-551.71" x2="116.2425" y2="-668.6924" gradientTransform="matrix(1 0 0 -1 -0.0601 -503.8096)">
			<stop  offset="0.0056" style="stop-color:#CC491A"/>
			<stop  offset="0.3684" style="stop-color:#DEB817"/>
			<stop  offset="0.7088" style="stop-color:#58AC46"/>
			<stop  offset="1" style="stop-color:#821976"/>
		</linearGradient>
		<path fill="url(#SVGID_59_)" d="M23.561,68.386c0,0.346-0.156,0.634-0.47,0.864c-0.304,0.225-0.692,0.336-1.168,0.336
			c-0.485,0-0.889-0.133-1.197-0.396c-0.265-0.223-0.396-0.491-0.396-0.804c0-0.214,0.059-0.417,0.183-0.606
			c0.144-0.224,0.357-0.397,0.633-0.516c0.219-0.096,0.485-0.141,0.797-0.141c0.5,0,0.898,0.13,1.196,0.389
			c0.135,0.113,0.233,0.245,0.306,0.398C23.524,68.061,23.56,68.221,23.561,68.386z M23.41,68.346l-1.458-0.01l-1.204,0.008
			l-0.266,0.002c-0.002,0.25,0.081,0.468,0.248,0.648c0.137,0.149,0.31,0.261,0.519,0.34c0.207,0.079,0.441,0.117,0.698,0.117
			c0.454,0,0.815-0.103,1.083-0.314c0.121-0.095,0.216-0.205,0.288-0.326c0.063-0.127,0.099-0.25,0.099-0.37
			C23.416,68.417,23.414,68.388,23.41,68.346z"/>
		
			<linearGradient id="SVGID_60_" gradientUnits="userSpaceOnUse" x1="0.7664" y1="-552.9395" x2="114.9768" y2="-669.9131" gradientTransform="matrix(1 0 0 -1 -0.0601 -503.8096)">
			<stop  offset="0.0056" style="stop-color:#CC491A"/>
			<stop  offset="0.3684" style="stop-color:#DEB817"/>
			<stop  offset="0.7088" style="stop-color:#58AC46"/>
			<stop  offset="1" style="stop-color:#821976"/>
		</linearGradient>
		<path fill="url(#SVGID_60_)" d="M23.532,71.46l-1.281-0.017l-1.76,0.017H20.42v-1.165h0.072l1.787,0.019l0.659,0.005h0.093
			l-0.012-0.042l-0.102-0.29c-0.013-0.028-0.018-0.057-0.018-0.078c0-0.04,0.021-0.06,0.078-0.06c0.036,0,0.058,0.013,0.076,0.032
			c0.012,0.02,0.033,0.081,0.059,0.182l0.146,0.504l0.059,0.19L23.532,71.46z"/>
		
			<linearGradient id="SVGID_61_" gradientUnits="userSpaceOnUse" x1="-0.3" y1="-553.9878" x2="113.891" y2="-670.9417" gradientTransform="matrix(1 0 0 -1 -0.0601 -503.8096)">
			<stop  offset="0.0056" style="stop-color:#CC491A"/>
			<stop  offset="0.3684" style="stop-color:#DEB817"/>
			<stop  offset="0.7088" style="stop-color:#58AC46"/>
			<stop  offset="1" style="stop-color:#821976"/>
		</linearGradient>
		<path fill="url(#SVGID_61_)" d="M20.497,73.117l1.591,0.009l1.326-0.009c0.004-0.043,0.004-0.072,0.004-0.092
			c0-0.115-0.024-0.239-0.088-0.368c-0.06-0.128-0.137-0.241-0.231-0.333c-0.212-0.208-0.471-0.31-0.774-0.31
			c-0.277,0-0.484,0.088-0.619,0.265c-0.086,0.105-0.126,0.216-0.126,0.328c0,0.093,0.025,0.177,0.076,0.26
			c0.029,0.049,0.046,0.077,0.046,0.092c0,0.034-0.021,0.053-0.063,0.053c-0.052,0-0.097-0.041-0.14-0.129
			c-0.042-0.086-0.058-0.177-0.058-0.279c0-0.189,0.074-0.351,0.216-0.489c0.173-0.16,0.399-0.239,0.675-0.239
			c0.369,0,0.676,0.134,0.921,0.404c0.207,0.227,0.31,0.491,0.31,0.79c0,0.288-0.092,0.54-0.275,0.758
			c-0.289,0.342-0.714,0.514-1.285,0.514c-0.44,0-0.82-0.117-1.125-0.351c-0.187-0.144-0.326-0.322-0.423-0.525
			c-0.083-0.174-0.124-0.348-0.124-0.527c0-0.234,0.07-0.436,0.208-0.602c0.104-0.123,0.196-0.184,0.284-0.184
			c0.021,0,0.049,0.01,0.063,0.026c0.021,0.02,0.031,0.04,0.031,0.065c0,0.036-0.033,0.07-0.096,0.1
			c-0.121,0.058-0.21,0.134-0.257,0.222c-0.061,0.099-0.09,0.227-0.09,0.378C20.478,72.998,20.483,73.055,20.497,73.117z"/>
	</g>
	
		<linearGradient id="SVGID_62_" gradientUnits="userSpaceOnUse" x1="8.1257" y1="-545.7388" x2="122.3845" y2="-662.7616" gradientTransform="matrix(1 0 0 -1 -0.0601 -503.8096)">
		<stop  offset="0.0056" style="stop-color:#CC491A"/>
		<stop  offset="0.3684" style="stop-color:#DEB817"/>
		<stop  offset="0.7088" style="stop-color:#58AC46"/>
		<stop  offset="1" style="stop-color:#821976"/>
	</linearGradient>
	<path fill="url(#SVGID_62_)" d="M23.408,56.094c0.005-0.326-0.095-0.572-0.31-0.741c-0.068-0.058-0.102-0.104-0.102-0.141
		c0-0.019,0.015-0.038,0.032-0.052c0.021-0.018,0.047-0.023,0.076-0.023c0.059,0,0.126,0.056,0.21,0.166
		c0.166,0.22,0.249,0.52,0.249,0.896c0,0.281-0.059,0.513-0.173,0.698c-0.063,0.103-0.146,0.182-0.25,0.236
		c-0.104,0.056-0.221,0.083-0.347,0.083c-0.208,0-0.376-0.076-0.5-0.227c-0.112-0.139-0.184-0.317-0.21-0.522
		c-0.016-0.112-0.022-0.18-0.03-0.211L22,56.586c-0.034,0.25-0.124,0.446-0.266,0.586c-0.125,0.121-0.279,0.182-0.472,0.182
		c-0.183,0-0.348-0.058-0.495-0.174c-0.288-0.222-0.433-0.591-0.433-1.103c0-0.393,0.086-0.702,0.26-0.933
		c0.111-0.151,0.212-0.227,0.314-0.227c0.025,0,0.047,0.007,0.065,0.023c0.018,0.018,0.021,0.038,0.021,0.061
		c0,0.028-0.007,0.052-0.021,0.066c-0.021,0.015-0.06,0.038-0.125,0.072c-0.092,0.045-0.167,0.124-0.22,0.236
		c-0.101,0.192-0.148,0.401-0.148,0.628l0.002,0.092h1.497v-0.303c0-0.067,0.006-0.11,0.013-0.126
		c0.009-0.017,0.029-0.025,0.063-0.025c0.035,0,0.058,0.009,0.066,0.025c0.008,0.017,0.015,0.059,0.015,0.128v0.302L23.408,56.094
		L23.408,56.094z"/>
	
		<linearGradient id="SVGID_63_" gradientUnits="userSpaceOnUse" x1="25.8533" y1="-528.4326" x2="140.0854" y2="-645.4284" gradientTransform="matrix(1 0 0 -1 -0.0601 -503.8096)">
		<stop  offset="0.0056" style="stop-color:#CC491A"/>
		<stop  offset="0.3684" style="stop-color:#DEB817"/>
		<stop  offset="0.7088" style="stop-color:#58AC46"/>
		<stop  offset="1" style="stop-color:#821976"/>
	</linearGradient>
	<path fill="url(#SVGID_63_)" d="M85.315,84.699c-1.136,0.182-2.118,1.074-3.257,0.742c-1.736-0.504-1.88-5.18,0.087-5.507
		c0.65-0.107,1.338,0.507,1.898,0.644c1.213,0.302,2.429-0.095,3.809-0.194c-1.063-1.406-3.08-2.36-5.399-2.36
		c-3.422,0-6.197,2.071-6.197,4.627c0,2.554,2.775,4.626,6.197,4.626c2.479,0,4.612-1.092,5.604-2.658
		C87.093,84.661,86.287,84.543,85.315,84.699z"/>
	
		<linearGradient id="SVGID_64_" gradientUnits="userSpaceOnUse" x1="33.6975" y1="-520.7798" x2="147.9244" y2="-637.7703" gradientTransform="matrix(1 0 0 -1 -0.0601 -503.8096)">
		<stop  offset="0.0056" style="stop-color:#CC491A"/>
		<stop  offset="0.3684" style="stop-color:#DEB817"/>
		<stop  offset="0.7088" style="stop-color:#58AC46"/>
		<stop  offset="1" style="stop-color:#821976"/>
	</linearGradient>
	<path fill="url(#SVGID_64_)" d="M85.824,52.061c-1.396,0.049-1.771,1.249-3.779,0.875c-0.274-3.272,0.724-6.731-1.055-8.319
		c-1.389-1.244-3.644-0.412-5.988-0.766c0.115-1.386,0.83-1.488,0.84-2.628c0.041-3.759-6.239-3.906-6.617-0.218
		c-0.119,1.18,0.455,1.457,0.421,2.737c-0.982,0.221-5.199,0.277-6.158,0.658c-0.579,0.231-0.879,0.65-1.025,1.155v7.282H61.74
		V52.81c-0.671-0.215-2.384-0.671-3.753-0.17c-2.591,0.946-2.297,6.752,0.736,7.115c1.176,0.139,2.314-0.347,3.017-0.744v-0.026
		l0.723-0.117v0.729l0.095,7.851c0,0,4.27,0,6.405,0c0.042-1.748-0.774-3.681-0.524-5.428c0.667-4.644,8.273-4.367,8.142,0.657
		c-0.036,1.409-1.521,4.01-1.418,5.928c2.101,0,4.781,0,6.884,0c0.069-2.591-0.141-7.787,0.102-10.193
		c2.044-0.306,2.58,0.681,3.892,0.547C89.527,58.593,89.576,51.931,85.824,52.061z"/>
	
		<linearGradient id="SVGID_65_" gradientUnits="userSpaceOnUse" x1="64.7346" y1="-490.4585" x2="178.9803" y2="-607.4683" gradientTransform="matrix(1 0 0 -1 -0.0601 -503.8096)">
		<stop  offset="0.0056" style="stop-color:#CC491A"/>
		<stop  offset="0.3684" style="stop-color:#DEB817"/>
		<stop  offset="0.7088" style="stop-color:#58AC46"/>
		<stop  offset="1" style="stop-color:#821976"/>
	</linearGradient>
	<path fill="url(#SVGID_65_)" d="M130.162,53.435c-0.929-2,0.701-3.486,0.642-5.125c-0.05-1.422-1.383-2.731-2.99-2.491
		c-1.044,0.155-1.861,1.015-1.994,2.064c-0.21,1.699,1.287,3.852,0.429,5.623c-2.396,0.349-4.977,0.098-7.618,0.141
		c-0.003-0.997-0.12-1.467,0.144-2.205c0.327-0.925,1.361-1.325,1.425-1.994c0.096-1.076-0.979-1.942-2.208-1.78
		c-1.517,0.202-1.246,1.761-1.779,2.848c-0.982,2.018-4.527,1.417-3.983-1.637c0.155-0.884,1.105-1.717,1.563-2.135
		c0.672-0.614,1.51-1.119,1.994-1.708c0.87-1.068,1.128-2.202,1.993-3.345c1.389-1.84,3.759-3.15,6.833-3.347
		c3.991-0.254,7.424,1.611,9.039,3.917c1.314,1.872,1.852,4.652,1.852,7.83c0,0.822,0.221,2.292-0.283,2.988
		C134.421,54.183,131.835,53.848,130.162,53.435z M120.482,44.181c-0.02-0.252-0.23-0.483-0.57-0.428
		C118.431,43.998,120.581,45.573,120.482,44.181z"/>
	
		<linearGradient id="SVGID_66_" gradientUnits="userSpaceOnUse" x1="6.2112" y1="-547.6187" x2="120.4351" y2="-664.606" gradientTransform="matrix(1 0 0 -1 -0.0601 -503.8096)">
		<stop  offset="0.0056" style="stop-color:#CC491A"/>
		<stop  offset="0.3684" style="stop-color:#DEB817"/>
		<stop  offset="0.7088" style="stop-color:#58AC46"/>
		<stop  offset="1" style="stop-color:#821976"/>
	</linearGradient>
	<path fill="url(#SVGID_66_)" d="M53.897,93.494c4.678,0.302,19.749-0.775,21.1,0.781c1.38,1.594,0.828,16.371,0.828,16.371
		s0.099,8.141-4.324,9.891c-1.487,0.591-4.014-1.23-4.815-2.831c-0.984-1.966,0.643-5.489,1.092-7.418
		c0.493-2.123,0.299-4.009-0.225-6.108c-1.053-4.228-3.723-6.957-8.373-5.818c-2.283,0.558-5.46,3.175-4.31,5.894
		c1.2,2.838-2.785,5.634-5.53,3.752c-2.123-1.448-1.411-4.847-1.257-6.987c0.183-2.533,0.169-4.986,0.064-7.52
		c-0.077-1.93-1.247-3.627-1.247-5.508c0-3.588,6.583-5.16,7.873-1.639C55.478,88.286,53.672,90.787,53.897,93.494z"/>
	
		<linearGradient id="SVGID_67_" gradientUnits="userSpaceOnUse" x1="-5.7131" y1="-559.2534" x2="108.5192" y2="-676.2495" gradientTransform="matrix(1 0 0 -1 -0.0601 -503.8096)">
		<stop  offset="0.0056" style="stop-color:#CC491A"/>
		<stop  offset="0.3684" style="stop-color:#DEB817"/>
		<stop  offset="0.7088" style="stop-color:#58AC46"/>
		<stop  offset="1" style="stop-color:#821976"/>
	</linearGradient>
	<path fill="url(#SVGID_67_)" d="M56.538,136.497c0.057-1.993,0.157-4.241-0.353-6.072c-0.516-1.849-1.59-3.862,0.131-5.436
		c1.107-1.011,3.044-1.107,4.327-0.357c1.404,0.818,2.137,2.406,2.387,3.96c0.29,1.785-0.563,1.93-1.286,3.375
		c-0.716,1.438,0.056,3.443,0.59,4.53h11.849c-0.012-1.519-0.095-4.511-0.497-6.493c-0.428-2.07-0.646-4.611-2.361-6.156
		c-1.833-1.658-4.442-1.834-5.849-4.143c-1.089-1.792-0.877-4.618,0.067-6.452c1.833-3.553,2.611-10.931-1.879-13.078
		c-2.975-1.42-6.803-0.558-7.537,3.063c-0.29,1.431,0.752,3.014-0.268,4.14c-2.609,2.862-7.273,2.938-8.695,7.001v22.118H56.538z"/>
	
		<linearGradient id="SVGID_68_" gradientUnits="userSpaceOnUse" x1="-16.114" y1="-569.4102" x2="98.1179" y2="-686.4058" gradientTransform="matrix(1 0 0 -1 -0.0601 -503.8096)">
		<stop  offset="0.0056" style="stop-color:#CC491A"/>
		<stop  offset="0.3684" style="stop-color:#DEB817"/>
		<stop  offset="0.7088" style="stop-color:#58AC46"/>
		<stop  offset="1" style="stop-color:#821976"/>
	</linearGradient>
	<path fill="url(#SVGID_68_)" d="M34.296,106.273c1.386-0.082,2.25,0.99,3.609,1.281c1.7,0.364,4.428,0.079,5.576-0.641
		c1.639-1.023,1.556-3.65,1.639-6.294c0.065-2.126-0.002-3.865-0.218-5.972c-3.204,0.142-6.277,0.151-6.779-2.344
		c-4.819,2.497-9.521,5.551-14.102,8.532c-1.133,0.736-2.88,1.722-3.688,2.716v32.946h8.52c0.078-1.708,0.312-7.313,0.086-8.464
		c-0.345-1.778-1.287-2.744-0.98-4.477c0.826-4.678,9.273-3.978,9.509,0.426c0.097,1.746-1.637,4.051-1.637,4.051
		s-0.632,5.832,0.307,8.464h8.561c-0.003-3.379-0.021-18.563,0-19.215c0,0-0.27-2.946-0.999-3.718
		c-1.604-1.7-3.971-1.267-6.009-1.102c-1.653,0.135-2.13,1.098-3.607,0.854C30.352,112.703,30.873,106.477,34.296,106.273z"/>
	
		<linearGradient id="SVGID_69_" gradientUnits="userSpaceOnUse" x1="15.7537" y1="-538.271" x2="130.0048" y2="-655.2863" gradientTransform="matrix(1 0 0 -1 -0.0601 -503.8096)">
		<stop  offset="0.0056" style="stop-color:#CC491A"/>
		<stop  offset="0.3684" style="stop-color:#DEB817"/>
		<stop  offset="0.7088" style="stop-color:#58AC46"/>
		<stop  offset="1" style="stop-color:#821976"/>
	</linearGradient>
	<path fill="url(#SVGID_69_)" d="M85.702,94.264h-2.516v10.801c0,1.811-1.469,3.28-3.277,3.28c-0.54,0-1.048-0.135-1.497-0.364
		c-0.265,0.509-0.479,1.039-0.409,1.563c0.442,3.145,6.733,3.107,7.607,0.365c0.032-0.11,0.063-0.82,0.096-0.973L85.702,94.264
		L85.702,94.264z"/>
	
		<linearGradient id="SVGID_70_" gradientUnits="userSpaceOnUse" x1="16.5784" y1="-537.4937" x2="130.8058" y2="-654.4845" gradientTransform="matrix(1 0 0 -1 -0.0601 -503.8096)">
		<stop  offset="0.0056" style="stop-color:#CC491A"/>
		<stop  offset="0.3684" style="stop-color:#DEB817"/>
		<stop  offset="0.7088" style="stop-color:#58AC46"/>
		<stop  offset="1" style="stop-color:#821976"/>
	</linearGradient>
	<path fill="url(#SVGID_70_)" d="M77.836,79.208c1.313-0.129,3.06-0.336,4.205-0.838V68.3c-0.02-0.101-0.032-0.205-0.054-0.308
		c-2.364-0.074-5.029,0.146-7.215-0.108c-0.442-2.393,2.264-4.975,0.785-7.148c-1.898-2.772-6.637-1.636-6.794,1.835
		c-0.068,1.522,0.844,3.44,0.547,5.421c-2.516-0.074-7.653-0.108-7.653-0.108l-0.135-8.179c0,0-1.261,0.466-2.965,0.437
		c-3.729-0.064-4.492-6.824-0.724-7.955c1.438-0.432,3.688-0.146,3.688-0.146V45.46c0,0-7.998-0.001-9.377-0.286
		c0.099-3.404,1.508-6.096-2.188-6.854c-0.44,0-0.876,0-1.313,0c-1.32,0.532-2.558,1.021-2.841,2.405
		c-0.327,1.578,0.945,2.424,0.654,4.309c-3.938-0.11-6.785,1.445-6.667,5.029c-2.287,0.417-2.598-0.991-4.374-0.875
		c-3.579,0.235-3.437,6.608,0.219,6.89c1.355,0.104,1.899-0.873,4.046-0.548c0.033,4.563,0.059,9.23,0.22,13.883
		c0.117,3.443,0.154,5.671,3.498,6.013c3.021,0.31,7.785-0.325,10.933,0.107c0.522,0.655,0.559,1.993-0.109,2.515
		c-2.453,0-4.385,0-6.668,0c-1.716,0-4.431-0.444-6.122,0.438c-1.986,1.035-2.529,7.286-2.405,10.385
		c0.043,1.084,0.286,2.679,1.094,3.279c0.446,0.33,1.085,0.529,1.813,0.649h5.55c0.25-1.942-1.441-2.748-1.598-4.257
		c-0.623-6.004,10.2-6.572,9.763-0.547c-0.077,1.049-1.988,3.811-1.395,4.725H72.53c0.046,0,0.09,0,0.133,0h7.444
		c0.815-0.01,1.504-0.017,1.938-0.021v-5.908c-1.15-1.097-3.46,0.172-5.471-0.438C73.948,85.564,73.435,79.634,77.836,79.208z
		 M56.68,67.734l-11.344,0.04c-0.247,0-0.459-3.881,0.322-4.527c0.893-0.742,5.956-0.708,6.71-0.471
		c1.083,0.342,1.515,1.141,2.292,1.716c0.824,0.608,1.58,0.409,2.076,1.313C56.845,66.677,56.68,67.734,56.68,67.734z
		 M63.076,85.813h-1.407v-8.315h1.556C69.66,76.702,70.635,86.93,63.076,85.813z"/>
	
		<linearGradient id="SVGID_71_" gradientUnits="userSpaceOnUse" x1="47.6038" y1="-507.2017" x2="161.8349" y2="-624.1964" gradientTransform="matrix(1 0 0 -1 -0.0601 -503.8096)">
		<stop  offset="0.0056" style="stop-color:#CC491A"/>
		<stop  offset="0.3684" style="stop-color:#DEB817"/>
		<stop  offset="0.7088" style="stop-color:#58AC46"/>
		<stop  offset="1" style="stop-color:#821976"/>
	</linearGradient>
	<path fill="url(#SVGID_71_)" d="M130.149,55.877l-13.769,0.013v-0.083h-5.094c-0.037-1.054-0.261-1.986-1.043-2.246
		c-1.234-0.407-3.742-0.32-5.088-0.325c-0.434,0.002-1.551-0.412-1.392-0.848c0.229-0.64,1.104-1.401,1.016-2.17
		c-0.296-2.437-6.533-2.441-6.832,0c-0.094,0.77,0.787,1.531,1.017,2.171c0.158,0.436-0.952,0.851-1.391,0.848
		c-1.352,0.004-3.857-0.085-5.09,0.325c-2.018,0.671-0.327,5.853-1.286,5.962c-0.023,0.003-0.051,0.003-0.078,0.005
		c-2.427,0.204-6.207-1.035-6.049,1.869c0.132,2.431,3.859,1.977,6.222,1.616c0.01,0.002,0.018,0.002,0.023,0.004
		c0.146,1.211-0.054,2.459-0.02,3.534c-1.677,0.109-2.638-0.155-3.819-0.066c-1.547,0.115-2.308,0.964-2.363,1.862
		c0,0.031,0.005,0.062,0.005,0.094c0,0.034-0.005,0.064,0.006,0.097c0.05,0.896,0.811,1.746,2.356,1.861
		c1.183,0.09,2.143-0.177,3.818-0.067c-0.033,1.074,0.168,2.321,0.021,3.534c-0.011,0.002-0.02,0.002-0.023,0.003
		c-2.36-0.361-6.091-0.815-6.221,1.616c-0.157,2.903,3.624,1.665,6.048,1.867c0.027,0.003,0.056,0.003,0.077,0.007
		c0.713,0.079-0.027,2.941,0.358,4.694h11.502c0.065-2.458,1.172-4.894,3.946-5.137c2.724-0.239,5.111,1.891,4.669,4.584
		c0,0.003-0.054,0.313-0.085,0.502h4.125c-0.003,0.025-0.005,0.052-0.009,0.074c4.795,0,16.112,0,16.18,0
		c2.551,0,3.666-0.947,3.666-3.472c0-6.059,0-17.933,0-17.935C134.63,57.761,133.72,55.858,130.149,55.877z M117.985,69
		c-0.696,2.629-4.472,1.526-6.468,1.387c-0.028-0.004-0.06-0.004-0.088-0.006c0-0.017,0.182-0.365,0.182-0.381
		c1.738-0.113,2.285,0.5,3.638,0.398c1.548-0.115,2.308-0.965,2.367-1.861c0.003-0.033-0.008-0.063-0.008-0.097
		c0-0.031,0.011-0.062-0.006-0.094c-0.051-0.899-0.811-1.747-2.356-1.862c-1.183-0.088-1.961,0.54-3.639,0.432
		c0.002-0.086-0.184-0.542-0.184-0.626c0.303,0.015,0.604,0.028,0.908,0.043c1.39,0.066,2.934-0.659,4.251-0.134
		C117.699,66.641,118.285,67.866,117.985,69z M123.771,57.74h0.938c-0.135,0.289-0.207,0.646-0.207,1.067
		c0,1.017,0.532,1.524,1.603,1.524h3.927v1.515h-3.945c-0.772,0-1.374-0.265-1.801-0.792c-0.425-0.531-0.634-1.265-0.634-2.204
		C123.647,58.422,123.688,58.052,123.771,57.74z M124.545,65.712v0.906h-0.793v-3.322h0.793v0.902h4.69v-0.902h0.795v3.322h-0.795
		v-0.906H124.545z M127.844,80.387l-0.115,0.238l-0.964-0.368l0.129-0.282c0.085-0.182,0.186-0.48,0.186-0.867
		c0-0.479-0.158-0.628-0.203-0.628c-0.073,0-0.16,0.058-0.323,0.775c-0.167,0.738-0.453,1.491-1.331,1.491
		c-0.316,0-1.333-0.136-1.333-1.921c0-0.546,0.133-1.09,0.354-1.452l0.122-0.203l1.011,0.351l-0.188,0.308
		c-0.171,0.27-0.268,0.668-0.268,1.063c0,0.414,0.105,0.693,0.264,0.693c0.058,0,0.193,0,0.363-0.796
		c0.158-0.729,0.438-1.473,1.29-1.473c0.633,0,1.271,0.556,1.271,1.796C128.105,79.605,128.017,80.034,127.844,80.387z
		 M127.346,69.678v3.413h-0.83v-3.413h-1.932v3.896h-0.834v-5.41h6.278v5.192h-0.834v-3.677h-1.849V69.678z M131.401,77.996
		l-1.948-1.081v-0.988l1.948,0.765V77.996z"/>
	
		<linearGradient id="SVGID_72_" gradientUnits="userSpaceOnUse" x1="27.1223" y1="-527.1914" x2="141.3548" y2="-644.1877" gradientTransform="matrix(1 0 0 -1 -0.0601 -503.8096)">
		<stop  offset="0.0056" style="stop-color:#CC491A"/>
		<stop  offset="0.3684" style="stop-color:#DEB817"/>
		<stop  offset="0.7088" style="stop-color:#58AC46"/>
		<stop  offset="1" style="stop-color:#821976"/>
	</linearGradient>
	<path fill="url(#SVGID_72_)" d="M125.256,119.156c-1.262-0.782-3.626-1.922-5.483-3.256v-0.114l-0.002-0.072h-0.06l-0.192-15.448
		c-0.942,0-3.436,0.617-5.408,0.545c-1.493-0.059-2.689-0.509-2.689-1.928c-0.002-3.088,5.482-0.337,7.197-1.361
		c1.354-0.813,1.524-2.836,0.479-3.99c-1.736-1.918-7.82,1.4-7.82-1.958c0-0.985,0.748-1.785,1.667-1.785
		c0.479,0.001,6.58,1.012,6.58,0.483c0,0,0-5.725,0-7.067c0,0-8.49,0-8.676,0c0.763,0,0.436-3.068,0.289-3.465
		c-0.536-1.43-2.055-2.404-3.557-2.425c-3.573-0.047-4.24,3.609-4.24,6.734c-2.44,1.504-7.967,4.452-8.057,4.714v5.717
		c0,0,2.11-1.481,3.202-1.254c2.938,0.612,3.116,4.863,0.5,6.09c-0.372,0.175-1.292,0.898-1.292,0.898l-2.321,1.512l-0.097,14.229
		c-2.002,1.146-4.595,2.726-5.182,3.169c-3.588,2.745,5.652,8.373,6.583,9.042c1.726,1.254,3.82,1.071,6.667,1.337v3.266
		c-0.016,0.246-0.022,0.479-0.024,0.688c-0.03,3.194,5.267,3.896,7.535,1.993c0.69-0.527,1.114-1.223,1.114-1.984V131.5
		c0.02-0.863,0.02-1.164,0.038-1.863c2.284-0.425,4.973-0.24,6.601-1.283C119.266,127.922,129.37,121.7,125.256,119.156z
		 M112.726,113.294c0.02-0.151,0.037-0.304,0.037-0.46c0-2.304-2.093-4.168-4.672-4.168s-4.667,1.864-4.667,4.168
		c0,0.355,0.056,0.697,0.147,1.023c-0.018,0.004-0.028,0.006-0.047,0.013h-0.158c-0.272-0.833-0.735-1.333-0.511-2.632
		c0.839-4.883,10.615-4.612,10.459,0.668C113.297,112.629,113.001,112.934,112.726,113.294z"/>
	
		<linearGradient id="SVGID_73_" gradientUnits="userSpaceOnUse" x1="5.4705" y1="-548.334" x2="119.7012" y2="-665.3285" gradientTransform="matrix(1 0 0 -1 -0.0601 -503.8096)">
		<stop  offset="0.0056" style="stop-color:#CC491A"/>
		<stop  offset="0.3684" style="stop-color:#DEB817"/>
		<stop  offset="0.7088" style="stop-color:#58AC46"/>
		<stop  offset="1" style="stop-color:#821976"/>
	</linearGradient>
	<circle fill="url(#SVGID_73_)" cx="92.36" cy="133.578" r="2.917"/>
	
		<linearGradient id="SVGID_74_" gradientUnits="userSpaceOnUse" x1="21.3469" y1="-532.8315" x2="135.5784" y2="-649.8268" gradientTransform="matrix(1 0 0 -1 -0.0601 -503.8096)">
		<stop  offset="0.0056" style="stop-color:#CC491A"/>
		<stop  offset="0.3684" style="stop-color:#DEB817"/>
		<stop  offset="0.7088" style="stop-color:#58AC46"/>
		<stop  offset="1" style="stop-color:#821976"/>
	</linearGradient>
	<circle fill="url(#SVGID_74_)" cx="123.374" cy="133.578" r="2.917"/>
</g>
</svg>
