<?xml version="1.0" encoding="utf-8"?>
<!-- Generator: Adobe Illustrator 16.0.0, SVG Export Plug-In . SVG Version: 6.00 Build 0)  -->
<!DOCTYPE svg PUBLIC "-//W3C//DTD SVG 1.1//EN" "http://www.w3.org/Graphics/SVG/1.1/DTD/svg11.dtd" [
	<!ENTITY ns_extend "http://ns.adobe.com/Extensibility/1.0/">
	<!ENTITY ns_ai "http://ns.adobe.com/AdobeIllustrator/10.0/">
	<!ENTITY ns_graphs "http://ns.adobe.com/Graphs/1.0/">
	<!ENTITY ns_vars "http://ns.adobe.com/Variables/1.0/">
	<!ENTITY ns_imrep "http://ns.adobe.com/ImageReplacement/1.0/">
	<!ENTITY ns_sfw "http://ns.adobe.com/SaveForWeb/1.0/">
	<!ENTITY ns_custom "http://ns.adobe.com/GenericCustomNamespace/1.0/">
	<!ENTITY ns_adobe_xpath "http://ns.adobe.com/XPath/1.0/">
]>
<svg version="1.1" id="圖層_1" xmlns:x="&ns_extend;" xmlns:i="&ns_ai;" xmlns:graph="&ns_graphs;"
	 xmlns="http://www.w3.org/2000/svg" xmlns:xlink="http://www.w3.org/1999/xlink" x="0px" y="0px" width="155.906px"
	 height="155.906px" viewBox="0 0 155.906 155.906" enable-background="new 0 0 155.906 155.906" xml:space="preserve">
<metadata>
	<sfw  xmlns="&ns_sfw;">
		<slices></slices>
		<sliceSourceBounds  height="130.602" width="107.025" x="243.988" y="355.199" bottomLeftOrigin="true"></sliceSourceBounds>
	</sfw>
</metadata>
<g>
	<g>
		<g>
			<path fill="#4B110C" d="M99.462,54.543c-0.764,0.844-0.46,1.449,0.671,1.344l30.34-2.788c1.133-0.104,1.325-0.761,0.427-1.462
				l-15.277-11.895c-0.897-0.697-2.259-0.579-3.021,0.265L99.462,54.543z"/>
		</g>
		<g>
			<path fill="#75301C" d="M85.115,85.091c-0.724,0.876-1.278,2.521-1.229,3.658l0.651,15.182c0.052,1.139,0.689,1.355,1.422,0.483
				l39.5-46.934c0.733-0.87,0.401-1.518-0.731-1.438l-14.429,1.026c-1.134,0.079-2.658,0.862-3.385,1.738L85.115,85.091z"/>
		</g>
		<g>
			<path fill="#4B110C" d="M25.332,69.015c-1.092,0.324-1.195,1.076-0.228,1.677l56.139,34.861c0.967,0.601,1.685,0.164,1.593-0.971
				l-1.581-19.708c-0.091-1.134-0.96-2.546-1.933-3.136L49.363,63.532c-0.972-0.59-2.661-0.811-3.753-0.49L25.332,69.015z"/>
		</g>
		<g>
			<path fill="#75301C" d="M73.906,15.228c-0.139-1.129-0.891-1.375-1.67-0.546L25.056,64.787c-0.78,0.829-0.509,1.303,0.602,1.054
				l17.769-3.99c1.11-0.25,2.648-1.138,3.418-1.976l27.308-29.724c0.771-0.837,1.287-2.447,1.149-3.576L73.906,15.228z"/>
		</g>
		<g>
			<path fill="#75301C" d="M79.354,12.949c-0.946-0.633-1.703-0.219-1.684,0.919l0.24,13.562c0.021,1.139,0.968,2.048,2.106,2.025
				l21.176-0.459c1.139-0.023,1.297-0.562,0.35-1.196L79.354,12.949z"/>
		</g>
		<g>
			<path fill="#40220F" d="M71.298,71.966c0.7,0.25,2.773,0.9,3.678,0.268c0.024-0.018,0.075-0.055,0.111-0.209
				c0.318-1.391,0.225-16.677,0.225-16.677l5.335-9.13c0.272-5.429,0.497-8.039,0.548-9.179c0.012-0.251-0.583-0.411-0.895-0.31
				c-1.875,0.612-4.104,1.886-6.22,3.364c-4.941,3.453-9.197,8.485-10.583,12.522c-2.043,5.957-1.048,12.207,2.798,15.93
				c0.23,0.218,1.178,1.145,2.178,1.873C69.495,71.164,70.581,71.708,71.298,71.966z"/>
			<path fill="#40220F" d="M85.175,36.04c-0.259,0.183-0.417,0.638-0.449,1.293l-0.69,9.594l-5.151,8.15
				c0.071,1.812,0.082,16.617,0.082,16.617s0.763,0.223,1.33,0.163c1.932-0.203,5.014-1.612,6.536-2.574
				c5.72-3.628,9.429-11.325,9.155-18.899c-0.12-3.557-1.28-7.021-3.442-10.301C91.732,38.856,86.632,35.025,85.175,36.04z"/>
		</g>
		<g>
			<path fill="#2F1509" d="M88.529,105.14c-0.735,0.87-0.438,1.335,0.662,1.034l12.203-3.337c1.099-0.301,2.488-1.338,3.087-2.306
				c0,0,15.242-24.589,15.732-25.983c0.639-1.806,6.101-13.353,6.101-13.353c0.487-1.028,0.292-1.154-0.437-0.279L88.529,105.14z"/>
		</g>
		<g>
			<path fill="#2F1509" d="M78.278,106.5c0.965,0.604,0.826,1.002-0.305,0.885l-16.804-1.75c-1.132-0.119-2.766-0.818-3.632-1.555
				c0,0-21.539-18.359-22.457-19.522c-1.179-1.509-10.059-10.686-10.059-10.686c-0.792-0.82-0.644-1.007,0.33-0.415L78.278,106.5z"
				/>
		</g>
	</g>
	<g>
		<polygon fill="#2D130A" points="125.092,119.002 53.54,127.203 52.208,130.897 124.594,122.27 		"/>
		<path fill="#2D130A" d="M66.957,124.257l0.482-3.309c-0.104,0.006-0.211,0.015-0.325,0.027l-4.392,0.512
			c-1.115,0.13-1.723-0.178-1.806-0.917l2.961-0.348c1.192-0.138,2.07-0.422,2.628-0.857c1.01-0.771,1.436-1.823,1.283-3.146
			c-0.132-1.113-0.628-1.959-1.49-2.54c-0.861-0.585-1.941-0.801-3.231-0.65c-1.776,0.209-3.232,1.082-4.355,2.612
			c-1.125,1.531-1.577,3.25-1.357,5.15c0.173,1.479,0.715,2.56,1.619,3.234c0.904,0.674,2.134,0.919,3.694,0.737l4.19-0.488
			C66.889,124.27,66.92,124.261,66.957,124.257z M63.284,116.065c0.648-0.073,1.028,0.144,1.114,0.661
			c0.083,0.463-0.402,0.758-1.458,0.88l-1.626,0.19C61.718,116.744,62.376,116.17,63.284,116.065z"/>
		<path fill="#2D130A" d="M89.416,118.396c-0.106,0.003-0.196-0.009-0.309,0.009l-1.762,0.205l1.128-4.093
			c0.152-0.56,0.204-1.093,0.143-1.593c-0.089-0.797-0.488-1.438-1.19-1.907c-0.699-0.475-1.52-0.653-2.471-0.545
			c-1.383,0.164-2.557,0.884-3.525,2.167c-0.802-1.08-1.858-1.537-3.179-1.383c-0.614,0.073-1.116,0.226-1.512,0.466
			c-0.397,0.235-0.896,0.678-1.503,1.326c-0.303-0.789-0.878-1.125-1.743-1.029c-0.825,0.099-1.386,0.678-1.682,1.747l-2.1,7.591
			l-0.115,0.417c-0.102,0.4-0.138,0.739-0.102,1.034c0.041,0.374,0.222,0.678,0.546,0.903c0.322,0.232,0.682,0.318,1.092,0.271
			c1.025-0.117,1.73-0.881,2.12-2.27l1.236-4.453c0.438-1.608,1.194-2.479,2.26-2.603c0.264-0.032,0.504,0.021,0.723,0.16
			c0.219,0.139,0.336,0.324,0.363,0.535c0.024,0.21-0.015,0.506-0.127,0.883l-1.185,4.331l-0.114,0.416
			c-0.103,0.401-0.135,0.748-0.105,1.035c0.042,0.367,0.229,0.665,0.542,0.896c0.316,0.234,0.673,0.325,1.082,0.275
			c1.036-0.12,1.749-0.869,2.138-2.258l1.18-4.278c0.21-0.784,0.532-1.433,0.97-1.943c0.442-0.511,0.917-0.797,1.417-0.859
			c0.652-0.074,1.013,0.212,1.094,0.849c0.02,0.17,0,0.356-0.055,0.563l-1.001,3.55c-0.19,0.691-0.261,1.233-0.216,1.614
			c0.063,0.566,0.319,1.001,0.769,1.297c0.441,0.297,0.989,0.409,1.645,0.333l2.957-0.349L89.416,118.396z"/>
		<path fill="#2D130A" d="M111.461,115.828c-0.122,0.002-0.222-0.014-0.356,0.002l-1.764,0.207l1.124-4.094
			c0.159-0.562,0.202-1.087,0.148-1.597c-0.093-0.792-0.492-1.428-1.191-1.906c-0.701-0.474-1.528-0.652-2.474-0.541
			c-1.381,0.158-2.557,0.884-3.528,2.165c-0.791-1.072-1.856-1.541-3.177-1.385c-0.614,0.071-1.114,0.227-1.51,0.464
			c-0.404,0.236-0.902,0.678-1.505,1.329c-0.302-0.785-0.884-1.122-1.741-1.024c-0.826,0.093-1.391,0.676-1.686,1.743l-2.096,7.593
			l-0.122,0.417c-0.1,0.398-0.137,0.739-0.098,1.038c0.038,0.368,0.227,0.675,0.547,0.896c0.32,0.231,0.689,0.32,1.088,0.269
			c1.026-0.117,1.734-0.875,2.125-2.268l1.228-4.449c0.45-1.612,1.198-2.48,2.263-2.603c0.271-0.037,0.51,0.02,0.726,0.163
			c0.217,0.138,0.335,0.316,0.366,0.531c0.02,0.208-0.021,0.504-0.124,0.889l-1.19,4.323l-0.113,0.416
			c-0.106,0.403-0.142,0.748-0.106,1.036c0.04,0.365,0.22,0.664,0.537,0.896c0.318,0.229,0.683,0.326,1.085,0.275
			c1.034-0.122,1.75-0.875,2.135-2.262l1.179-4.274c0.205-0.789,0.533-1.436,0.973-1.946c0.438-0.511,0.911-0.8,1.419-0.855
			c0.649-0.078,1.012,0.203,1.086,0.844c0.021,0.175,0.004,0.364-0.052,0.566l-0.995,3.551c-0.195,0.694-0.265,1.233-0.219,1.612
			c0.067,0.562,0.32,0.992,0.764,1.293c0.442,0.3,0.996,0.41,1.648,0.332l3.007-0.352c0.004-0.002,0.004-0.002,0.009-0.002
			L111.461,115.828z"/>
		<path fill="#2D130A" d="M53.805,127.145l-2.186,0.259l0.77-3.189c0.069-0.394,0.296-1.268,0.441-2.157
			c0.109-0.474,0.162-0.809,0.176-1.039c0.012-0.053,0.017-0.087,0.017-0.087l-0.009-0.005c0.003-0.096,0.002-0.17-0.007-0.227
			c-0.066-0.546-0.292-0.948-0.692-1.247c-0.43-0.301-0.932-0.414-1.536-0.346c-0.563,0.063-1.262,0.41-2.08,1.018l-1.049,0.785
			c-1.033,0.76-2.09,1.206-3.149,1.329c-1.694,0.203-2.979-0.314-3.688-1.467c-1.54-2.502,0.16-7.017,0.36-7.526l0.038-0.071
			c0.926-1.693,1.998-3.088,3.193-4.144c1.233-1.103,2.49-1.731,3.722-1.881c0.883-0.098,1.646,0.063,2.276,0.47
			c0.672,0.425,1.085,1.058,1.173,1.829c0.166,1.423-0.167,1.881-0.886,2.698c-0.429,0.498-1.05,1.48-0.324,2.435
			c0.392,0.517,0.828,0.794,1.285,0.836c0.714,0.066,1.586-0.443,2.338-1.361c1.233-1.521,1.741-3.271,1.519-5.192
			c-0.212-1.832-0.987-3.21-2.355-4.219c-0.924-0.684-2.006-1.086-3.211-1.197c-0.575-0.055-1.19-0.041-1.833,0.03
			c-2.463,0.288-4.742,1.403-6.774,3.305c-3.49,3.272-5.435,7.873-5.337,12.631c0.259,2.217,1.093,4.001,2.47,5.23
			c1.367,1.228,2.995,1.71,4.98,1.479c1.026-0.117,2.032-0.424,2.992-0.912l0.202-0.102l1.482-0.619
			c0.243,0.046,0.209,0.248,0.114,0.477c-0.102,0.269-0.761,2.923-0.761,2.923l-2.353,0.303c-2.948,0.347-5.209,1.082-6.788,2.223
			c-2.581,1.879-3.704,4.258-3.369,7.137c0.212,1.831,1.008,3.282,2.383,4.354c1.366,1.073,2.97,1.509,4.806,1.295
			c1.94-0.231,3.495-1.039,4.65-2.431c1.16-1.392,2.157-3.663,3.001-6.807l0.779-2.851l2.963-0.35
			c0.292-0.028,0.556-0.094,0.81-0.17l0.5-3.44C54.56,127.106,54.217,127.103,53.805,127.145z M45.844,133.813
			c-0.514,1.865-1.085,3.243-1.718,4.123c-0.635,0.888-1.392,1.38-2.295,1.488c-0.743,0.087-1.393-0.104-1.961-0.582
			c-0.574-0.475-0.902-1.093-0.992-1.865c-0.096-0.826,0.108-1.623,0.62-2.374c0.514-0.75,1.261-1.377,2.245-1.857
			c1.056-0.526,2.625-0.909,4.709-1.155L45.844,133.813z"/>
		<path fill="#2D130A" d="M116.602,131.99c-0.091,0-0.18,0.008-0.277,0.015l-2.232,0.272c-0.565,0.065-0.868-0.064-0.905-0.393
			l1.504-0.184c0.604-0.071,1.046-0.209,1.335-0.409c0.513-0.354,0.736-0.826,0.663-1.419c-0.055-0.491-0.304-0.87-0.738-1.121
			c-0.44-0.253-0.979-0.34-1.635-0.261c-0.9,0.106-1.646,0.51-2.22,1.203c-0.577,0.698-0.819,1.467-0.718,2.319
			c0.082,0.663,0.35,1.135,0.799,1.429c0.458,0.3,1.082,0.396,1.872,0.3l2.123-0.255c0.063-0.006,0.107-0.024,0.166-0.033
			L116.602,131.99z M114.408,129.846c0.336-0.039,0.524,0.057,0.563,0.285c0.039,0.209-0.206,0.34-0.742,0.408l-0.823,0.098
			C113.615,130.163,113.95,129.902,114.408,129.846z"/>
		<path fill="#2D130A" d="M95.499,130.755c0.726-0.088,1.349,0.041,1.864,0.393c0.517,0.351,0.813,0.837,0.885,1.463
			c0.057,0.473-0.003,0.955-0.196,1.447c-0.188,0.492-0.46,0.904-0.819,1.23c-0.239,0.211-0.49,0.367-0.759,0.469
			c-0.272,0.105-0.658,0.184-1.154,0.242c-0.817,0.097-1.377,0.079-1.688-0.059c-0.715-0.321-1.124-0.879-1.222-1.672
			c-0.092-0.838,0.157-1.605,0.772-2.298C93.787,131.271,94.563,130.865,95.499,130.755z M95.487,132.181
			c-0.367,0.051-0.688,0.248-0.954,0.607c-0.271,0.359-0.376,0.731-0.326,1.118c0.056,0.51,0.414,0.728,1.065,0.654
			c0.384-0.048,0.665-0.186,0.839-0.419c0.302-0.385,0.425-0.791,0.376-1.229c-0.03-0.249-0.142-0.44-0.321-0.575
			C95.979,132.2,95.754,132.148,95.487,132.181z"/>
		<path fill="#2D130A" d="M91.305,135.028c-0.022-0.002-0.039-0.002-0.064,0l-1.416,0.169c-0.522,0.063-0.902,0.044-1.133-0.059
			c-0.234-0.105-0.369-0.309-0.407-0.626c-0.043-0.371,0.05-0.729,0.276-1.063c0.236-0.34,0.513-0.524,0.838-0.563
			c0.346-0.045,0.54,0.091,0.572,0.397c0.012,0.047,0.012,0.09,0.012,0.14c0.008,0.039,0.012,0.091,0.018,0.148
			c0.048,0.374,0.297,0.537,0.76,0.483c0.288-0.036,0.516-0.167,0.673-0.404c0.162-0.228,0.216-0.509,0.182-0.831
			c-0.057-0.464-0.286-0.823-0.694-1.069c-0.403-0.249-0.903-0.334-1.493-0.264c-0.872,0.104-1.592,0.504-2.162,1.185
			c-0.568,0.687-0.808,1.443-0.713,2.263c0.078,0.615,0.336,1.094,0.772,1.434c0.437,0.344,0.976,0.476,1.601,0.399l2.121-0.262
			L91.305,135.028z"/>
		<path fill="#2D130A" d="M122.341,132.736l0.256-1.435l0.006-0.039c-0.058,0.002-0.109,0.002-0.169,0.01l-2.23,0.269
			c-0.565,0.069-0.865-0.065-0.903-0.393l1.502-0.18c0.604-0.078,1.051-0.214,1.333-0.411c0.228-0.158,0.399-0.337,0.509-0.54
			l0.144-0.398c0.029-0.153,0.039-0.313,0.02-0.481c-0.064-0.494-0.313-0.87-0.743-1.119c-0.438-0.255-0.978-0.343-1.638-0.267
			c-0.892,0.105-1.636,0.513-2.213,1.206c-0.581,0.696-0.818,1.469-0.717,2.32c0.082,0.654,0.345,1.138,0.801,1.431
			c0.451,0.295,1.074,0.393,1.864,0.295l2.126-0.253C122.303,132.746,122.323,132.744,122.341,132.736z M120.52,129.11
			c0.33-0.044,0.52,0.056,0.557,0.288c0.044,0.204-0.204,0.337-0.742,0.401l-0.822,0.103
			C119.723,129.428,120.058,129.163,120.52,129.11z"/>
		<path fill="#2D130A" d="M105.947,126.155c-0.044-0.383-0.388-0.538-1.028-0.463l-0.858,0.103c-0.746,0.091-1.332,0.309-1.74,0.649
			c-0.416,0.341-0.737,0.876-0.973,1.607l-0.683,2.147l-1.586,0.095l-0.247,1.504l1.318-0.048l-2.382,7.356
			c-0.092,0.312-0.126,0.524-0.118,0.648c0.023,0.18,0.111,0.319,0.282,0.421c0.163,0.1,0.357,0.133,0.575,0.112
			c0.5-0.064,0.856-0.411,1.062-1.045l2.492-7.724l1.921-0.105l0.265-1.477l-0.004-0.016l-1.699,0.08l0.525-1.607
			c0.121-0.375,0.296-0.656,0.521-0.831c0.222-0.184,0.546-0.292,0.961-0.347l0.23-0.025c0.398-0.049,0.702-0.163,0.91-0.344
			C105.894,126.661,105.986,126.438,105.947,126.155z"/>
		<path fill="#2D130A" d="M112.742,125.339c-0.049-0.385-0.389-0.543-1.031-0.464l-0.855,0.099
			c-0.746,0.096-1.332,0.312-1.744,0.652c-0.414,0.343-0.74,0.877-0.972,1.604l-0.705,2.183l-1.514,0.125l-0.248,1.484l1.269-0.09
			l-2.382,7.356c-0.088,0.308-0.13,0.525-0.111,0.654c0.019,0.179,0.111,0.314,0.27,0.415c0.171,0.102,0.362,0.136,0.588,0.11
			c0.498-0.058,0.853-0.409,1.06-1.046l2.482-7.719l1.934-0.146l0.233-1.46l-1.672,0.087l0.522-1.608
			c0.118-0.374,0.293-0.653,0.52-0.83c0.227-0.18,0.547-0.294,0.966-0.348l0.226-0.023c0.398-0.048,0.707-0.164,0.913-0.347
			C112.687,125.85,112.772,125.619,112.742,125.339z"/>
		<path fill="#2D130A" d="M125.334,117.417l0.5-3.272l-2.196,0.221l1.519-5.524l0.118-0.418c0.107-0.402,0.149-0.742,0.115-1.018
			c-0.044-0.406-0.231-0.73-0.557-0.968c-0.321-0.242-0.7-0.341-1.135-0.288c-0.799,0.092-1.4,0.536-1.813,1.333
			c-0.679-0.811-1.656-1.145-2.917-0.993c-1.646,0.194-3.037,1.112-4.17,2.763c-1.137,1.649-1.588,3.417-1.366,5.313
			c0.145,1.252,0.598,2.226,1.356,2.923c0.752,0.694,1.675,0.985,2.76,0.854l1.69-0.193c0.687-0.082,1.368-0.497,2.029-1.25
			c0.379,0.63,0.997,0.891,1.846,0.793L125.334,117.417z M120.876,111.158l-0.732,2.687c-0.192,0.689-0.688,1.082-1.499,1.175
			l-0.371,0.044c-0.819,0.096-1.287-0.362-1.404-1.376c-0.107-0.898,0.131-1.809,0.715-2.726c0.581-0.924,1.233-1.419,1.95-1.503
			c0.37-0.047,0.693,0.018,0.974,0.182c0.288,0.172,0.448,0.385,0.477,0.652C121.012,110.517,120.974,110.813,120.876,111.158z"/>
	</g>
</g>
</svg>
