<?xml version="1.0" encoding="utf-8"?>
<!-- Generator: Adobe Illustrator 16.0.0, SVG Export Plug-In . SVG Version: 6.00 Build 0)  -->
<!DOCTYPE svg PUBLIC "-//W3C//DTD SVG 1.1//EN" "http://www.w3.org/Graphics/SVG/1.1/DTD/svg11.dtd" [
	<!ENTITY ns_extend "http://ns.adobe.com/Extensibility/1.0/">
	<!ENTITY ns_ai "http://ns.adobe.com/AdobeIllustrator/10.0/">
	<!ENTITY ns_graphs "http://ns.adobe.com/Graphs/1.0/">
	<!ENTITY ns_vars "http://ns.adobe.com/Variables/1.0/">
	<!ENTITY ns_imrep "http://ns.adobe.com/ImageReplacement/1.0/">
	<!ENTITY ns_sfw "http://ns.adobe.com/SaveForWeb/1.0/">
	<!ENTITY ns_custom "http://ns.adobe.com/GenericCustomNamespace/1.0/">
	<!ENTITY ns_adobe_xpath "http://ns.adobe.com/XPath/1.0/">
]>
<svg version="1.1" id="圖層_1" xmlns:x="&ns_extend;" xmlns:i="&ns_ai;" xmlns:graph="&ns_graphs;"
	 xmlns="http://www.w3.org/2000/svg" xmlns:xlink="http://www.w3.org/1999/xlink" x="0px" y="0px" width="302.144px"
	 height="271.241px" viewBox="0 90.241 302.144 271.241" enable-background="new 0 90.241 302.144 271.241" xml:space="preserve">
<metadata>
	<sfw  xmlns="&ns_sfw;">
		<slices></slices>
		<sliceSourceBounds  width="270.145" height="247.12" x="112.248" y="251.819" bottomLeftOrigin="true"></sliceSourceBounds>
	</sfw>
</metadata>
<g>
	<path fill="#E9CF4F" d="M93.531,279.979l9.51-8.43l17.195,9.513l18.658,16.463C138.893,297.524,100.484,299.751,93.531,279.979z"/>
	<path fill="#10000C" d="M75.106,232.724c0,0,5.603-5.379,12.916-5.325c3.57,0.025,6.431,5.012,11.407,5.472
		c13.83,1.283,32.656,4.783,54.09,13.48l14.769-8.708c0,0-18.826-30.474-19.202-30.878s-49.78-24.211-49.78-24.211l-43.311,21.015
		l18.257,29.185"/>
	<path fill="#10000C" d="M41.193,222.047c0,0-4.388-4.19,3.23-1.143c2.961,1.185,5.523-2.096,10.577,0.257
		c7.162,3.335,16.867,12.217,18.557,11.431c8.965-4.177,3.012-23.473,4.833-23.047c3.03,0.708-19.623-14.706-19.623-14.706
		l-42.684-2.064L41.193,222.047z"/>
	<path fill="#E9CF4F" d="M150.806,257.462l10.269,10.625l19.055,10.504l1.5,0.352l3.799-1.372c0,0,3.299,2.125,1,2.493
		c-2.3,0.365-2.3,0.365-2.3,0.365l7.611,1.779c0,0,2.095,2.704-2.034,1.422c-4.129-1.28-4.129-1.28-4.129-1.28
		s4.956,1.475,5.112,4.358c0,0-3.225,1.1-6.893-3.509c0,0,2.643,3.815,1.924,5.546c0,0-2.396,1.891-3.245-3.956
		c0,0,0.01,5.38-1.701,5.928c0,0-3.669-0.539,0.623-8.077c0,0-21.235-10.656-22.894-11.675c-1.66-1.021-11.007-10.662-11.007-10.662
		L150.806,257.462z"/>
	<polygon fill="#E9CF4F" points="53.058,334.005 50.214,338.66 49.233,340.858 44.934,339.031 50.785,331.816 	"/>
	<polygon fill="#E9CF4F" points="187.22,331.66 193.519,336.425 190.713,338.855 185.365,334.578 	"/>
	<path fill="#E9CF4F" d="M106.397,245.194c0,0-17.447-1.105-18.944-0.44c-1.496,0.664-14.82-3.938-19.164,0.32
		c0,0,0.412,2.259,0.297,3.269c0,0-0.869,3.422-2.455-1.58c0,0-2.235,4.714-4.534,4.136c-2.3-0.574,0.761-3.669,2.564-5.223
		c0,0-4.746,3.637-6.905,2.429c-2.159-1.21,3.178-4.106,5.536-4.035c0,0-5.375,0.882-7.722-0.449s3.652-2.354,7.143-1.553
		c0,0-5.485-2.266-7.301-2.349c-1.814-0.085,1.977-3.068,9.066,1.678c0,0,10.677-2.895,19.792-0.463c0,0,0.683-0.646,1.708-0.166
		c1.025,0.479,18.93-1.198,18.93-1.198L106.397,245.194z"/>
	<path fill="#E9CF4F" d="M182.899,166.493c0,0,15.536,18.928,3.911,41.855c-11.622,22.925-19.612,29.995-46.098,22.773
		c-26.486-7.221-39.999-24.815-39.563-26.753c0.435-1.938-16.684-61.872,32.087-74.058
		C182.007,118.124,182.899,166.493,182.899,166.493z"/>
	<path fill="none" stroke="#000000" stroke-width="2" stroke-miterlimit="2" d="M152.486,198.889
		c0.945,2.169,3.484,1.568,3.484,1.568c1.856,0.136,3.431-1.424,2.54-4.093c-0.895-2.671-3.194-1.438-3.948-2.476
		c-0.755-1.038-0.648-3.605-0.648-3.605"/>
	<path fill="#E9CF4F" d="M134.428,229.107c0,0-1.761,1.91-0.282,6.63c1.481,4.719-9.399-2.234-9.399-2.235
		c1.245-1.096,2.547-1.902,3.388-3.367c0.594-1.035,1.08-2.149,1.612-3.218"/>
	<path fill="#10000C" d="M162.861,161.471c0,0-3.218-9.175-10.55-10.256l9.571-13.263l11.503,11.543L162.861,161.471z"/>
	<path fill="#10000C" d="M139.608,155.523c0,0,2.082-14.87-5.25-15.95l9.572-13.263l11.502,11.542L139.608,155.523z"/>
	<path fill="#330004" d="M186.411,177.014c0.053-2.259-1.204-4.666-1.256-7.117c0,0-2.092-1.553-7.563-3.664
		c-1.821-0.703-4.77-1.694-8.274-2.795c-2.006-0.63-4.193-1.298-6.458-1.967c-4.108-1.216,7.243-29.048-12.448-3.481
		c-2.728,3.539-8.195-2.036-10.805-2.468c-2.883-0.477,10.8-23.065,7.636-23.205c-2.139-0.094-31.717,31.282-33.843,53.53
		c-2.125,22.247,1.443,18.16-2.383,30.361c0,0-1.36,14.486-11.563,16.403c-0.213,0.04-0.428,0.075-0.648,0.104
		c0,0-23.153-29.091-23.948-22.563c0,0,4.567,23.837-1.302,22.438c-1.593-0.379-15.085-30.399-22.77-32.659
		c-4.935-1.449-3.314,25.589-8.359,22.964c-5.316-2.764-14.122-20.454-17.423-24.875c-2.623-3.512-8.813-0.481-8.922-5.247
		c-0.168-7.368,39.906-3.102,43.852-14.39c0,0,6.417-13.509,16.44-34.321c7.35-15.268,15.407-31.973,41.523-37.863
		c0,0,49.198-18.398,79.215,24.719c30.019,43.116,4.203,81.478,1.777,87.809c-2.428,6.328-2.651,16.714-21.214,33.938
		c0,0-3.875,0.954-17.986-6.1c-5.828-2.914-6.353,8.771-10.313-1.738c0,0-9.063-0.12-7.031-3.186
		C144.298,238.693,185.054,235.015,186.411,177.014z"/>
	<path fill="#8F716D" d="M42.604,337.628l-0.386,0.479l-2.971,3.664c0,0,10.514,6.887,11.132,7.511
		c0.618,0.626,4.767-1.007,5.598-1.83c0.832-0.822-3.693-5.4-3.693-5.4l-4.337-1.474l-3.297-2.503L42.604,337.628z"/>
	<path fill="#8F716D" d="M196.31,332.255l4.62-6.938c0,0,4.128,1.363,4.834,2.043c0.708,0.681,1.65,6.781,1.65,6.781l-8.439,8.794
		c0,0-5.575,4.394-6.298,3.376c-0.722-1.018-3.758-4.581-3.758-4.581l1.702-2.912C190.621,338.816,195.275,335.812,196.31,332.255z"
		/>
	<path fill="#FFFFFF" stroke="#000000" stroke-miterlimit="2" d="M175.035,180.88c-0.401,1.745-2.632,2.722-4.985,2.184
		c-2.354-0.537-3.94-2.387-3.542-4.13c0.398-1.745,2.632-2.722,4.983-2.186C173.846,177.286,175.433,179.137,175.035,180.88z"/>
	<path fill="none" stroke="#000000" stroke-miterlimit="2" d="M175.035,180.88c0,0-4.337-4.945-8.527-1.947"/>
	<ellipse transform="matrix(0.1944 0.9809 -0.9809 0.1944 315.7053 -23.1258)" cx="171.932" cy="180.648" rx="2.388" ry="2.475"/>
	<g>
		<path fill="#FFFFFF" stroke="#000000" stroke-miterlimit="2" d="M148.419,173.835c-0.577,2.517-3.796,3.926-7.192,3.152
			c-3.396-0.777-5.684-3.445-5.11-5.962c0.575-2.516,3.796-3.926,7.19-3.151C146.704,168.65,148.993,171.319,148.419,173.835z"/>
		<path fill="none" stroke="#000000" stroke-miterlimit="2" d="M148.314,171.94c-4.388-2.626-12.016-1.118-12.016-1.118"/>
	</g>
	<path stroke="#000000" d="M142.772,173.655c0.132,1.174,1.344,2.001,2.703,1.847c1.363-0.153,2.358-1.23,2.225-2.406
		c-0.134-1.175-1.344-2.001-2.705-1.849C143.634,171.402,142.639,172.478,142.772,173.655z"/>
	<g>
		<path fill="#FFFFFF" d="M142.427,241.566c-2.299-2.456-4.935-4.519-7.911-5.922c-3.646,2.449-7.057,0.976-9.381-2.219
			c-6.776,0.608-13.436,2.637-20.087,3.961c-3.353,0.668-3.514,0.058-4.324,3.455c-0.703,2.951-0.437,6.805-0.213,9.846
			c2.193,0.512,4.387,1.023,6.58,1.536c-1.263,4.313-4.602,8.156-6.503,12.234c-1.444,3.099-2.603,6.326-4.183,9.36
			c-0.546,1.048-3.603,4.762-3.203,5.986c1.056,3.234,11.51-0.715,14.157-0.43c6.877,0.742,12.408,10.592,17.912,14.354
			c3.09,2.113,11.856,3.816,13.236,5.094c-0.518-7.092,7.041-36.331,8.801-36.053c2.614,0.412,2.2-4.064,4.48-5.114
			C149.816,252.076,146.704,246.139,142.427,241.566z"/>
		<path fill="#837967" d="M138.01,299.359c-0.515-0.477-2.931-1.221-5.063-1.876c-2.969-0.914-6.333-1.95-8.09-3.151
			c-2.074-1.417-4.085-3.6-6.214-5.909c-3.572-3.873-7.264-7.878-11.363-8.32c-0.788-0.082-2.513,0.292-4.349,0.685
			c-2.258,0.482-4.818,1.029-6.804,1.029c-2.016,0-3.234-0.6-3.622-1.784c-0.373-1.144,0.758-2.902,2.397-5.261
			c0.372-0.535,0.724-1.043,0.853-1.291c0.929-1.783,1.73-3.682,2.503-5.516c0.53-1.255,1.077-2.554,1.666-3.815
			c0.78-1.674,1.804-3.319,2.793-4.912c1.303-2.095,2.646-4.255,3.432-6.481l-6.329-1.477l-0.039-0.537
			c-0.215-2.936-0.511-6.957,0.23-10.069c0.738-3.092,1.168-3.378,3.515-3.759c0.386-0.062,0.84-0.136,1.377-0.243
			c2.16-0.43,4.363-0.944,6.495-1.443c4.451-1.04,9.054-2.114,13.67-2.529l0.413-0.037l0.244,0.335
			c1.474,2.026,3.295,3.142,5.126,3.142c1.072,0,2.167-0.37,3.254-1.101l0.344-0.23l0.375,0.177
			c2.896,1.365,5.633,3.412,8.133,6.085c4.968,5.311,7.917,11.819,9.516,16.344l0.223,0.629l-0.606,0.279
			c-0.762,0.351-1.183,1.366-1.588,2.347c-0.555,1.341-1.184,2.86-2.871,2.86l0,0c-0.055,0-0.111-0.001-0.169-0.005
			c-1.822,2.335-8.724,28.447-8.227,35.247L138.01,299.359z M107.049,278.628c0.142,0,0.271,0.007,0.388,0.02
			c4.645,0.501,8.527,4.711,12.282,8.783c2.072,2.247,4.028,4.37,5.965,5.693c1.573,1.075,4.825,2.077,7.694,2.96
			c1.921,0.592,3.384,1.051,4.38,1.479c0.241-8.537,6.479-32.722,8.719-35.131c0.245-0.264,0.516-0.397,0.806-0.397l0.14,0.012
			c0.074,0.012,0.144,0.017,0.211,0.017l0,0c0.64,0,0.969-0.626,1.519-1.957c0.409-0.986,0.862-2.083,1.746-2.763
			c-1.593-4.358-4.409-10.363-9.006-15.276c-2.268-2.425-4.428-5.087-7.023-6.371c-1.219,0.743-2.769,1.904-4.015,1.904
			c-2.202,0-4.39-1.898-6.106-4.1c-4.381,0.43-8.744,2.152-13.015,3.15c-2.143,0.501-4.359,1.018-6.542,1.453
			c-0.557,0.11-1.028,0.188-1.43,0.252c-1.76,0.285-1.76,0.285-2.325,2.653c-0.646,2.714-0.435,6.308-0.234,9.086l6.809,1.59
			l-0.217,0.742c-0.785,2.68-2.333,5.171-3.832,7.58c-0.967,1.556-1.967,3.164-2.71,4.758c-0.577,1.237-1.119,2.522-1.643,3.766
			c-0.786,1.861-1.597,3.786-2.555,5.623c-0.171,0.331-0.515,0.824-0.949,1.449c-0.638,0.917-2.329,3.353-2.205,3.979
			c0.207,0.633,1.326,0.768,2.228,0.768c1.831,0,4.311-0.529,6.498-0.996C104.453,278.966,106.031,278.628,107.049,278.628z"/>
	</g>
	<path fill="#17264E" d="M84.27,307.109c0.378-0.065,0.757-0.123,1.135-0.171c18.532-2.396-7.147-7.299,7.757-26.12
		c0.851,0.251,1.398,0.541,2.561,0.731c4.944,0.81,12.381,1.124,14.146,2.195c2.822,1.712,10.31,6.314,17.282,10.893
		c4.149,2.725,13.952-1.706,19.063-2.562c5.787-0.969,14.049-3.18,19.786-1.024c0,0,14.53,23.002,19.01,32.271
		s5.982,8.253,5.982,8.253l-5.599,6.372c0,0-27.09-26.234-26.09-29.163c0,0-29.887,14.8-44.209,0.12c0,0-2.154-1.252-5.118,0.386
		c-8.788,4.854-26.327,16.649-28.934,15.067c-3.486-2.12-27.313,6.523-29.612,12.313l-4.553-2.879
		C46.878,333.79,65.714,310.347,84.27,307.109z"/>
	<path opacity="0.58" fill="none" stroke="#10000C" stroke-width="3" enable-background="new    " d="M75.638,210.679
		c0,0,16.726,5.879,16.703-12.789c-0.023-18.668,36.072-70.505,40.474-68.917"/>
	<path opacity="0.42" fill="none" stroke="#10000C" stroke-width="3" enable-background="new    " d="M50.787,199.933
		c0,0,12.555,9.892,18.458-4.544c5.904-14.437,38.539-89.372,66.869-80.539"/>
	<path fill="none" stroke="#000000" stroke-width="2" stroke-miterlimit="2" d="M151.838,209.326
		c4.631-3.043,4.422,8.034-1.297,3.423c0.432,0.35,1.331,0.087,1.948,0.705c0.982,0.983,1.537,3.301-0.009,4.113
		c-1.928,1.013-4.236-2.153-4.878-3.553"/>
	<path fill="none" stroke="#000000" stroke-width="2" stroke-miterlimit="2" d="M148.536,195.883"/>
	<g>
		<polygon fill="#DAE000" stroke="#00913A" points="253.817,217.423 252.872,213.441 250.913,217.943 		"/>
		<path fill="#0E6836" stroke="#DAE000" d="M206.699,248.906c-2.996,5.14-10.205,17.448-14.255,22.11l-17.771,12.967l3.665,5.521
			l20.249-7.727c0,0,79.133-0.078,86.549-36.818C291.839,211.752,234.862,200.603,206.699,248.906z"/>
		<polyline fill="#DAE000" stroke="#00913A" points="231.951,229.679 231.241,218.189 235.755,225.862 		"/>
		<polygon fill="#DAE000" stroke="#00913A" points="263.537,221.055 270.644,215.105 267.103,223.795 		"/>
		<polygon fill="#DAE000" stroke="#00913A" points="255.741,226.943 256.04,219.697 251.49,224.141 		"/>
		<polygon fill="#DAE000" stroke="#00913A" points="286.064,240.368 278.443,240.385 279.634,242.568 		"/>
		<polygon fill="#DAE000" stroke="#00913A" points="276.792,227.772 279.296,230.764 284.968,225.38 		"/>
		<polygon fill="#DAE000" stroke="#00913A" points="250.945,237.259 254.81,237.796 255.402,229.998 		"/>
		<polygon fill="#DAE000" stroke="#00913A" points="268.793,233.878 270.24,238.536 275.397,235.401 		"/>
		<polygon fill="#DAE000" stroke="#00913A" points="232.932,271.016 228.655,268.672 227.123,274.508 		"/>
		<polygon fill="#DAE000" stroke="#00913A" points="255.224,252.534 251.118,255.168 255.511,259.304 		"/>
		<polygon fill="#DAE000" stroke="#00913A" points="224.751,253.616 223.618,248.871 218.264,251.654 		"/>
		<polygon fill="#DAE000" stroke="#00913A" points="241.345,255.03 237.318,252.278 235.222,257.936 		"/>
		<polygon fill="#DAE000" stroke="#00913A" points="264.563,262.552 261.542,265.987 269.3,270.979 		"/>
		<polygon fill="#DAE000" stroke="#00913A" points="251.366,269.927 245.862,270.584 248.242,276.502 		"/>
		<polygon fill="#DAE000" stroke="#00913A" points="236.631,241.697 239.073,239.841 233.937,234.609 		"/>
		<polygon fill="#DAE000" stroke="#00913A" points="217.563,240.746 219.501,236.269 212.415,234.802 		"/>
		<polygon fill="#DAE000" stroke="#00913A" points="262.211,244.089 261.436,247.063 268.478,247.946 		"/>
		<polygon fill="#DAE000" stroke="#00913A" points="278.72,252.874 277.46,255.36 283.365,256.143 		"/>
	</g>
	<path fill="#E9CF4F" d="M179.566,288.964c-0.052-1.692,1.063-2.762,2.254-1.195C183.737,290.288,179.643,291.485,179.566,288.964z"
		/>
	<path fill="#E9CF4F" d="M183.468,287.257c-0.052-1.693,1.063-2.762,2.254-1.196C187.638,288.58,183.545,289.778,183.468,287.257z"
		/>
	<path fill="#E9CF4F" d="M182.492,279.104c-0.052-2.538,1.063-4.142,2.254-1.792C186.663,281.091,182.57,282.886,182.492,279.104z"
		/>
	<path fill="#E9CF4F" d="M187.185,285.818c0,0-0.731-2.439,0.731-1.708c1.464,0.731,2.195,1.708,2.195,1.708
		S188.405,286.305,187.185,285.818z"/>
	<g>
		<g>
			<path fill="#FFFFFF" d="M129.132,258.136c0,0,7.889-0.541,8.388,7.128c0.498,7.669-13.48,7.607-14.91,7.207
				c-1.431-0.399-8.333-2.621-8.333-4.42C114.277,266.249,123.512,258.196,129.132,258.136z"/>
			<path fill="#837967" d="M114.561,268.999c-0.274-0.298-0.407-0.579-0.407-0.858c0-0.294,0.179-0.7,0.53-1.204
				c1.067-1.531,3.544-3.757,6.164-5.537c1.87-1.271,5.438-3.409,8.347-3.438c0.037-0.003,4.138-0.251,6.603,2.439
				c1.097,1.196,1.718,2.8,1.845,4.763c0.087,1.337-0.253,2.542-1.008,3.577c-3.238,4.432-13.02,4.209-14.103,3.906
				C120.916,272.193,115.984,270.552,114.561,268.999z M135.595,260.718c-2.431-2.654-6.48-2.41-6.521-2.406
				c-4.655,0.05-12.244,5.894-14.269,8.799c-0.184,0.265-0.406,0.627-0.405,0.849c-0.001,0.148,0.063,0.393,0.364,0.725
				c1.407,1.534,6.315,3.165,7.924,3.616c1.027,0.285,10.756,0.468,13.834-3.745c0.66-0.904,0.956-1.978,0.877-3.189
				C137.275,263.451,136.667,261.886,135.595,260.718z"/>
		</g>
		<g>
			<path fill="#555052" d="M131.969,258.448c-0.054,0.025-0.185-0.572-0.207-0.629c-0.199-0.556-0.421-1.075-0.662-1.557
				c-0.36-0.716-0.763-1.356-1.218-1.884c-0.388-0.452-0.941-1.275-1.533-1.127c0.186-0.047-0.372,5.755-0.426,6.355
				c-0.003,0.049-0.065,0.92-0.122,0.96C127.802,260.566,131.969,258.448,131.969,258.448z"/>
			<path fill="#837967" d="M127.785,260.742l0.018-0.342c-0.046,0.031-0.074,0.094-0.083,0.121c0.005-0.021,0.04-0.163,0.091-0.823
				l0.002-0.036c0.006-0.058,0.016-0.166,0.029-0.313c0.455-4.888,0.459-5.822,0.422-5.942c0.002,0.006,0.013,0.022,0.034,0.026
				l0.046-0.155l0.039-0.209h0.001l0.01-0.003c0.077-0.017,0.153-0.021,0.231-0.011c0.444,0.058,0.847,0.55,1.169,0.945
				c0.062,0.076,0.121,0.146,0.176,0.211c0.435,0.506,0.848,1.145,1.229,1.9c0.242,0.481,0.467,1.011,0.667,1.566
				c0.006,0.017,0.019,0.065,0.036,0.134c0.026,0.104,0.105,0.421,0.139,0.462c0,0-0.006-0.009-0.021-0.009l-0.047,0.156l-0.019,0.2
				C131.918,258.64,127.827,260.72,127.785,260.742z M128.496,253.42c0.009,0.557-0.079,2.011-0.433,5.82
				c-0.014,0.146-0.023,0.253-0.028,0.31l-0.001,0.028c-0.027,0.342-0.049,0.575-0.074,0.742c0.63-0.321,3.076-1.565,3.813-1.939
				c-0.024-0.078-0.051-0.182-0.085-0.315c-0.013-0.054-0.023-0.095-0.029-0.109c-0.197-0.548-0.417-1.068-0.657-1.545
				c-0.374-0.742-0.781-1.37-1.208-1.867c-0.056-0.065-0.115-0.139-0.178-0.214C129.302,253.942,128.907,253.458,128.496,253.42z"/>
		</g>
		<g>
			<path fill="#555052" d="M137.176,267.581c-0.096,0.346-10.971-7.199-22.878,0.482c0,0-1.265-1.018,7.322-7.11
				c0,0,7.215-5.277,13.475-1.151C135.095,259.802,138.677,262.242,137.176,267.581z"/>
			<path fill="#837967" d="M114.188,268.217c-0.038-0.042-0.151-0.211-0.013-0.624c0.436-1.296,3.012-3.646,7.447-6.791
				c0.016-0.012,1.852-1.344,4.429-2.144c2.373-0.737,5.885-1.166,9.136,0.977c0.014,0.01,0.324,0.224,0.728,0.664
				c0.975,1.064,2.452,3.425,1.374,7.259l-0.026,0.093l-0.067,0.066c-0.095,0.093-0.118,0.085-0.807-0.248
				c-7.948-3.835-15.382-3.582-22.1,0.751l-0.054,0.035L114.188,268.217z M135.711,260.616c-0.395-0.431-0.705-0.645-0.709-0.646
				c-6.147-4.054-13.312,1.081-13.384,1.134c-5.988,4.249-7.049,5.943-7.228,6.478c-0.053,0.154-0.038,0.241-0.019,0.285
				c4.322-2.771,9.007-3.875,13.923-3.288c3.958,0.473,6.976,1.93,8.264,2.551c0.233,0.111,0.442,0.213,0.563,0.26
				C138.04,263.844,136.641,261.631,135.711,260.616z"/>
		</g>
		<g>
			<path fill="#555052" d="M114.802,266.764c0,0-0.5-7.242-1.664-6.802c-1.164,0.441-0.663,6.955-0.663,6.955
				s-3.16,5.989-2.905,6.131c0.254,0.141,4.732-5.013,4.732-5.013l0.146-0.64L114.802,266.764"/>
			<path fill="#837967" d="M109.462,273.203c-0.076-0.084-0.182-0.2,1.393-3.346c0.646-1.289,1.318-2.574,1.491-2.903
				c-0.058-0.803-0.358-5.405,0.42-6.76c0.117-0.205,0.257-0.344,0.406-0.4c0.157-0.06,0.301-0.015,0.438,0.137
				c0.908,0.99,1.297,6.5,1.313,6.731l0.005,0.074l-0.375,0.669l-0.154,0.679l-0.059,0.066c-0.011,0.014-1.134,1.306-2.274,2.564
				c-2.375,2.62-2.506,2.547-2.586,2.503L109.462,273.203z M113.406,260.246c-0.104-0.111-0.205-0.15-0.303-0.112
				c-0.07,0.025-0.126,0.082-0.182,0.178c-0.597,1.04-0.437,5.048-0.325,6.504l0.006,0.068l-0.042,0.082
				c-1.338,2.534-2.728,5.337-2.871,5.886c0.415-0.271,2.557-2.61,4.516-4.862l0.137-0.603l0.33-0.592
				C114.624,266.134,114.225,261.14,113.406,260.246z"/>
		</g>
		<g>
			<path fill="#555052" d="M124.29,261.672c0,0,5.686,1.43,4.655,3.892c-1.029,2.466-3.963,0.608-4.5-0.021
				C123.907,264.912,123.299,262.748,124.29,261.672z"/>
			<path fill="#837967" d="M129.133,265.389c-0.02,0.069-0.044,0.14-0.075,0.21c-0.258,0.619-0.648,1.032-1.16,1.229
				c-1.333,0.51-3.107-0.644-3.557-1.169c-0.464-0.545-0.927-2.071-0.595-3.225c0.097-0.338,0.253-0.626,0.467-0.858l0.063-0.068
				l0.07,0.016C124.57,261.583,129.838,262.937,129.133,265.389z M123.99,262.457c-0.299,1.042,0.137,2.477,0.558,2.972
				c0.372,0.435,2.083,1.6,3.33,1.12c0.423-0.164,0.736-0.496,0.954-1.016c0.024-0.056,0.043-0.112,0.06-0.168
				c0.59-2.051-3.956-3.36-4.586-3.531C124.165,262.007,124.059,262.216,123.99,262.457z"/>
		</g>
		<path fill="#837967" d="M135.3,269.993c-1.677-2.442-2.995-4.167-3.007-4.187l0.211-0.31c0.013,0.018,1.332,1.748,3.01,4.192
			L135.3,269.993z"/>
		<polygon fill="#837967" points="134.845,269.149 135.393,267.358 134.51,268.4 134.364,268.291 134.814,267.015 133.944,267.839 
			133.816,267.711 134.166,266.69 133.573,267.213 133.443,267.11 133.615,266.374 133.238,266.662 133.115,266.593 
			133.147,265.969 133.391,265.809 133.368,266.262 133.785,265.943 133.905,266.054 133.738,266.764 134.376,266.202 
			134.497,266.337 134.155,267.335 135.031,266.504 135.158,266.635 134.746,267.802 135.593,266.803 135.745,266.898 
			135.232,268.574 136.24,267.158 136.408,267.234 135.786,269.175 137.104,267.523 137.201,267.728 135.572,269.771 
			135.415,269.678 136.009,267.828 135.014,269.222 		"/>
		<g>
			<path fill="#555052" d="M120.68,265.233c-0.094,0.022-1.664,0.5-1.931,0.599c-0.266,0.099-0.869,0.745-1.352,1.918
				c-0.485,1.176,1.352,0.154,3.42-2.553"/>
			<path fill="#837967" d="M117.257,268.345c-0.091-0.102-0.077-0.32,0.04-0.609c0.54-1.307,1.199-1.967,1.489-2.075
				c0.26-0.095,1.829-0.573,1.94-0.601l-0.036,0.138c0.026-0.033,0.05-0.064,0.076-0.099l0.105,0.196
				c-1.603,2.096-3.217,3.35-3.589,3.071C117.272,268.361,117.264,268.353,117.257,268.345z M120.495,265.446
				c-0.412,0.124-1.562,0.475-1.779,0.556c-0.183,0.068-0.742,0.607-1.22,1.765c-0.091,0.222-0.046,0.256-0.026,0.27
				C117.685,268.196,118.924,267.416,120.495,265.446z"/>
		</g>
		<g>
			<path fill="#FFFFFF" d="M133.219,260.779c-0.364,0.603-1.268,1.381-1.063,2.057c0.113,0.148,1.484,1.8,3.188,0.488
				C134.791,262.793,133.632,261.253,133.219,260.779z"/>
			<path d="M134.508,262.023c-0.511,0.011-1.326,0.559-1.36,1.273c-0.037,0.717,0.46,0.82,0.972,0.812
				c0.514-0.014,1.224-0.785,1.224-0.785S135.022,262.013,134.508,262.023z"/>
			<path fill="#837967" d="M133.363,260.305c0,0-0.194-0.229-0.195-0.229c-0.054-0.062-0.64,0.854-0.699,0.945
				c-1.373,2.151,0.34,3.454,1.566,3.198c0.511-0.106,0.793-0.225,1.577-1.012C135.611,263.208,133.844,260.859,133.363,260.305z
				 M132.608,262.915c-0.204-0.676,0.248-1.533,0.612-2.136c0.412,0.474,1.485,2.033,2.041,2.564
				C133.557,264.654,132.721,263.062,132.608,262.915z"/>
		</g>
	</g>
</g>
</svg>
