<?xml version="1.0" encoding="utf-8"?>
<!-- Generator: Adobe Illustrator 16.0.0, SVG Export Plug-In . SVG Version: 6.00 Build 0)  -->
<!DOCTYPE svg PUBLIC "-//W3C//DTD SVG 1.1//EN" "http://www.w3.org/Graphics/SVG/1.1/DTD/svg11.dtd" [
	<!ENTITY ns_extend "http://ns.adobe.com/Extensibility/1.0/">
	<!ENTITY ns_ai "http://ns.adobe.com/AdobeIllustrator/10.0/">
	<!ENTITY ns_graphs "http://ns.adobe.com/Graphs/1.0/">
	<!ENTITY ns_vars "http://ns.adobe.com/Variables/1.0/">
	<!ENTITY ns_imrep "http://ns.adobe.com/ImageReplacement/1.0/">
	<!ENTITY ns_sfw "http://ns.adobe.com/SaveForWeb/1.0/">
	<!ENTITY ns_custom "http://ns.adobe.com/GenericCustomNamespace/1.0/">
	<!ENTITY ns_adobe_xpath "http://ns.adobe.com/XPath/1.0/">
]>
<svg version="1.1" id="圖層_1" xmlns:x="&ns_extend;" xmlns:i="&ns_ai;" xmlns:graph="&ns_graphs;"
	 xmlns="http://www.w3.org/2000/svg" xmlns:xlink="http://www.w3.org/1999/xlink" x="0px" y="0px" width="402.667px"
	 height="361.482px" viewBox="0 0 402.667 361.482" enable-background="new 0 0 402.667 361.482" xml:space="preserve">
<metadata>
	<sfw  xmlns="&ns_sfw;">
		<slices></slices>
		<sliceSourceBounds  width="594.24" height="397.272" y="-606.793" x="54.823" bottomLeftOrigin="true"></sliceSourceBounds>
	</sfw>
</metadata>
<path fill="#E9CF4F" d="M124.337,251.753l12.997-11.521l23.5,13l25.5,22.5C186.333,275.731,133.84,278.774,124.337,251.753z"/>
<path fill="#10000C" d="M99.156,187.171c0,0,7.657-7.352,17.652-7.279c4.88,0.035,8.789,6.85,15.59,7.479
	c18.901,1.753,44.631,6.536,73.924,18.423l20.185-11.902c0,0-25.729-41.647-26.244-42.2s-68.034-33.089-68.034-33.089
	l-59.193,28.721l24.953,39.886"/>
<path fill="#10000C" d="M52.807,172.577c0,0-5.996-5.728,4.415-1.562c4.048,1.62,7.549-2.864,14.456,0.352
	c9.788,4.557,23.052,16.696,25.361,15.621c12.252-5.708,4.117-32.079,6.606-31.498c4.141,0.969-26.819-20.098-26.819-20.098
	l-58.336-2.821L52.807,172.577z"/>
<path fill="#E9CF4F" d="M202.615,220.978l14.035,14.521l26.042,14.356l2.05,0.48l5.192-1.874c0,0,4.509,2.904,1.366,3.406
	c-3.143,0.5-3.143,0.5-3.143,0.5l10.403,2.432c0,0,2.862,3.695-2.78,1.943c-5.643-1.75-5.643-1.75-5.643-1.75
	s6.773,2.016,6.986,5.956c0,0-4.406,1.503-9.42-4.795c0,0,3.613,5.215,2.629,7.579c0,0-3.273,2.585-4.434-5.406
	c0,0,0.013,7.353-2.324,8.102c0,0-5.016-0.738,0.85-11.04c0,0-29.021-14.563-31.289-15.956
	c-2.269-1.395-15.043-14.571-15.043-14.571L202.615,220.978z"/>
<polygon fill="#E9CF4F" points="69.024,325.589 65.137,331.951 63.796,334.955 57.921,332.459 65.917,322.597 "/>
<polygon fill="#E9CF4F" points="252.381,322.385 260.99,328.896 257.156,332.218 249.846,326.373 "/>
<path fill="#E9CF4F" d="M141.921,204.212c0,0-23.845-1.51-25.89-0.602c-2.044,0.908-20.255-5.381-26.192,0.439
	c0,0,0.564,3.086,0.406,4.466c0,0-1.187,4.677-3.354-2.16c0,0-3.055,6.443-6.196,5.654c-3.143-0.786,1.04-5.015,3.504-7.139
	c0,0-6.486,4.971-9.436,3.319c-2.951-1.653,4.343-5.611,7.565-5.514c0,0-7.346,1.205-10.553-0.614s4.991-3.216,9.761-2.123
	c0,0-7.497-3.095-9.978-3.21c-2.48-0.115,2.702-4.192,12.39,2.294c0,0,14.593-3.956,27.05-0.633c0,0,0.933-0.883,2.334-0.226
	c1.402,0.654,25.871-1.639,25.871-1.639L141.921,204.212z"/>
<path fill="#E9CF4F" d="M246.476,96.652c0,0,21.232,25.87,5.346,57.203c-15.885,31.332-26.805,40.994-63.002,31.125
	c-36.199-9.869-54.666-33.915-54.071-36.563c0.594-2.649-22.801-84.56,43.853-101.215C245.257,30.546,246.476,96.652,246.476,96.652
	z"/>
<path fill="none" stroke="#000000" stroke-width="2" stroke-miterlimit="2" d="M204.91,140.928c1.291,2.964,4.762,2.143,4.762,2.143
	c2.537,0.186,4.689-1.945,3.471-5.593c-1.223-3.65-4.365-1.965-5.396-3.383c-1.031-1.418-0.885-4.927-0.885-4.927"/>
<path fill="#E9CF4F" d="M180.232,182.226c0,0-2.408,2.611-0.385,9.061c2.024,6.45-12.847-3.054-12.847-3.055
	c1.702-1.497,3.482-2.599,4.63-4.601c0.812-1.415,1.476-2.938,2.203-4.399"/>
<path fill="#10000C" d="M219.09,89.789c0,0-4.398-12.54-14.419-14.018l13.082-18.126l15.72,15.777L219.09,89.789z"/>
<path fill="#10000C" d="M187.311,81.659c0,0,2.845-20.323-7.175-21.799l13.082-18.126l15.72,15.776L187.311,81.659z"/>
<path fill="#330004" d="M251.277,111.031c0.072-3.087-1.646-6.377-1.717-9.727c0,0-2.859-2.122-10.336-5.006
	c-2.488-0.96-6.518-2.315-11.309-3.821c-2.74-0.861-5.73-1.773-8.825-2.688c-5.615-1.662,9.899-39.7-17.014-4.758
	c-3.727,4.837-11.2-2.782-14.766-3.372c-3.94-0.652,14.761-31.523,10.436-31.714c-2.923-0.129-43.347,42.753-46.253,73.16
	c-2.904,30.406,1.972,24.82-3.256,41.494c0,0-1.86,19.799-15.803,22.419c-0.291,0.055-0.585,0.103-0.887,0.142
	c0,0-31.642-39.759-32.729-30.836c0,0,6.241,32.577-1.78,30.666c-2.176-0.519-20.616-41.547-31.119-44.635
	c-6.745-1.98-4.529,34.972-11.425,31.384c-7.265-3.776-19.3-27.954-23.812-33.996c-3.585-4.8-12.045-0.658-12.194-7.171
	c-0.23-10.07,54.54-4.239,59.931-19.667c0,0,8.77-18.463,22.469-46.906c10.045-20.866,21.057-43.697,56.749-51.746
	c0,0,67.239-25.146,108.264,33.783c41.025,58.926,5.744,111.355,2.428,120.008c-3.318,8.649-3.623,22.843-28.992,46.383
	c0,0-5.297,1.303-24.582-8.336c-7.965-3.983-8.682,11.986-14.095-2.376c0,0-12.386-0.164-9.608-4.354
	C193.72,195.327,249.421,190.301,251.277,111.031z"/>
<path fill="#8F716D" d="M54.737,330.54l-0.529,0.655l-4.059,5.008c0,0,14.369,9.412,15.214,10.266
	c0.844,0.854,6.514-1.377,7.65-2.502c1.137-1.124-5.047-7.381-5.047-7.381l-5.927-2.014l-4.507-3.42L54.737,330.54z"/>
<path fill="#8F716D" d="M264.805,323.197l6.313-9.483c0,0,5.642,1.863,6.607,2.793c0.968,0.929,2.256,9.267,2.256,9.267
	l-11.534,12.019c0,0-7.62,6.005-8.607,4.614c-0.986-1.391-5.137-6.261-5.137-6.261l2.328-3.98
	C257.031,332.165,263.39,328.059,264.805,323.197z"/>
<path fill="#FFFFFF" stroke="#000000" stroke-miterlimit="2" d="M235.729,116.314c-0.548,2.385-3.597,3.721-6.814,2.986
	s-5.384-3.263-4.841-5.646c0.545-2.385,3.597-3.72,6.811-2.986C234.104,111.403,236.273,113.932,235.729,116.314z"/>
<path fill="none" stroke="#000000" stroke-miterlimit="2" d="M235.729,116.314c0,0-5.927-6.759-11.655-2.661"/>
<ellipse transform="matrix(-0.9809 0.1944 -0.1944 -0.9809 481.0997 184.7869)" cx="231.481" cy="116.005" rx="3.384" ry="3.264"/>
<g>
	<path fill="#FFFFFF" stroke="#000000" stroke-miterlimit="2" d="M199.353,106.685c-0.789,3.441-5.189,5.367-9.83,4.308
		c-4.642-1.062-7.768-4.708-6.984-8.148c0.786-3.439,5.188-5.367,9.826-4.307C197.009,99.599,200.137,103.247,199.353,106.685z"/>
	<path fill="none" stroke="#000000" stroke-miterlimit="2" d="M199.208,104.096c-5.997-3.588-16.422-1.528-16.422-1.528"/>
</g>
<path stroke="#000000" d="M191.635,106.439c0.181,1.605,1.837,2.735,3.694,2.525c1.863-0.209,3.223-1.682,3.041-3.288
	c-0.182-1.606-1.837-2.736-3.697-2.527C192.813,103.36,191.453,104.832,191.635,106.439z"/>
<g>
	<path fill="#FFFFFF" d="M191.163,199.255c-3.142-3.358-6.744-6.177-10.812-8.094c-4.983,3.348-9.645,1.333-12.82-3.032
		c-9.261,0.831-18.364,3.603-27.454,5.413c-4.583,0.913-4.802,0.078-5.909,4.721c-0.961,4.034-0.596,9.301-0.291,13.457
		c2.997,0.699,5.995,1.399,8.992,2.099c-1.725,5.894-6.29,11.148-8.887,16.721c-1.974,4.234-3.557,8.645-5.717,12.792
		c-0.746,1.432-4.924,6.508-4.377,8.182c1.443,4.42,15.73-0.977,19.348-0.587c9.399,1.014,16.958,14.475,24.48,19.617
		c4.223,2.887,16.204,5.216,18.09,6.961c-0.708-9.692,9.623-49.653,12.028-49.273c3.573,0.563,3.007-5.554,6.123-6.989
		C201.261,213.617,197.009,205.504,191.163,199.255z"/>
	<path fill="#837967" d="M185.126,278.239c-0.703-0.651-4.006-1.668-6.919-2.564c-4.058-1.249-8.656-2.665-11.056-4.306
		c-2.834-1.938-5.583-4.92-8.494-8.076c-4.881-5.294-9.927-10.768-15.529-11.372c-1.076-0.113-3.434,0.399-5.943,0.936
		c-3.086,0.659-6.585,1.406-9.299,1.406c-2.756,0-4.421-0.82-4.95-2.438c-0.51-1.563,1.036-3.967,3.275-7.19
		c0.509-0.732,0.989-1.425,1.166-1.764c1.27-2.438,2.364-5.031,3.421-7.539c0.724-1.715,1.472-3.489,2.276-5.214
		c1.066-2.287,2.465-4.537,3.818-6.713c1.781-2.863,3.616-5.815,4.69-8.858l-8.649-2.019l-0.054-0.733
		c-0.294-4.013-0.698-9.508,0.316-13.762c1.007-4.226,1.595-4.617,4.803-5.137c0.528-0.085,1.149-0.186,1.883-0.333
		c2.951-0.587,5.963-1.291,8.877-1.972c6.083-1.421,12.374-2.89,18.683-3.457l0.564-0.051l0.333,0.458
		c2.015,2.769,4.503,4.294,7.006,4.294c1.465,0,2.962-0.506,4.447-1.504l0.471-0.316l0.513,0.242
		c3.959,1.866,7.699,4.664,11.116,8.316c6.79,7.258,10.82,16.153,13.005,22.337l0.304,0.859l-0.828,0.382
		c-1.042,0.48-1.616,1.867-2.171,3.208c-0.758,1.832-1.618,3.909-3.923,3.909c0,0,0,0,0,0c-0.076,0-0.153-0.002-0.232-0.007
		c-2.49,3.191-11.923,38.878-11.244,48.171L185.126,278.239z M142.813,249.906c0.193,0,0.37,0.009,0.53,0.026
		c6.348,0.685,11.654,6.439,16.785,12.004c2.832,3.071,5.506,5.973,8.153,7.782c2.149,1.469,6.594,2.837,10.515,4.044
		c2.626,0.809,4.625,1.437,5.986,2.022c0.33-11.669,8.855-44.722,11.916-48.014c0.335-0.36,0.706-0.543,1.102-0.543l0.19,0.016
		c0.102,0.016,0.198,0.023,0.29,0.023l0,0c0.874,0,1.324-0.856,2.076-2.674c0.558-1.349,1.178-2.848,2.385-3.777
		c-2.177-5.957-6.025-14.163-12.308-20.878c-3.1-3.313-6.052-6.952-9.599-8.707c-1.666,1.016-3.784,2.603-5.487,2.603
		c-3.01,0-6-2.595-8.346-5.604c-5.988,0.588-11.95,2.942-17.787,4.306c-2.929,0.685-5.958,1.392-8.941,1.986
		c-0.762,0.151-1.406,0.256-1.954,0.345c-2.406,0.39-2.406,0.39-3.177,3.626c-0.884,3.709-0.595,8.62-0.32,12.418l9.305,2.172
		l-0.297,1.014c-1.072,3.663-3.189,7.068-5.237,10.361c-1.322,2.125-2.688,4.323-3.704,6.502c-0.788,1.69-1.529,3.447-2.246,5.146
		c-1.073,2.544-2.183,5.175-3.491,7.686c-0.235,0.452-0.704,1.126-1.297,1.98c-0.871,1.253-3.183,4.582-3.014,5.439
		c0.283,0.865,1.813,1.049,3.045,1.049c2.502,0,5.891-0.724,8.881-1.362C139.265,250.367,141.421,249.906,142.813,249.906z"/>
</g>
<path fill="#17264E" d="M111.681,288.831c0.517-0.09,1.034-0.168,1.552-0.234c25.327-3.273-9.769-9.975,10.601-35.698
	c1.163,0.343,1.911,0.739,3.5,1c6.758,1.107,16.921,1.536,19.333,3c3.857,2.34,14.09,8.63,23.619,14.887
	c5.671,3.724,19.069-2.331,26.053-3.501c7.908-1.324,19.2-4.346,27.042-1.4c0,0,19.858,31.436,25.981,44.104
	c6.121,12.667,8.175,11.279,8.175,11.279l-7.651,8.709c0,0-37.024-35.854-35.657-39.857c0,0-40.847,20.226-60.42,0.164
	c0,0-2.944-1.711-6.995,0.527c-12.01,6.635-35.981,22.755-39.544,20.592c-4.765-2.896-37.328,8.916-40.471,16.828l-6.223-3.934
	C60.577,325.296,86.32,293.257,111.681,288.831z"/>
<path opacity="0.58" fill="none" stroke="#10000C" stroke-width="3" d="M99.884,157.042c0,0,22.859,8.034,22.827-17.479
	c-0.031-25.514,49.3-96.359,55.316-94.189"/>
<path opacity="0.42" fill="none" stroke="#10000C" stroke-width="3" d="M65.92,142.354c0,0,17.159,13.52,25.227-6.209
	c8.068-19.731,52.67-122.144,91.388-110.072"/>
<path fill="none" stroke="#000000" stroke-width="2" stroke-miterlimit="2" d="M204.025,155.191
	c6.329-4.158,6.043,10.981-1.774,4.679c0.591,0.477,1.82,0.119,2.663,0.963c1.342,1.345,2.1,4.512-0.012,5.622
	c-2.636,1.384-5.789-2.943-6.667-4.856"/>
<path fill="none" stroke="#000000" stroke-width="2" stroke-miterlimit="2" d="M199.512,136.818"/>
<g>
	<polygon fill="#DAE000" stroke="#00913A" points="343.399,166.257 342.108,160.815 339.43,166.969 	"/>
	<path fill="#0E6836" stroke="#DAE000" d="M279.004,209.286c-4.095,7.023-13.947,23.846-19.482,30.217l-24.288,17.722l5.009,7.544
		l27.674-10.559c0,0,108.15-0.107,118.285-50.32C395.363,158.507,317.493,143.27,279.004,209.286z"/>
	<polyline fill="#DAE000" stroke="#00913A" points="313.516,183.009 312.545,167.305 318.713,177.792 	"/>
	<polygon fill="#DAE000" stroke="#00913A" points="356.683,171.222 366.396,163.091 361.557,174.966 	"/>
	<polygon fill="#DAE000" stroke="#00913A" points="346.03,179.269 346.437,169.366 340.218,175.439 	"/>
	<polygon fill="#DAE000" stroke="#00913A" points="387.47,197.617 377.055,197.638 378.683,200.624 	"/>
	<polygon fill="#DAE000" stroke="#00913A" points="374.798,180.402 378.221,184.491 385.972,177.132 	"/>
	<polygon fill="#DAE000" stroke="#00913A" points="339.473,193.367 344.755,194.101 345.564,183.443 	"/>
	<polygon fill="#DAE000" stroke="#00913A" points="363.867,188.746 365.845,195.113 372.892,190.828 	"/>
	<polygon fill="#DAE000" stroke="#00913A" points="314.856,239.504 309.009,236.299 306.917,244.275 	"/>
	<polygon fill="#DAE000" stroke="#00913A" points="345.322,214.243 339.71,217.843 345.714,223.497 	"/>
	<polygon fill="#DAE000" stroke="#00913A" points="303.675,215.722 302.127,209.237 294.809,213.041 	"/>
	<polygon fill="#DAE000" stroke="#00913A" points="326.353,217.655 320.849,213.893 317.986,221.627 	"/>
	<polygon fill="#DAE000" stroke="#00913A" points="358.085,227.936 353.957,232.63 364.559,239.452 	"/>
	<polygon fill="#DAE000" stroke="#00913A" points="340.049,238.015 332.527,238.912 335.781,247 	"/>
	<polygon fill="#DAE000" stroke="#00913A" points="319.912,199.433 323.249,196.896 316.229,189.746 	"/>
	<polygon fill="#DAE000" stroke="#00913A" points="293.851,198.133 296.499,192.014 286.816,190.009 	"/>
	<polygon fill="#DAE000" stroke="#00913A" points="354.872,202.702 353.811,206.766 363.435,207.973 	"/>
	<polygon fill="#DAE000" stroke="#00913A" points="377.434,214.708 375.712,218.106 383.781,219.177 	"/>
</g>
<path fill="#E9CF4F" d="M241.92,264.032c-0.07-2.313,1.452-3.774,3.081-1.634C247.62,265.842,242.026,267.478,241.92,264.032z"/>
<path fill="#E9CF4F" d="M247.253,261.698c-0.07-2.313,1.452-3.774,3.081-1.634C252.953,263.508,247.359,265.144,247.253,261.698z"/>
<path fill="#E9CF4F" d="M245.92,250.557c-0.07-3.469,1.452-5.661,3.081-2.45C251.62,253.271,246.026,255.726,245.92,250.557z"/>
<path fill="#E9CF4F" d="M252.333,259.732c0,0-1-3.334,1-2.334s3,2.334,3,2.334S254,260.399,252.333,259.732z"/>
<g>
	<g>
		<path fill="#FFFFFF" d="M172.993,221.9c0,0,10.782-0.739,11.464,9.742c0.681,10.481-18.424,10.397-20.377,9.85
			c-1.955-0.546-11.388-3.582-11.388-6.041C152.691,232.988,165.313,221.982,172.993,221.9z"/>
		<path fill="#837967" d="M153.079,236.746c-0.374-0.407-0.555-0.791-0.556-1.173c0.001-0.402,0.244-0.957,0.724-1.645
			c1.459-2.093,4.844-5.135,8.425-7.569c2.555-1.736,7.433-4.658,11.407-4.699c0.051-0.004,5.656-0.343,9.024,3.334
			c1.499,1.635,2.347,3.826,2.521,6.51c0.119,1.827-0.345,3.473-1.378,4.888c-4.424,6.057-17.794,5.752-19.273,5.339
			C161.764,241.111,155.024,238.869,153.079,236.746z M181.826,225.428c-3.322-3.627-8.856-3.293-8.912-3.289
			c-6.362,0.068-16.733,8.055-19.501,12.026c-0.251,0.361-0.554,0.856-0.553,1.16c-0.001,0.202,0.087,0.536,0.498,0.989
			c1.923,2.098,8.631,4.326,10.829,4.943c1.404,0.39,14.7,0.639,18.907-5.119c0.902-1.235,1.306-2.702,1.199-4.358
			C184.121,229.164,183.291,227.026,181.826,225.428z"/>
	</g>
	<g>
		<path fill="#555052" d="M176.87,222.326c-0.074,0.035-0.253-0.781-0.282-0.859c-0.271-0.76-0.575-1.47-0.905-2.128
			c-0.492-0.978-1.043-1.853-1.665-2.575c-0.53-0.617-1.286-1.742-2.095-1.54c0.255-0.064-0.508,7.866-0.582,8.687
			c-0.005,0.066-0.09,1.257-0.167,1.311C171.175,225.221,176.869,222.326,176.87,222.326z"/>
		<path fill="#837967" d="M171.153,225.462l0.024-0.468c-0.063,0.043-0.102,0.129-0.113,0.166c0.008-0.029,0.054-0.223,0.124-1.125
			l0.004-0.05c0.007-0.079,0.021-0.226,0.04-0.427c0.621-6.679,0.627-7.957,0.576-8.122c0.003,0.009,0.017,0.032,0.046,0.036
			l0.063-0.211l0.054-0.286c0,0,0.001-0.001,0.001-0.001l0.014-0.003c0.104-0.023,0.209-0.028,0.315-0.015
			c0.607,0.079,1.157,0.752,1.598,1.292c0.085,0.104,0.165,0.201,0.24,0.288c0.594,0.691,1.159,1.565,1.679,2.598
			c0.331,0.658,0.638,1.38,0.911,2.14c0.008,0.023,0.026,0.09,0.049,0.183c0.036,0.143,0.143,0.575,0.189,0.632
			c0,0-0.009-0.012-0.029-0.012l-0.065,0.214l-0.026,0.273C176.801,222.59,171.209,225.432,171.153,225.462z M172.124,215.454
			c0.013,0.761-0.107,2.748-0.592,7.955c-0.018,0.198-0.032,0.345-0.039,0.423l-0.002,0.039c-0.037,0.467-0.067,0.785-0.101,1.014
			c0.861-0.439,4.204-2.139,5.212-2.651c-0.033-0.106-0.07-0.248-0.116-0.431c-0.018-0.073-0.032-0.129-0.039-0.15
			c-0.269-0.748-0.571-1.46-0.899-2.11c-0.511-1.015-1.067-1.873-1.65-2.553c-0.076-0.089-0.157-0.189-0.243-0.292
			C173.225,216.169,172.686,215.507,172.124,215.454z"/>
	</g>
	<g>
		<path fill="#555052" d="M183.987,234.807c-0.131,0.473-14.995-9.838-31.267,0.661c0,0-1.73-1.392,10.007-9.718
			c0,0,9.861-7.213,18.416-1.573C181.143,224.177,186.038,227.512,183.987,234.807z"/>
		<path fill="#837967" d="M152.57,235.677c-0.052-0.058-0.207-0.289-0.018-0.853c0.596-1.771,4.116-4.982,10.178-9.281
			c0.021-0.016,2.531-1.836,6.052-2.93c3.243-1.008,8.043-1.594,12.486,1.335c0.019,0.014,0.443,0.306,0.995,0.907
			c1.333,1.455,3.351,4.681,1.877,9.921l-0.035,0.126l-0.092,0.091c-0.13,0.127-0.161,0.116-1.104-0.339
			c-10.862-5.24-21.022-4.895-30.203,1.027l-0.073,0.047L152.57,235.677z M181.985,225.289c-0.539-0.589-0.964-0.881-0.97-0.884
			c-8.401-5.54-18.192,1.479-18.291,1.55c-8.184,5.807-9.635,8.123-9.878,8.852c-0.072,0.212-0.052,0.33-0.025,0.39
			c5.907-3.785,12.309-5.296,19.028-4.493c5.408,0.646,9.534,2.637,11.294,3.486c0.318,0.153,0.604,0.291,0.768,0.355
			C185.167,229.702,183.255,226.676,181.985,225.289z"/>
	</g>
	<g>
		<path fill="#555052" d="M153.407,233.692c0,0-0.683-9.897-2.273-9.296c-1.591,0.604-0.906,9.505-0.906,9.505
			s-4.319,8.186-3.97,8.379c0.347,0.192,6.468-6.85,6.468-6.85l0.199-0.875L153.407,233.692"/>
		<path fill="#837967" d="M146.11,242.491c-0.104-0.114-0.248-0.272,1.904-4.572c0.883-1.762,1.802-3.518,2.038-3.968
			c-0.079-1.097-0.489-7.387,0.574-9.238c0.16-0.281,0.352-0.47,0.555-0.547c0.214-0.082,0.411-0.021,0.599,0.186
			c1.24,1.354,1.772,8.883,1.794,9.201l0.007,0.1l-0.511,0.915l-0.211,0.927l-0.08,0.092c-0.015,0.017-1.55,1.783-3.109,3.504
			c-3.246,3.581-3.426,3.48-3.534,3.421L146.11,242.491z M151.5,224.783c-0.141-0.152-0.28-0.205-0.414-0.153
			c-0.096,0.035-0.173,0.112-0.249,0.243c-0.815,1.421-0.597,6.898-0.444,8.889l0.008,0.093l-0.058,0.112
			c-1.828,3.463-3.728,7.295-3.923,8.045c0.568-0.372,3.494-3.568,6.172-6.646l0.188-0.824l0.451-0.808
			C153.165,232.83,152.619,226.006,151.5,224.783z"/>
	</g>
	<g>
		<path fill="#555052" d="M166.375,226.732c0,0,7.771,1.953,6.363,5.319c-1.407,3.37-5.416,0.831-6.151-0.029
			C165.853,231.161,165.021,228.203,166.375,226.732z"/>
		<path fill="#837967" d="M172.994,231.813c-0.027,0.095-0.06,0.191-0.102,0.286c-0.353,0.847-0.886,1.412-1.585,1.681
			c-1.822,0.697-4.247-0.88-4.861-1.598c-0.635-0.744-1.268-2.83-0.814-4.407c0.132-0.461,0.346-0.855,0.639-1.173l0.086-0.092
			l0.095,0.021C166.758,226.61,173.958,228.462,172.994,231.813z M165.965,227.805c-0.409,1.424,0.188,3.385,0.763,4.061
			c0.508,0.595,2.846,2.187,4.551,1.531c0.579-0.223,1.006-0.677,1.303-1.388c0.033-0.076,0.059-0.153,0.081-0.229
			c0.807-2.804-5.406-4.593-6.267-4.826C166.205,227.19,166.06,227.475,165.965,227.805z"/>
	</g>
	<path fill="#837967" d="M181.423,238.104c-2.292-3.338-4.093-5.695-4.109-5.721l0.288-0.423c0.017,0.024,1.82,2.388,4.114,5.729
		L181.423,238.104z"/>
	<polygon fill="#837967" points="180.801,236.951 181.55,234.504 180.344,235.928 180.143,235.778 180.758,234.035 179.57,235.16 
		179.394,234.985 179.873,233.591 179.063,234.304 178.885,234.165 179.12,233.158 178.605,233.552 178.436,233.458 178.48,232.604 
		178.814,232.387 178.782,233.006 179.352,232.569 179.516,232.722 179.288,233.692 180.16,232.924 180.325,233.108 
		179.858,234.471 181.055,233.336 181.229,233.515 180.665,235.111 181.823,233.746 182.031,233.875 181.33,236.166 182.708,234.23 
		182.938,234.335 182.087,236.986 183.889,234.729 184.021,235.01 181.794,237.802 181.58,237.675 182.392,235.145 181.032,237.052 
			"/>
	<g>
		<path fill="#555052" d="M161.443,231.599c-0.129,0.032-2.275,0.684-2.639,0.819s-1.188,1.017-1.848,2.621
			c-0.662,1.606,1.848,0.211,4.675-3.489"/>
		<path fill="#837967" d="M156.763,235.852c-0.125-0.138-0.106-0.437,0.055-0.832c0.737-1.786,1.638-2.687,2.035-2.836
			c0.354-0.13,2.499-0.783,2.651-0.821l-0.049,0.189c0.035-0.046,0.069-0.089,0.104-0.135l0.143,0.268
			c-2.19,2.865-4.396,4.577-4.905,4.198C156.784,235.874,156.773,235.863,156.763,235.852z M161.189,231.89
			c-0.564,0.169-2.135,0.649-2.432,0.759c-0.25,0.094-1.015,0.83-1.667,2.412c-0.125,0.303-0.062,0.35-0.036,0.369
			C157.349,235.649,159.041,234.582,161.189,231.89z"/>
	</g>
	<g>
		<path fill="#FFFFFF" d="M178.579,225.512c-0.498,0.824-1.732,1.887-1.453,2.811c0.155,0.202,2.03,2.459,4.357,0.667
			C180.727,228.264,179.143,226.16,178.579,225.512z"/>
		<path d="M180.34,227.213c-0.698,0.014-1.811,0.762-1.858,1.74c-0.05,0.979,0.629,1.121,1.329,1.109
			c0.702-0.019,1.672-1.073,1.672-1.073S181.043,227.199,180.34,227.213z"/>
		<path fill="#837967" d="M178.775,224.865c0,0-0.265-0.314-0.267-0.314c-0.073-0.083-0.875,1.168-0.956,1.293
			c-1.876,2.939,0.465,4.719,2.141,4.371c0.698-0.146,1.084-0.308,2.155-1.383C181.848,228.832,179.432,225.622,178.775,224.865z
			 M177.743,228.43c-0.278-0.922,0.338-2.094,0.836-2.918c0.563,0.648,2.031,2.779,2.789,3.505
			C179.041,230.808,177.898,228.633,177.743,228.43z"/>
	</g>
</g>
</svg>
